<?xml version="1.0" encoding="UTF-8"?>
<svg id="Capa_2" data-name="Capa 2" xmlns="http://www.w3.org/2000/svg" viewBox="0 0 138.4 46.08">
  <defs>
    <style>
      .cls-1 {
        fill: #010000;
      }

      .cls-2 {
        fill: #e90000;
      }
    </style>
  </defs>
  <g id="Capa_1-2" data-name="Capa 1">
    <g>
      <g>
        <path d="M42.97,22.37c-2.04,0-3.79-.36-5.24-1.07-1.45-.72-2.55-1.83-3.31-3.34-.75-1.51-1.13-3.43-1.13-5.76,0-3.44.85-5.99,2.54-7.66,1.69-1.67,4.07-2.51,7.15-2.51,1.68,0,3.19.29,4.53.86,1.34.57,2.39,1.43,3.17,2.58.77,1.15,1.16,2.59,1.16,4.33h-4.3c0-.92-.19-1.69-.56-2.32-.37-.63-.9-1.11-1.58-1.45-.68-.33-1.47-.5-2.36-.5-1.22,0-2.23.24-3.02.72s-1.37,1.18-1.75,2.11c-.37.93-.56,2.06-.56,3.4v.89c0,1.38.19,2.53.57,3.45.38.93.96,1.62,1.73,2.09.77.47,1.77.7,2.99.7.96,0,1.79-.16,2.49-.49.71-.32,1.25-.8,1.63-1.43.38-.63.57-1.4.57-2.32h4.13c0,1.74-.38,3.18-1.13,4.33-.76,1.15-1.8,2-3.14,2.56-1.34.56-2.87.85-4.58.85Z"/>
        <path d="M55.17,22.03V2.37h15.7v3.5h-11.4v4.38h10.09v3.47h-10.09v4.78h11.58v3.52h-15.87Z"/>
        <path d="M74.74,22.03V2.37h3.92l7.91,10.6c.11.13.26.32.43.56.17.24.33.47.49.7.15.23.26.41.31.54h.14V2.37h4.04v19.65h-3.92l-8.08-10.86c-.19-.27-.39-.56-.6-.89-.21-.32-.36-.57-.46-.74h-.14v12.49h-4.04Z"/>
        <path d="M105.14,22.37c-2.04,0-3.79-.36-5.24-1.07-1.45-.72-2.55-1.83-3.31-3.34-.75-1.51-1.13-3.43-1.13-5.76,0-3.44.85-5.99,2.54-7.66,1.69-1.67,4.07-2.51,7.15-2.51,1.68,0,3.19.29,4.53.86,1.34.57,2.39,1.43,3.17,2.58.77,1.15,1.16,2.59,1.16,4.33h-4.3c0-.92-.19-1.69-.56-2.32-.37-.63-.9-1.11-1.58-1.45-.68-.33-1.47-.5-2.36-.5-1.22,0-2.23.24-3.02.72s-1.37,1.18-1.75,2.11c-.37.93-.56,2.06-.56,3.4v.89c0,1.38.19,2.53.57,3.45.38.93.96,1.62,1.73,2.09.77.47,1.77.7,2.99.7.96,0,1.79-.16,2.49-.49.71-.32,1.25-.8,1.63-1.43.38-.63.57-1.4.57-2.32h4.13c0,1.74-.38,3.18-1.13,4.33-.76,1.15-1.8,2-3.14,2.56-1.34.56-2.87.85-4.58.85Z"/>
        <path d="M126.51,22.37c-2.08,0-3.88-.37-5.39-1.12-1.51-.74-2.66-1.87-3.47-3.38-.8-1.51-1.2-3.4-1.2-5.67s.4-4.22,1.2-5.72c.8-1.5,1.96-2.62,3.47-3.35,1.51-.73,3.3-1.1,5.39-1.1s3.93.37,5.43,1.1c1.5.74,2.65,1.85,3.45,3.35.8,1.5,1.2,3.41,1.2,5.72s-.4,4.16-1.2,5.67c-.8,1.51-1.95,2.64-3.45,3.38-1.5.75-3.31,1.12-5.43,1.12ZM126.51,18.88c.94,0,1.76-.13,2.46-.4.71-.27,1.3-.67,1.78-1.2.48-.53.84-1.19,1.09-1.96s.37-1.66.37-2.65v-.89c0-1.01-.12-1.91-.37-2.69-.25-.78-.61-1.44-1.09-1.96-.48-.53-1.07-.92-1.78-1.19-.71-.27-1.53-.4-2.46-.4s-1.73.13-2.44.4c-.71.27-1.3.66-1.78,1.19-.48.53-.84,1.18-1.07,1.96-.24.78-.36,1.68-.36,2.69v.89c0,.99.12,1.88.36,2.65.24.77.6,1.43,1.07,1.96.48.54,1.07.94,1.78,1.2.71.27,1.52.4,2.44.4Z"/>
      </g>
      <g>
        <rect class="cls-2" x="56.97" y="28.25" width="24.46" height="6.14"/>
        <rect class="cls-2" x="28.48" y="28.25" width="24.46" height="6.14"/>
        <rect class="cls-2" y="28.25" width="24.46" height="6.14"/>
        <rect class="cls-2" x="85.46" y="28.25" width="24.46" height="6.14"/>
        <rect class="cls-2" x="113.94" y="28.25" width="24.46" height="6.14"/>
        <path class="cls-2" d="M1.28,0v17.31l6.61,6.61,1.98,1.98.37.38,1.98,1.98,1.97-1.98.38-.38,1.98-1.98,4.38-4.39,2.24-2.24V0H1.28ZM17.05,14.76l-4.82,4.82-4.82-4.82V6.13h9.64v8.62Z"/>
      </g>
    </g>
    <g>
      <path class="cls-1" d="M32.16,44.86c-.5,0-.92-.09-1.27-.27-.35-.18-.61-.46-.8-.84-.18-.37-.27-.85-.27-1.42,0-.85.21-1.49.62-1.91.41-.42.99-.63,1.73-.63.42,0,.79.07,1.11.2.32.14.58.34.76.61s.27.62.27,1.03h-.69c0-.29-.06-.52-.18-.71s-.29-.32-.51-.42c-.22-.09-.48-.14-.77-.14-.34,0-.64.07-.89.2-.25.13-.44.34-.56.62-.13.28-.19.64-.19,1.07v.15c0,.43.06.79.19,1.06.13.27.32.47.56.6.24.13.54.19.89.19.3,0,.57-.05.79-.14.22-.09.39-.23.51-.42.12-.19.18-.42.18-.71h.66c0,.42-.09.77-.28,1.04-.19.27-.44.47-.77.61-.32.13-.69.2-1.11.2Z"/>
      <path class="cls-1" d="M36.68,44.86c-.38,0-.7-.07-.96-.21-.26-.14-.46-.36-.59-.65-.14-.29-.2-.66-.2-1.11s.07-.82.2-1.11c.14-.29.33-.5.59-.64.26-.14.58-.21.96-.21s.7.07.96.21c.26.14.46.35.59.64.13.29.2.66.2,1.11s-.07.82-.2,1.11c-.13.29-.33.51-.59.65-.26.14-.58.21-.96.21ZM36.68,44.34c.24,0,.44-.05.61-.14s.28-.24.37-.45c.08-.2.12-.46.12-.77v-.16c0-.31-.04-.57-.12-.77-.08-.2-.21-.35-.37-.44-.16-.1-.36-.14-.61-.14s-.45.05-.61.14c-.16.09-.29.24-.37.44-.08.2-.12.46-.12.77v.16c0,.31.04.57.12.77.08.2.2.35.37.45.16.1.37.14.61.14Z"/>
      <path class="cls-1" d="M39.21,44.78v-3.75h.51l.06.62h.05c.04-.12.09-.23.16-.34.07-.11.16-.19.27-.26.11-.07.25-.1.42-.1.07,0,.14,0,.2.02.06.01.1.03.13.04v.58h-.24c-.16,0-.3.03-.42.08-.12.05-.21.13-.29.23-.08.1-.13.22-.17.36-.04.14-.05.29-.05.44v2.09h-.63Z"/>
      <path class="cls-1" d="M42.46,44.86c-.2,0-.35-.04-.46-.11-.11-.07-.19-.17-.24-.29-.05-.12-.07-.25-.07-.39v-2.52h-.49v-.53h.5l.11-1.05h.5v1.05h.71v.53h-.71v2.43c0,.12.02.21.06.27.04.06.12.09.24.09h.4v.41s-.1.04-.17.06c-.07.01-.13.03-.2.04-.07.01-.13.02-.2.02Z"/>
      <path class="cls-1" d="M45.2,44.86c-.37,0-.68-.07-.94-.21-.25-.14-.45-.36-.58-.65-.13-.29-.2-.66-.2-1.11s.07-.82.2-1.11c.13-.29.32-.5.58-.64s.58-.21.96-.21c.35,0,.65.07.89.2.24.14.42.34.54.61.12.27.18.61.18,1.01v.3h-2.7c0,.3.05.55.13.74.08.19.2.33.35.42.16.09.35.13.59.13.16,0,.3-.02.42-.06.12-.04.22-.1.31-.17.08-.08.15-.17.19-.27.04-.1.07-.22.07-.34h.61c0,.2-.04.38-.11.55s-.18.31-.31.43c-.14.12-.31.21-.51.28-.2.07-.43.1-.69.1ZM44.15,42.59h2.03c0-.21-.02-.39-.07-.53-.05-.14-.12-.26-.2-.35-.09-.09-.19-.16-.31-.2-.12-.04-.25-.06-.4-.06-.22,0-.4.04-.56.12-.15.08-.27.2-.35.37-.08.17-.13.38-.15.64Z"/>
      <path class="cls-1" d="M49.22,44.78v-4.9h.68v4.3h2.43v.59h-3.11Z"/>
      <path class="cls-1" d="M53.87,44.86c-.14,0-.28-.02-.41-.05-.14-.03-.27-.09-.39-.16-.12-.08-.21-.18-.29-.32-.07-.14-.11-.31-.11-.51,0-.26.06-.47.19-.64.12-.17.3-.3.52-.39.22-.09.48-.16.79-.19.3-.04.64-.05.99-.05v-.43c0-.14-.02-.26-.07-.36-.05-.1-.13-.18-.25-.23-.12-.05-.29-.08-.52-.08s-.38.03-.51.08c-.13.05-.21.13-.26.21-.05.09-.07.18-.07.29v.11h-.61s0-.05,0-.07v-.09c0-.23.06-.42.19-.57s.3-.27.53-.35.49-.12.79-.12c.31,0,.58.05.79.14.21.09.37.22.48.39.11.17.16.37.16.6v2.03c0,.09.02.15.06.19s.1.05.16.05h.28v.41c-.07.03-.14.05-.22.07-.08.02-.17.03-.28.03-.12,0-.23-.03-.31-.07-.08-.05-.14-.12-.19-.21-.04-.09-.07-.19-.09-.3h-.05c-.09.12-.19.22-.32.31-.13.09-.28.16-.44.2-.16.05-.34.07-.53.07ZM54.03,44.34c.15,0,.3-.02.43-.07s.26-.12.36-.2c.1-.09.19-.19.25-.32s.09-.26.09-.41v-.31c-.39,0-.71.02-.99.06s-.48.12-.62.23-.22.26-.22.46c0,.13.03.23.09.31s.14.14.24.18c.1.04.23.06.36.06ZM53.96,40.56l.62-.94h.71v.02s-.78.92-.78.92h-.55Z"/>
      <path class="cls-1" d="M58.13,44.86c-.26,0-.48-.03-.68-.08-.2-.05-.36-.13-.49-.23s-.23-.22-.29-.36c-.07-.14-.1-.29-.1-.47v-.07s0-.04,0-.05h.62s0,.04,0,.05v.04c0,.17.05.3.13.39.08.1.2.16.35.2.15.04.31.06.49.06.16,0,.3-.02.44-.06.13-.04.24-.1.32-.19.08-.08.12-.19.12-.32,0-.16-.05-.28-.15-.36-.1-.08-.24-.15-.4-.2s-.34-.1-.52-.15c-.15-.04-.3-.09-.46-.14-.15-.05-.29-.12-.41-.19s-.22-.17-.29-.3c-.07-.12-.11-.27-.11-.46,0-.17.03-.31.1-.44.07-.13.17-.24.3-.33.13-.09.28-.16.47-.2.18-.05.39-.07.61-.07.24,0,.45.03.62.08.18.05.33.13.45.22.12.1.21.2.26.32.06.12.09.25.09.39v.08s0,.05,0,.06h-.61v-.08c0-.09-.02-.19-.07-.27-.05-.09-.14-.16-.26-.21-.12-.05-.29-.08-.5-.08-.14,0-.26.01-.36.03-.1.02-.18.05-.25.1-.07.05-.12.1-.15.16-.03.06-.05.13-.05.2,0,.12.04.22.12.29.08.07.19.12.32.16.14.04.28.09.44.14.17.05.34.1.51.15.17.05.33.11.48.19s.26.18.35.31c.09.13.13.3.13.52,0,.2-.04.37-.11.52-.08.15-.18.27-.32.36-.14.1-.3.17-.49.21-.19.05-.39.07-.62.07Z"/>
      <path class="cls-1" d="M61.96,44.86c-.37,0-.68-.07-.94-.21-.25-.14-.45-.36-.58-.65-.13-.29-.2-.66-.2-1.11s.07-.82.2-1.11c.13-.29.32-.5.58-.64s.58-.21.96-.21c.35,0,.65.07.89.2.24.14.42.34.54.61.12.27.18.61.18,1.01v.3h-2.7c0,.3.05.55.13.74.08.19.2.33.35.42.16.09.35.13.59.13.16,0,.3-.02.42-.06.12-.04.22-.1.31-.17.08-.08.15-.17.19-.27.04-.1.07-.22.07-.34h.61c0,.2-.04.38-.11.55s-.18.31-.31.43c-.14.12-.31.21-.51.28-.2.07-.43.1-.69.1ZM60.91,42.59h2.03c0-.21-.02-.39-.07-.53-.05-.14-.12-.26-.2-.35-.09-.09-.19-.16-.31-.2-.12-.04-.25-.06-.4-.06-.22,0-.4.04-.56.12-.15.08-.27.2-.35.37-.08.17-.13.38-.15.64Z"/>
      <path class="cls-1" d="M64.37,44.78v-3.75h.51l.06.62h.05c.04-.12.09-.23.16-.34.07-.11.16-.19.27-.26.11-.07.25-.1.42-.1.07,0,.14,0,.2.02.06.01.1.03.13.04v.58h-.24c-.16,0-.3.03-.42.08-.12.05-.21.13-.29.23-.08.1-.13.22-.17.36-.04.14-.05.29-.05.44v2.09h-.63Z"/>
      <path class="cls-1" d="M68.41,46.08c-.11,0-.21,0-.3-.02-.08-.02-.14-.03-.17-.03v-.46h.31c.11,0,.23-.02.34-.07.11-.05.21-.13.31-.24.1-.11.18-.27.24-.47l-1.46-3.75h.66l.75,1.93c.03.09.07.2.12.33.05.13.09.27.14.4.05.14.08.26.11.36h.04c.02-.08.04-.16.07-.26.03-.1.06-.19.09-.3.03-.1.06-.2.09-.29.03-.09.06-.17.07-.25l.64-1.94h.64l-1.27,3.65c-.07.2-.15.39-.24.57-.09.17-.18.32-.29.45-.1.12-.23.22-.38.29-.15.07-.32.1-.52.1Z"/>
      <path class="cls-1" d="M75.4,44.86c-.5,0-.92-.09-1.27-.27-.35-.18-.61-.46-.8-.84-.18-.37-.27-.85-.27-1.42,0-.85.21-1.49.62-1.91.41-.42.99-.63,1.73-.63.42,0,.79.07,1.11.2.32.14.58.34.76.61s.27.62.27,1.03h-.69c0-.29-.06-.52-.18-.71s-.29-.32-.51-.42c-.22-.09-.48-.14-.77-.14-.34,0-.64.07-.89.2-.25.13-.44.34-.56.62-.13.28-.19.64-.19,1.07v.15c0,.43.06.79.19,1.06.13.27.32.47.56.6.24.13.54.19.89.19.3,0,.57-.05.79-.14.22-.09.39-.23.51-.42.12-.19.18-.42.18-.71h.66c0,.42-.09.77-.28,1.04-.19.27-.44.47-.77.61-.32.13-.69.2-1.11.2Z"/>
      <path class="cls-1" d="M79.92,44.86c-.38,0-.7-.07-.96-.21-.26-.14-.46-.36-.59-.65-.14-.29-.2-.66-.2-1.11s.07-.82.2-1.11c.14-.29.33-.5.59-.64.26-.14.58-.21.96-.21s.7.07.96.21c.26.14.46.35.59.64.13.29.2.66.2,1.11s-.07.82-.2,1.11c-.13.29-.33.51-.59.65-.26.14-.58.21-.96.21ZM79.92,44.34c.24,0,.44-.05.61-.14s.28-.24.37-.45c.08-.2.12-.46.12-.77v-.16c0-.31-.04-.57-.12-.77-.08-.2-.21-.35-.37-.44-.16-.1-.36-.14-.61-.14s-.45.05-.61.14c-.16.09-.29.24-.37.44-.08.2-.12.46-.12.77v.16c0,.31.04.57.12.77.08.2.2.35.37.45.16.1.37.14.61.14Z"/>
      <path class="cls-1" d="M82.45,44.78v-3.75h.51l.06.56h.05c.1-.15.21-.28.34-.37.13-.1.27-.17.42-.21.15-.05.32-.07.5-.07.24,0,.45.04.62.12.18.08.32.21.42.39s.15.43.15.74v2.59h-.63v-2.51c0-.16-.02-.29-.06-.39s-.1-.18-.16-.24c-.07-.06-.15-.1-.25-.12-.1-.02-.21-.04-.32-.04-.18,0-.34.04-.5.13-.16.09-.28.21-.37.37-.09.16-.14.35-.14.58v2.21h-.63Z"/>
      <path class="cls-1" d="M86.62,44.78v-3.23h-.56v-.53h.56v-.6c0-.15.02-.29.06-.42.04-.13.12-.24.24-.32.12-.08.29-.13.5-.13.07,0,.13,0,.2.01.06,0,.13.02.19.03.06.01.11.03.16.04v.45h-.38c-.12,0-.21.03-.26.09-.05.06-.08.14-.08.25v.59h.72v.53h-.72v3.23h-.63Z"/>
      <path class="cls-1" d="M89.93,44.86c-.37,0-.68-.07-.94-.21-.25-.14-.45-.36-.58-.65-.13-.29-.2-.66-.2-1.11s.07-.82.2-1.11c.13-.29.32-.5.58-.64s.58-.21.96-.21c.35,0,.65.07.89.2.24.14.42.34.54.61.12.27.18.61.18,1.01v.3h-2.7c0,.3.05.55.13.74.08.19.2.33.35.42.16.09.35.13.59.13.16,0,.3-.02.42-.06.12-.04.22-.1.31-.17.08-.08.15-.17.19-.27.04-.1.07-.22.07-.34h.61c0,.2-.04.38-.11.55s-.18.31-.31.43c-.14.12-.31.21-.51.28-.2.07-.43.1-.69.1ZM88.88,42.59h2.03c0-.21-.02-.39-.07-.53-.05-.14-.12-.26-.2-.35-.09-.09-.19-.16-.31-.2-.12-.04-.25-.06-.4-.06-.22,0-.4.04-.56.12-.15.08-.27.2-.35.37-.08.17-.13.38-.15.64Z"/>
      <path class="cls-1" d="M93.77,44.86c-.36,0-.67-.07-.91-.21-.25-.14-.43-.36-.56-.65-.13-.29-.19-.66-.19-1.1s.06-.81.19-1.1.31-.51.56-.65.56-.21.92-.21c.26,0,.48.03.67.1.19.07.34.16.47.29.12.13.22.28.27.46.06.18.09.39.09.62h-.64c0-.22-.03-.4-.09-.54-.06-.14-.15-.25-.28-.31-.13-.07-.3-.1-.51-.1s-.39.05-.54.14c-.15.09-.27.24-.35.44-.08.2-.12.46-.12.79v.15c0,.31.04.57.12.77.08.2.19.35.35.45.15.1.34.14.56.14s.39-.04.52-.11c.13-.08.23-.19.29-.33.06-.14.09-.31.09-.51h.61c0,.21-.03.4-.09.59-.06.18-.15.34-.27.47-.12.13-.28.24-.47.31-.19.07-.42.11-.69.11Z"/>
      <path class="cls-1" d="M97.47,44.86c-.36,0-.67-.07-.91-.21-.25-.14-.43-.36-.56-.65-.13-.29-.19-.66-.19-1.1s.06-.81.19-1.1.31-.51.56-.65.56-.21.92-.21c.26,0,.48.03.67.1.19.07.34.16.47.29.12.13.22.28.27.46.06.18.09.39.09.62h-.64c0-.22-.03-.4-.09-.54-.06-.14-.15-.25-.28-.31-.13-.07-.3-.1-.51-.1s-.39.05-.54.14c-.15.09-.27.24-.35.44-.08.2-.12.46-.12.79v.15c0,.31.04.57.12.77.08.2.19.35.35.45.15.1.34.14.56.14s.39-.04.52-.11c.13-.08.23-.19.29-.33.06-.14.09-.31.09-.51h.61c0,.21-.03.4-.09.59-.06.18-.15.34-.27.47-.12.13-.28.24-.47.31-.19.07-.42.11-.69.11Z"/>
      <path class="cls-1" d="M99.75,40.32v-.7h.63v.7h-.63ZM99.75,44.78v-3.75h.63v3.75h-.63Z"/>
      <path class="cls-1" d="M102.9,44.86c-.38,0-.7-.07-.96-.21-.26-.14-.46-.36-.59-.65-.14-.29-.2-.66-.2-1.11s.07-.82.2-1.11c.14-.29.33-.5.59-.64.26-.14.58-.21.96-.21s.7.07.96.21c.26.14.46.35.59.64.13.29.2.66.2,1.11s-.07.82-.2,1.11c-.13.29-.33.51-.59.65-.26.14-.58.21-.96.21ZM102.9,44.34c.24,0,.44-.05.61-.14s.28-.24.37-.45c.08-.2.12-.46.12-.77v-.16c0-.31-.04-.57-.12-.77-.08-.2-.21-.35-.37-.44-.16-.1-.36-.14-.61-.14s-.45.05-.61.14c-.16.09-.29.24-.37.44-.08.2-.12.46-.12.77v.16c0,.31.04.57.12.77.08.2.2.35.37.45.16.1.37.14.61.14ZM102.53,40.56l.61-.94h.71v.02s-.79.92-.79.92h-.54Z"/>
      <path class="cls-1" d="M105.43,44.78v-3.75h.51l.06.56h.05c.1-.15.21-.28.34-.37.13-.1.27-.17.42-.21.15-.05.32-.07.5-.07.24,0,.45.04.62.12.18.08.32.21.42.39s.15.43.15.74v2.59h-.63v-2.51c0-.16-.02-.29-.06-.39s-.1-.18-.16-.24c-.07-.06-.15-.1-.25-.12-.1-.02-.21-.04-.32-.04-.18,0-.34.04-.5.13-.16.09-.28.21-.37.37-.09.16-.14.35-.14.58v2.21h-.63Z"/>
    </g>
  </g>
</svg>