<?xml version="1.0" encoding="UTF-8"?>
<svg id="Capa_2" data-name="Capa 2" xmlns="http://www.w3.org/2000/svg" viewBox="0 0 132.56 49.83">
  <defs>
    <style>
      .cls-1 {
        fill: #eb008b;
      }

      .cls-2 {
        fill: #ffef20;
      }

      .cls-3 {
        fill: #fff;
      }

      .cls-4 {
        fill: #00adee;
      }
    </style>
  </defs>
  <g id="Capa_1-2" data-name="Capa 1">
    <g>
      <polygon points="0 48.32 0 42.63 4.38 42.63 4.38 43.31 .79 43.31 .79 45.07 4.02 45.07 4.02 45.75 .79 45.75 .79 47.64 4.43 47.64 4.43 48.32 0 48.32"/>
      <path d="M7.01,48.42c-.3,0-.56-.03-.79-.09-.22-.06-.42-.15-.56-.26-.15-.12-.26-.26-.34-.42-.08-.16-.12-.34-.12-.55v-.08s0-.04,0-.06h.72s0,.04,0,.06v.05c0,.19.05.35.15.46.1.11.23.19.4.23.17.04.36.07.57.07.18,0,.35-.02.51-.07.16-.05.28-.12.37-.22.09-.1.14-.22.14-.37,0-.18-.06-.32-.18-.42-.12-.1-.28-.17-.47-.23-.19-.06-.4-.11-.61-.18-.18-.05-.35-.1-.53-.17-.18-.06-.34-.14-.48-.22-.14-.09-.25-.2-.34-.34-.09-.14-.13-.32-.13-.54,0-.19.04-.37.12-.51.08-.15.2-.28.35-.38.15-.1.33-.18.54-.24.21-.05.45-.08.71-.08.28,0,.52.03.73.09.21.06.38.15.52.26.14.11.24.24.31.38.07.14.1.29.1.45v.09s0,.05,0,.07h-.71v-.09c0-.11-.03-.22-.09-.32-.06-.1-.16-.19-.3-.25-.14-.06-.34-.1-.59-.1-.16,0-.3.01-.42.04s-.21.06-.29.12c-.08.05-.14.11-.18.18-.04.07-.06.15-.06.24,0,.14.05.25.14.33.09.08.22.14.38.19.16.05.33.11.51.17.19.05.39.11.59.17.2.06.39.13.56.22.17.09.3.21.41.36.1.15.15.35.15.6,0,.23-.04.43-.13.61-.09.17-.21.31-.38.42-.16.11-.35.19-.57.24-.22.05-.46.08-.72.08"/>
      <path d="M10.73,48.42c-.23,0-.4-.04-.53-.13-.13-.09-.22-.2-.27-.34-.06-.14-.08-.29-.08-.45v-2.93h-.56v-.61h.58l.13-1.22h.58v1.22h.82v.61h-.82v2.82c0,.14.02.24.07.31.05.07.14.1.28.1h.46v.48c-.06.03-.12.05-.2.07-.08.02-.16.03-.24.04-.08.01-.16.02-.23.02"/>
      <path d="M13.28,48.42c-.16,0-.32-.02-.48-.06-.16-.04-.31-.1-.45-.19-.14-.09-.25-.21-.33-.37-.08-.16-.13-.36-.13-.59,0-.3.07-.55.22-.74.14-.19.34-.34.6-.45.26-.11.56-.18.92-.22.35-.04.74-.06,1.15-.06v-.5c0-.16-.03-.3-.08-.42-.06-.12-.15-.21-.29-.27-.14-.06-.34-.1-.6-.1s-.45.03-.59.1c-.15.06-.25.15-.31.25-.06.1-.09.21-.09.33v.13h-.7s0-.06,0-.08v-.1c0-.27.07-.49.22-.67.15-.18.35-.32.62-.41.27-.09.57-.14.91-.14.37,0,.67.05.92.16.24.1.43.25.56.45.12.19.19.43.19.7v2.37c0,.11.02.18.08.22.05.04.11.06.18.06h.32v.48c-.08.03-.16.06-.26.09-.1.02-.2.04-.32.04-.14,0-.26-.03-.36-.09-.09-.06-.17-.14-.21-.24-.05-.1-.08-.22-.1-.34h-.06c-.1.14-.22.26-.38.36-.15.1-.32.18-.51.24-.19.06-.39.08-.61.08M13.46,47.81c.18,0,.35-.03.5-.08.16-.05.3-.13.42-.24.12-.1.22-.22.29-.37.07-.14.11-.3.11-.47v-.36c-.45,0-.83.02-1.15.07-.31.05-.56.14-.73.27-.17.13-.25.31-.25.54,0,.15.03.27.1.37.07.09.16.16.28.21.12.05.26.07.42.07"/>
      <path d="M16.7,48.32v-4.37h.59l.07.65h.06c.11-.18.24-.32.37-.43.14-.11.29-.19.46-.24.17-.05.35-.08.54-.08.28,0,.53.06.73.17.21.11.36.31.46.58h.05c.11-.18.23-.32.36-.43.14-.11.29-.19.47-.25.17-.05.35-.08.55-.08.26,0,.5.04.7.14.2.09.35.24.47.45.11.21.17.48.17.83v3.05h-.73v-2.93c0-.18-.02-.32-.06-.44-.04-.12-.1-.21-.18-.27-.08-.06-.17-.11-.27-.14-.1-.03-.21-.04-.33-.04-.2,0-.37.05-.54.15-.17.1-.29.24-.39.43-.1.19-.15.41-.15.67v2.57h-.73v-2.93c0-.18-.02-.32-.07-.44s-.1-.21-.18-.27c-.07-.06-.16-.11-.26-.14-.1-.03-.21-.04-.32-.04-.2,0-.38.05-.55.15-.17.1-.3.24-.4.43-.1.19-.15.41-.15.67v2.57h-.73Z"/>
      <path d="M23.84,49.76v-5.8h.58l.08.62h.06c.15-.24.34-.42.57-.54.23-.12.5-.18.79-.18.37,0,.67.08.93.24.25.16.45.41.59.75.14.34.21.78.21,1.32,0,.51-.07.93-.21,1.27-.14.34-.34.58-.59.74-.25.16-.55.24-.89.24-.19,0-.37-.02-.53-.07-.17-.04-.32-.11-.45-.21-.13-.1-.25-.22-.35-.37h-.05v1.98h-.73ZM25.72,47.78c.27,0,.49-.05.66-.16.17-.11.3-.28.38-.51.08-.23.13-.52.13-.88v-.17c0-.38-.04-.69-.13-.92-.09-.23-.22-.39-.39-.49-.17-.1-.38-.15-.63-.15-.27,0-.5.06-.67.18-.17.12-.3.3-.38.54-.08.24-.12.53-.12.87v.12c0,.31.03.56.09.76.06.2.14.37.25.49.11.12.23.21.37.26.14.05.28.08.44.08"/>
      <path d="M29.65,48.42c-.16,0-.32-.02-.48-.06-.16-.04-.31-.1-.45-.19-.14-.09-.25-.21-.33-.37-.08-.16-.13-.36-.13-.59,0-.3.07-.55.22-.74.14-.19.34-.34.6-.45.26-.11.56-.18.92-.22.35-.04.74-.06,1.15-.06v-.5c0-.16-.03-.3-.08-.42-.05-.12-.15-.21-.29-.27-.14-.06-.34-.1-.6-.1s-.45.03-.59.1c-.15.06-.25.15-.31.25-.06.1-.09.21-.09.33v.13h-.7s0-.06,0-.08v-.1c0-.27.07-.49.22-.67.15-.18.35-.32.62-.41.26-.09.57-.14.91-.14.37,0,.67.05.92.16.24.1.43.25.56.45.12.19.19.43.19.7v2.37c0,.11.02.18.08.22.05.04.11.06.18.06h.32v.48c-.08.03-.16.06-.26.09-.1.02-.2.04-.32.04-.14,0-.26-.03-.36-.09-.09-.06-.17-.14-.21-.24-.05-.1-.08-.22-.1-.34h-.06c-.1.14-.22.26-.38.36-.15.1-.32.18-.51.24-.19.06-.39.08-.61.08M29.83,47.81c.18,0,.35-.03.5-.08.16-.05.3-.13.42-.24.12-.1.22-.22.29-.37.07-.14.11-.3.11-.47v-.36c-.45,0-.83.02-1.15.07-.31.05-.56.14-.73.27-.17.13-.25.31-.25.54,0,.15.03.27.1.37.07.09.16.16.28.21.12.05.26.07.42.07"/>
      <path d="M34.56,48.42c-.36,0-.67-.08-.93-.24-.26-.16-.46-.41-.6-.75-.14-.34-.21-.78-.21-1.32,0-.51.07-.94.22-1.27.14-.33.34-.58.6-.74.25-.16.55-.24.89-.24.19,0,.37.02.54.07.17.04.31.11.44.21.13.09.25.22.35.37h.05v-2.18h.73v6h-.59l-.07-.62h-.06c-.15.24-.34.42-.58.54-.24.12-.5.18-.78.18M34.73,47.78c.28,0,.5-.06.67-.18.17-.12.3-.3.38-.53.08-.23.12-.52.12-.86v-.13c0-.3-.03-.55-.09-.75-.06-.2-.14-.37-.25-.49-.11-.12-.23-.21-.37-.26-.14-.05-.28-.07-.44-.07-.27,0-.49.05-.66.16-.17.11-.3.28-.38.51-.08.23-.12.53-.12.89v.17c0,.38.04.68.13.91.09.23.22.4.39.5.17.1.38.15.63.15"/>
      <path d="M39.57,48.42c-.44,0-.81-.08-1.12-.25-.3-.16-.53-.41-.69-.75-.16-.34-.24-.77-.24-1.29s.08-.96.24-1.29c.16-.33.39-.58.69-.75.3-.17.67-.25,1.12-.25s.82.08,1.12.25c.3.16.53.41.68.75.16.34.23.77.23,1.29s-.08.95-.23,1.29c-.16.34-.38.59-.68.75-.3.17-.67.25-1.12.25M39.57,47.81c.28,0,.52-.06.71-.17.19-.11.33-.28.43-.52.1-.23.15-.53.15-.89v-.18c0-.37-.05-.66-.15-.9-.09-.23-.24-.4-.43-.51-.19-.11-.42-.17-.71-.17s-.52.06-.71.17c-.19.11-.33.28-.43.51-.09.23-.14.53-.14.9v.18c0,.36.05.66.14.89.09.24.24.41.43.52.19.11.43.17.71.17"/>
      <path d="M44.04,48.42c-.3,0-.56-.03-.79-.09-.22-.06-.42-.15-.56-.26-.15-.12-.26-.26-.34-.42-.08-.16-.12-.34-.12-.55v-.08s0-.04,0-.06h.72s0,.04,0,.06v.05c0,.19.05.35.15.46.1.11.23.19.4.23.17.04.36.07.57.07.18,0,.35-.02.51-.07.16-.05.28-.12.37-.22.09-.1.14-.22.14-.37,0-.18-.06-.32-.18-.42-.12-.1-.28-.17-.47-.23-.19-.06-.4-.11-.61-.18-.18-.05-.35-.1-.53-.17-.18-.06-.34-.14-.48-.22-.14-.09-.25-.2-.34-.34-.09-.14-.13-.32-.13-.54,0-.19.04-.37.12-.51.08-.15.2-.28.35-.38.15-.1.33-.18.54-.24.21-.05.45-.08.71-.08.28,0,.52.03.73.09.21.06.38.15.52.26.14.11.24.24.31.38.07.14.1.29.1.45v.09s0,.05,0,.07h-.71v-.09c0-.11-.03-.22-.09-.32-.06-.1-.16-.19-.3-.25-.14-.06-.34-.1-.59-.1-.16,0-.3.01-.42.04s-.21.06-.29.12c-.08.05-.14.11-.18.18-.04.07-.06.15-.06.24,0,.14.05.25.14.33.09.08.22.14.38.19.16.05.33.11.51.17.19.05.39.11.59.17.2.06.39.13.56.22.17.09.3.21.41.36.1.15.15.35.15.6,0,.23-.04.43-.13.61-.09.17-.21.31-.38.42-.16.11-.35.19-.57.24-.22.05-.46.08-.72.08"/>
      <path d="M49.5,48.42c-.23,0-.4-.04-.53-.13-.13-.09-.22-.2-.27-.34-.06-.14-.08-.29-.08-.45v-2.93h-.56v-.61h.58l.13-1.22h.58v1.22h.82v.61h-.82v2.82c0,.14.02.24.07.31.05.07.14.1.28.1h.46v.48c-.06.03-.12.05-.2.07-.08.02-.16.03-.24.04-.08.01-.16.02-.23.02"/>
      <path d="M52.69,48.42c-.43,0-.8-.08-1.09-.25-.3-.16-.52-.41-.67-.75-.15-.34-.23-.77-.23-1.29s.08-.96.23-1.29c.15-.34.38-.59.68-.75.3-.16.67-.24,1.12-.24.41,0,.75.08,1.03.24.28.16.48.39.63.7.14.31.21.71.21,1.18v.35h-3.14c.01.35.06.63.15.86.09.23.23.39.41.49.18.1.41.15.69.15.19,0,.35-.02.49-.07.14-.05.26-.11.36-.2.09-.09.17-.19.22-.31.05-.12.08-.26.08-.4h.71c0,.23-.05.45-.13.64-.08.2-.21.37-.37.5-.16.14-.36.25-.59.32-.23.08-.5.12-.8.12M51.47,45.77h2.37c0-.24-.03-.45-.08-.61-.06-.17-.13-.3-.24-.41-.1-.1-.22-.18-.36-.23-.14-.05-.29-.07-.46-.07-.25,0-.47.05-.65.14-.18.1-.31.24-.41.43-.09.19-.15.44-.17.75"/>
      <polygon points="55.02 48.32 56.59 46.09 55.09 43.96 55.97 43.96 57.03 45.52 57.07 45.52 58.14 43.96 58.97 43.96 57.47 46.06 59.05 48.32 58.18 48.32 57.03 46.64 56.99 46.64 55.85 48.32 55.02 48.32"/>
      <path d="M60.75,48.42c-.23,0-.4-.04-.53-.13-.13-.09-.22-.2-.27-.34-.06-.14-.08-.29-.08-.45v-2.93h-.56v-.61h.58l.13-1.22h.58v1.22h.82v.61h-.82v2.82c0,.14.02.24.07.31.05.07.14.1.28.1h.46v.48c-.06.03-.12.05-.2.07-.08.02-.16.03-.24.04-.08.01-.16.02-.23.02"/>
      <path d="M62.2,42.32h.73v.81h-.73v-.81ZM62.2,43.96h.73v4.37h-.73v-4.37Z"/>
      <rect x="64.06" y="42.32" width=".73" height="6"/>
      <path d="M67.68,48.42c-.43,0-.8-.08-1.09-.25-.3-.16-.52-.41-.67-.75-.15-.34-.23-.77-.23-1.29s.08-.96.23-1.29c.15-.34.38-.59.68-.75.3-.16.67-.24,1.12-.24.41,0,.75.08,1.03.24.28.16.48.39.63.7.14.31.21.71.21,1.18v.35h-3.14c.01.35.06.63.15.86.09.23.23.39.41.49.18.1.41.15.69.15.19,0,.35-.02.49-.07.14-.05.26-.11.36-.2.09-.09.17-.19.22-.31.05-.12.08-.26.08-.4h.71c0,.23-.05.45-.13.64-.08.2-.21.37-.37.5-.16.14-.36.25-.59.32-.23.08-.5.12-.8.12M66.46,45.77h2.37c0-.24-.03-.45-.08-.61-.06-.17-.13-.3-.24-.41-.1-.1-.22-.18-.36-.23-.14-.05-.29-.07-.46-.07-.25,0-.47.05-.65.14-.18.1-.31.24-.41.43-.09.19-.15.44-.17.75"/>
      <path d="M72.01,48.42c-.3,0-.56-.03-.79-.09s-.42-.15-.56-.26c-.15-.12-.26-.26-.34-.42-.08-.16-.12-.34-.12-.55v-.08s0-.04,0-.06h.72s0,.04,0,.06v.05c0,.19.06.35.15.46.1.11.23.19.4.23.17.04.36.07.57.07.18,0,.35-.02.51-.07.16-.05.28-.12.37-.22.09-.1.14-.22.14-.37,0-.18-.06-.32-.18-.42-.12-.1-.28-.17-.47-.23-.19-.06-.4-.11-.61-.18-.18-.05-.35-.1-.53-.17-.18-.06-.34-.14-.48-.22-.14-.09-.25-.2-.34-.34-.09-.14-.13-.32-.13-.54,0-.19.04-.37.12-.51.08-.15.2-.28.34-.38.15-.1.33-.18.55-.24.21-.05.45-.08.71-.08.28,0,.52.03.73.09.21.06.38.15.52.26.14.11.24.24.31.38.07.14.1.29.1.45v.09s0,.05,0,.07h-.71v-.09c0-.11-.03-.22-.09-.32-.06-.1-.16-.19-.3-.25-.14-.06-.34-.1-.59-.1-.16,0-.3.01-.42.04s-.21.06-.29.12c-.08.05-.13.11-.17.18-.04.07-.06.15-.06.24,0,.14.05.25.14.33.09.08.22.14.38.19.16.05.33.11.51.17.19.05.39.11.59.17.2.06.39.13.56.22.17.09.3.21.41.36.1.15.15.35.15.6,0,.23-.04.43-.13.61-.09.17-.22.31-.38.42-.16.11-.35.19-.57.24s-.46.08-.72.08"/>
      <path d="M76.82,49.83c-.13,0-.25,0-.35-.03-.1-.02-.16-.03-.2-.04v-.53h.37c.13,0,.26-.03.39-.08.13-.06.25-.15.36-.28.11-.13.2-.32.28-.55l-1.69-4.37h.76l.87,2.25c.04.11.09.23.14.39.05.15.1.31.16.47.05.16.09.3.13.42h.05c.02-.09.05-.19.08-.3.03-.11.07-.22.1-.34.04-.12.07-.23.11-.34.04-.11.07-.2.09-.29l.74-2.26h.74l-1.48,4.24c-.08.24-.17.46-.27.66-.1.2-.21.37-.33.52-.12.14-.27.26-.44.34-.17.08-.37.12-.61.12"/>
      <path d="M83.47,48.42c-.16,0-.32-.02-.48-.06-.16-.04-.31-.1-.45-.19-.14-.09-.25-.21-.33-.37-.08-.16-.13-.36-.13-.59,0-.3.07-.55.22-.74.14-.19.34-.34.6-.45.26-.11.56-.18.92-.22.35-.04.74-.06,1.15-.06v-.5c0-.16-.03-.3-.08-.42-.06-.12-.15-.21-.29-.27-.14-.06-.34-.1-.6-.1s-.45.03-.59.1c-.15.06-.25.15-.31.25-.06.1-.09.21-.09.33v.13h-.7s0-.06,0-.08v-.1c0-.27.07-.49.22-.67.15-.18.35-.32.62-.41.27-.09.57-.14.91-.14.37,0,.67.05.92.16.24.1.43.25.56.45.12.19.19.43.19.7v2.37c0,.11.02.18.08.22.05.04.11.06.18.06h.32v.48c-.08.03-.16.06-.26.09-.1.02-.2.04-.32.04-.14,0-.26-.03-.36-.09-.09-.06-.17-.14-.21-.24-.05-.1-.08-.22-.1-.34h-.06c-.1.14-.22.26-.38.36-.15.1-.32.18-.51.24-.19.06-.39.08-.61.08M83.65,47.81c.18,0,.35-.03.5-.08.16-.05.3-.13.42-.24.12-.1.22-.22.29-.37.07-.14.11-.3.11-.47v-.36c-.45,0-.83.02-1.15.07-.31.05-.56.14-.73.27-.17.13-.25.31-.25.54,0,.15.03.27.1.37.07.09.16.16.28.21.12.05.26.07.42.07"/>
      <path d="M88.38,48.42c-.36,0-.67-.08-.93-.24-.26-.16-.46-.41-.6-.75-.14-.34-.21-.78-.21-1.32,0-.51.07-.94.22-1.27.14-.33.34-.58.6-.74.25-.16.55-.24.89-.24.19,0,.37.02.54.07.17.04.31.11.44.21.13.09.24.22.35.37h.05v-2.18h.73v6h-.59l-.07-.62h-.06c-.15.24-.34.42-.58.54-.24.12-.5.18-.78.18M88.55,47.78c.28,0,.5-.06.67-.18.17-.12.3-.3.38-.53.08-.23.12-.52.12-.86v-.13c0-.3-.03-.55-.09-.75-.06-.2-.14-.37-.25-.49-.11-.12-.23-.21-.37-.26-.14-.05-.28-.07-.44-.07-.27,0-.49.05-.66.16-.17.11-.3.28-.38.51-.08.23-.12.53-.12.89v.17c0,.38.04.68.13.91.09.23.22.4.39.5.17.1.38.15.63.15"/>
      <path d="M91.6,48.32v-6h.73v2.18h.06c.11-.15.23-.27.37-.36.14-.1.29-.17.46-.21.17-.05.35-.07.55-.07.28,0,.52.05.73.14.21.09.37.24.49.46.12.21.18.5.18.86v3.01h-.73v-2.92c0-.18-.02-.33-.07-.45-.05-.12-.11-.21-.19-.27-.08-.07-.18-.11-.29-.14-.11-.03-.24-.04-.38-.04-.2,0-.4.05-.58.15-.18.1-.33.24-.44.42-.11.18-.16.41-.16.68v2.57h-.73Z"/>
      <path d="M98.02,48.42c-.43,0-.8-.08-1.09-.25-.3-.16-.52-.41-.67-.75-.15-.34-.23-.77-.23-1.29s.08-.96.23-1.29c.15-.34.38-.59.68-.75.3-.16.67-.24,1.12-.24.41,0,.75.08,1.03.24.28.16.48.39.63.7.14.31.21.71.21,1.18v.35h-3.14c.01.35.06.63.15.86.09.23.23.39.41.49.18.1.41.15.69.15.19,0,.35-.02.49-.07.14-.05.26-.11.36-.2.09-.09.17-.19.22-.31.05-.12.08-.26.08-.4h.71c0,.23-.05.45-.13.64-.08.2-.21.37-.37.5-.16.14-.36.25-.59.32-.23.08-.5.12-.8.12M96.8,45.77h2.37c0-.24-.03-.45-.08-.61-.06-.17-.13-.3-.24-.41-.1-.1-.22-.18-.36-.23-.14-.05-.29-.07-.46-.07-.25,0-.47.05-.65.14-.18.1-.31.24-.41.43-.09.19-.15.44-.17.75"/>
      <path d="M102.35,48.42c-.3,0-.56-.03-.79-.09-.22-.06-.42-.15-.56-.26-.15-.12-.26-.26-.34-.42-.08-.16-.12-.34-.12-.55v-.08s0-.04,0-.06h.72s0,.04,0,.06v.05c0,.19.05.35.15.46.1.11.23.19.4.23.17.04.36.07.57.07.18,0,.35-.02.51-.07.16-.05.28-.12.37-.22.09-.1.14-.22.14-.37,0-.18-.06-.32-.18-.42-.12-.1-.28-.17-.47-.23-.19-.06-.4-.11-.61-.18-.18-.05-.35-.1-.53-.17-.18-.06-.34-.14-.48-.22-.14-.09-.25-.2-.34-.34-.09-.14-.13-.32-.13-.54,0-.19.04-.37.12-.51.08-.15.2-.28.35-.38.15-.1.33-.18.54-.24.21-.05.45-.08.71-.08.28,0,.52.03.73.09.21.06.38.15.52.26.14.11.24.24.31.38.07.14.1.29.1.45v.09s0,.05,0,.07h-.71v-.09c0-.11-.03-.22-.09-.32-.06-.1-.16-.19-.3-.25-.14-.06-.34-.1-.59-.1-.16,0-.3.01-.42.04s-.21.06-.29.12c-.08.05-.14.11-.18.18-.04.07-.06.15-.06.24,0,.14.05.25.14.33.09.08.22.14.38.19.16.05.33.11.51.17.19.05.39.11.59.17.2.06.39.13.56.22.17.09.3.21.41.36.1.15.15.35.15.6,0,.23-.04.43-.13.61-.09.17-.21.31-.38.42-.16.11-.35.19-.57.24-.22.05-.46.08-.72.08"/>
      <path d="M105.06,42.32h.73v.81h-.73v-.81ZM105.06,43.96h.73v4.37h-.73v-4.37Z"/>
      <path d="M108.08,48.32l-1.62-4.37h.76l.8,2.18c.04.1.08.24.13.39.05.16.1.32.15.48.05.16.1.31.13.44h.04c.04-.12.08-.26.13-.43.05-.16.1-.32.15-.48.05-.16.1-.29.14-.4l.79-2.18h.74l-1.62,4.37h-.73Z"/>
      <path d="M112.86,48.42c-.44,0-.81-.08-1.12-.25-.3-.16-.53-.41-.69-.75-.16-.34-.24-.77-.24-1.29s.08-.96.24-1.29c.16-.33.39-.58.69-.75.3-.17.67-.25,1.12-.25s.82.08,1.12.25c.3.16.53.41.68.75.16.34.23.77.23,1.29s-.08.95-.23,1.29c-.16.34-.38.59-.68.75-.3.17-.67.25-1.12.25M112.86,47.81c.28,0,.52-.06.71-.17.19-.11.33-.28.43-.52.1-.23.15-.53.15-.89v-.18c0-.37-.05-.66-.15-.9-.09-.23-.24-.4-.43-.51-.19-.11-.42-.17-.71-.17s-.52.06-.71.17c-.19.11-.33.28-.43.51-.09.23-.14.53-.14.9v.18c0,.36.05.66.14.89.09.24.24.41.43.52.19.11.43.17.71.17"/>
      <path d="M117.33,48.42c-.3,0-.56-.03-.79-.09-.22-.06-.42-.15-.56-.26-.15-.12-.26-.26-.34-.42-.08-.16-.12-.34-.12-.55v-.08s0-.04,0-.06h.72s0,.04,0,.06v.05c0,.19.05.35.15.46.1.11.23.19.4.23.17.04.36.07.57.07.18,0,.35-.02.51-.07.16-.05.28-.12.37-.22.09-.1.14-.22.14-.37,0-.18-.06-.32-.18-.42-.12-.1-.28-.17-.47-.23-.19-.06-.4-.11-.61-.18-.18-.05-.35-.1-.53-.17-.18-.06-.34-.14-.48-.22-.14-.09-.25-.2-.34-.34-.09-.14-.13-.32-.13-.54,0-.19.04-.37.12-.51.08-.15.2-.28.35-.38.15-.1.33-.18.54-.24.21-.05.45-.08.71-.08.28,0,.52.03.73.09.21.06.38.15.52.26.14.11.24.24.31.38.07.14.1.29.1.45v.09s0,.05,0,.07h-.71v-.09c0-.11-.03-.22-.09-.32-.06-.1-.16-.19-.3-.25-.14-.06-.34-.1-.59-.1-.16,0-.3.01-.42.04s-.21.06-.29.12c-.08.05-.14.11-.18.18-.04.07-.06.15-.06.24,0,.14.05.25.14.33.09.08.22.14.38.19.16.05.33.11.51.17.19.05.39.11.59.17.2.06.39.13.56.22.17.09.3.21.41.36.1.15.15.35.15.6,0,.23-.04.43-.13.61-.09.17-.21.31-.38.42-.16.11-.35.19-.57.24-.22.05-.46.08-.72.08"/>
      <path d="M124.22,48.42c-.48,0-.9-.08-1.25-.23-.35-.15-.62-.4-.8-.73-.18-.34-.28-.77-.28-1.29v-3.54h.79v3.62c0,.5.13.87.4,1.12.27.25.65.37,1.13.37s.88-.13,1.15-.37c.28-.25.42-.62.42-1.12v-3.62h.78v3.54c0,.53-.09.96-.28,1.29-.19.33-.46.58-.81.73-.35.16-.77.23-1.26.23"/>
      <path d="M129.47,48.32l-2.13-5.7h.86l1.46,4.03c.03.08.06.17.1.26.03.1.06.2.1.29.03.09.06.18.09.25h.05c.02-.07.05-.15.08-.24.03-.09.06-.19.1-.28.03-.1.07-.19.1-.28l1.45-4.03h.83l-2.13,5.7h-.95Z"/>
      <path d="M9.37.15c1.13,0,2.2.21,3.22.63,1.01.42,1.9,1,2.65,1.71.75.72,1.35,1.57,1.79,2.54.43.98.65,2.02.65,3.13v16.55c0,1.09-.22,2.11-.65,3.06-.44.96-1.03,1.79-1.79,2.51-.75.72-1.64,1.29-2.65,1.71-1.02.42-2.09.63-3.22.63H1.42V.15h7.95ZM13.22,7.78c0-.46-.09-.89-.27-1.3-.18-.41-.42-.77-.73-1.07-.31-.3-.67-.54-1.08-.72-.41-.17-.86-.26-1.33-.26h-3.94v24.02h3.94c.47,0,.92-.09,1.33-.26.42-.17.77-.41,1.08-.7.31-.29.55-.64.73-1.04.18-.4.27-.82.27-1.26V7.78Z"/>
      <polygon points="35.82 4.36 29.85 4.36 29.85 32.65 25.29 32.65 25.29 4.36 19.1 4.36 19.1 .15 35.82 .15 35.82 4.36"/>
      <polygon points="42.51 4.36 42.51 14.2 50.53 14.2 50.53 18.4 42.51 18.4 42.51 32.65 38.06 32.65 38.06 .15 51.62 .15 51.62 4.36 42.51 4.36"/>
      <path d="M77.37,16.22l-2.11-6.83s-.04-.07-.09-.07h-1.6c-.06,0-.09.03-.09.09v6.76c0,.15-.08.23-.23.23h-1.74c-.15,0-.23-.07-.23-.23V.59c0-.15.08-.23.23-.23h4.1c.78,0,1.47.19,2.06.57.6.38,1.06.92,1.39,1.62.33.69.49,1.48.49,2.37,0,.96-.2,1.8-.59,2.51-.4.71-.94,1.23-1.63,1.55-.05.05-.06.09-.05.14l2.33,7.03.03.09c0,.11-.07.16-.21.16h-1.79c-.14,0-.23-.06-.28-.18M73.48,2.36v5.13c0,.06.03.09.09.09h1.69c.63,0,1.13-.24,1.51-.72.38-.48.57-1.12.57-1.91s-.19-1.48-.57-1.96c-.38-.48-.88-.72-1.51-.72h-1.69c-.06,0-.09.03-.09.09"/>
      <path d="M83.22,15.15c-.76-.83-1.13-1.93-1.13-3.29V.41c0-.15.08-.23.23-.23h1.74c.15,0,.23.08.23.23v11.68c0,.72.18,1.3.54,1.74.36.44.83.66,1.41.66s1.07-.22,1.43-.66c.36-.44.54-1.02.54-1.74V.41c0-.15.08-.23.23-.23h1.74c.15,0,.23.08.23.23v11.45c0,1.36-.38,2.46-1.14,3.29-.76.83-1.77,1.25-3.02,1.25s-2.26-.42-3.01-1.25"/>
      <path d="M93.97,15.3c-.76-.73-1.13-1.7-1.13-2.91V4.01c0-1.21.38-2.18,1.13-2.91.76-.73,1.75-1.1,2.99-1.1s2.24.37,3,1.1c.76.73,1.15,1.71,1.15,2.93v.96c0,.15-.08.23-.23.23h-1.74c-.15,0-.23-.07-.23-.23v-1.01c0-.63-.18-1.13-.54-1.51-.36-.38-.83-.57-1.41-.57s-1.05.19-1.41.57c-.36.38-.54.88-.54,1.51v8.43c0,.63.18,1.13.54,1.51.36.38.83.57,1.41.57s1.05-.19,1.41-.57c.36-.38.54-.89.54-1.51v-2.52c0-.06-.03-.09-.09-.09h-1.74c-.15,0-.23-.08-.23-.23v-1.42c0-.15.08-.23.23-.23h3.8c.15,0,.23.08.23.23v4.24c0,1.21-.38,2.18-1.15,2.91-.76.73-1.76,1.1-3,1.1s-2.23-.37-2.99-1.1"/>
      <path d="M104.57,15.15c-.76-.83-1.13-1.93-1.13-3.29V.41c0-.15.08-.23.23-.23h1.74c.15,0,.23.08.23.23v11.68c0,.72.18,1.3.54,1.74.36.44.83.66,1.41.66s1.07-.22,1.43-.66c.36-.44.54-1.02.54-1.74V.41c0-.15.08-.23.23-.23h1.74c.15,0,.23.08.23.23v11.45c0,1.36-.38,2.46-1.14,3.29-.76.83-1.77,1.25-3.02,1.25s-2.26-.42-3.01-1.25"/>
      <path d="M120.62,16.19l-.5-2.63s-.01-.05-.04-.07c-.02-.02-.05-.02-.08-.02h-3.73s-.06,0-.08.02c-.02.01-.03.04-.03.07l-.48,2.63c-.01.14-.1.21-.25.21h-1.74c-.08,0-.13-.02-.17-.07-.04-.05-.05-.11-.03-.18l3.41-15.57c.03-.14.11-.21.25-.21h2.04c.15,0,.24.07.25.21l3.44,15.57v.05c0,.14-.07.21-.21.21h-1.79c-.14,0-.22-.07-.25-.21M116.61,11.73h3.05s.07-.03.07-.09l-1.56-8.13s-.03-.04-.04-.04c-.02,0-.03.01-.05.04l-1.53,8.13c0,.06.02.09.07.09"/>
      <path d="M125.72,16.17v-6.55l-.02-.11-3.18-8.86-.02-.09c0-.11.07-.16.21-.16h1.83c.14,0,.23.06.27.19l1.95,6.32s.04.04.07.04.05-.01.07-.04l1.95-6.32c.05-.12.14-.19.27-.19h1.83c.17,0,.23.08.18.25l-3.18,8.86-.02.11v6.55c0,.15-.08.23-.23.23h-1.74c-.15,0-.23-.07-.23-.23"/>
      <path d="M60.56,15.15c-.76-.83-1.13-1.93-1.13-3.29V.41c0-.15.08-.23.23-.23h1.74c.15,0,.23.08.23.23v11.68c0,.72.18,1.3.54,1.74.36.44.83.66,1.41.66s1.07-.22,1.43-.66c.36-.44.54-1.02.54-1.74V.41c0-.15.08-.23.23-.23h1.74c.15,0,.23.08.23.23v11.45c0,1.36-.38,2.46-1.14,3.29-.76.83-1.77,1.25-3.02,1.25s-2.26-.42-3.01-1.25"/>
      <rect class="cls-4" x="59.43" y="21.81" width="12.8" height="11.88"/>
      <rect class="cls-1" x="74.15" y="21.81" width="12.8" height="11.88"/>
      <rect class="cls-2" x="88.88" y="21.81" width="12.8" height="11.88"/>
      <rect class="cls-3" x="103.61" y="21.81" width="12.8" height="11.88"/>
      <rect x="118.34" y="21.81" width="12.8" height="11.88"/>
    </g>
  </g>
</svg>