<?xml version="1.0" encoding="UTF-8"?>
<svg id="Capa_2" data-name="Capa 2" xmlns="http://www.w3.org/2000/svg" viewBox="0 0 124.71 52.82">
  <defs>
    <style>
      .cls-1 {
        fill: #eb008b;
      }

      .cls-2 {
        fill: #ffef20;
      }

      .cls-3 {
        fill: #00adee;
      }
    </style>
  </defs>
  <g id="Capa_1-2" data-name="Capa 1">
    <g>
      <rect x="5.12" y="45.86" width=".76" height="5.5"/>
      <path d="M7.12,51.36v-4.22h.57l.06.63h.05c.11-.17.23-.31.36-.42.13-.11.28-.18.44-.24.16-.05.33-.08.52-.08.27,0,.51.05.71.16.2.11.35.3.44.56h.05c.1-.17.22-.31.35-.41.13-.1.28-.18.45-.24.17-.05.34-.08.53-.08.26,0,.48.04.67.13.19.09.34.23.45.43.11.2.17.47.17.8v2.94h-.71v-2.83c0-.17-.02-.31-.06-.42-.04-.11-.1-.2-.17-.26-.08-.06-.16-.1-.26-.13-.1-.03-.21-.04-.32-.04-.19,0-.36.05-.52.14-.16.1-.28.24-.38.42-.1.18-.15.4-.15.65v2.48h-.7v-2.83c0-.17-.02-.31-.06-.42-.04-.11-.1-.2-.17-.26-.07-.06-.15-.1-.25-.13-.1-.03-.2-.04-.31-.04-.19,0-.37.05-.53.14-.16.1-.29.24-.39.42-.1.18-.14.4-.14.65v2.48h-.71Z"/>
      <path d="M14.01,52.75v-5.6h.56l.07.6h.05c.15-.23.33-.41.55-.52.22-.11.48-.17.76-.17.35,0,.65.08.9.23.25.15.44.4.57.73.13.33.2.75.2,1.28,0,.49-.07.9-.2,1.22-.14.32-.33.56-.57.72-.25.16-.53.23-.86.23-.18,0-.35-.02-.51-.06-.16-.04-.31-.11-.43-.2-.13-.09-.24-.21-.34-.36h-.05v1.92h-.71ZM15.82,50.84c.26,0,.47-.05.64-.16.17-.1.29-.27.37-.49.08-.22.12-.51.12-.85v-.17c0-.37-.04-.66-.13-.89-.09-.22-.21-.38-.37-.48-.16-.1-.36-.14-.6-.14-.26,0-.48.06-.65.17-.17.12-.29.29-.37.52-.08.23-.12.51-.12.84v.12c0,.29.03.54.08.73.06.2.14.35.24.47.1.12.22.2.36.25.13.05.27.07.42.07"/>
      <path d="M18.56,51.36v-4.22h.57l.06.7h.05c.04-.13.1-.26.18-.38.08-.12.18-.22.31-.3.13-.08.29-.12.47-.12.08,0,.15,0,.22.02.07.01.12.03.15.04v.65h-.26c-.18,0-.34.03-.47.09-.13.06-.24.15-.32.26-.08.11-.15.25-.19.4-.04.16-.06.32-.06.5v2.35h-.71Z"/>
      <path d="M22.82,51.46c-.42,0-.77-.08-1.05-.24-.29-.16-.5-.4-.65-.73-.15-.32-.22-.74-.22-1.24s.07-.92.22-1.25c.15-.32.37-.57.65-.72.29-.16.65-.24,1.08-.24.39,0,.73.08.99.23.27.15.47.38.6.68.14.3.2.68.2,1.13v.34h-3.03c.01.34.06.61.15.83.09.22.22.37.4.47.18.1.4.15.67.15.18,0,.34-.02.48-.07.14-.04.25-.11.35-.2.09-.09.16-.19.21-.31.05-.12.07-.25.08-.38h.69c0,.22-.05.43-.13.62-.08.19-.2.35-.35.49-.15.13-.35.24-.57.31-.22.07-.48.11-.77.11M21.64,48.9h2.28c0-.24-.03-.43-.08-.59-.05-.16-.13-.29-.23-.39-.1-.1-.21-.17-.35-.22s-.28-.07-.45-.07c-.25,0-.45.05-.63.14-.17.09-.3.23-.39.42-.09.19-.15.43-.17.72"/>
      <path d="M27.01,51.46c-.29,0-.54-.03-.76-.09-.22-.06-.4-.15-.54-.26-.15-.11-.25-.25-.33-.4-.07-.15-.11-.33-.11-.53v-.08s0-.04,0-.06h.7s0,.04,0,.06v.05c0,.19.05.33.15.44.09.11.22.18.39.22.17.04.35.06.55.06.18,0,.34-.02.49-.07.15-.05.27-.12.36-.21.09-.09.13-.21.13-.36,0-.18-.06-.31-.17-.4-.12-.09-.27-.17-.45-.22-.19-.05-.38-.11-.59-.17-.17-.05-.34-.1-.51-.16-.17-.06-.33-.13-.46-.22-.14-.09-.25-.2-.33-.33-.08-.14-.12-.31-.12-.52,0-.19.04-.35.12-.5.08-.14.19-.27.33-.37.15-.1.32-.18.53-.23.21-.05.43-.08.68-.08.27,0,.5.03.7.09.2.06.37.14.5.25.13.11.23.23.3.36.07.14.1.28.1.44v.09s0,.05,0,.07h-.69v-.09c0-.11-.03-.21-.08-.31-.06-.1-.15-.18-.29-.24-.14-.06-.32-.09-.57-.09-.16,0-.29.01-.4.04s-.21.06-.28.11c-.07.05-.13.11-.17.18-.04.07-.06.14-.06.23,0,.14.05.25.14.32.09.07.21.14.36.19.15.05.32.1.49.16.19.05.38.11.57.17.2.05.37.13.54.21.16.09.29.2.39.35.1.15.15.34.15.58,0,.22-.04.42-.13.58-.09.17-.21.3-.37.41-.16.11-.34.19-.55.24s-.44.08-.69.08"/>
      <path d="M29.62,45.57h.71v.79h-.71v-.79ZM29.62,47.15h.71v4.22h-.71v-4.22Z"/>
      <path d="M33.15,51.46c-.43,0-.79-.08-1.08-.24-.29-.16-.51-.4-.67-.73s-.23-.74-.23-1.24.08-.92.23-1.25.37-.56.67-.72c.29-.16.65-.24,1.08-.24s.79.08,1.08.24c.29.16.51.4.66.72.15.32.22.74.22,1.25s-.07.92-.22,1.24c-.15.33-.37.57-.66.73-.29.16-.65.24-1.08.24M33.15,50.87c.27,0,.5-.05.68-.16.18-.11.32-.27.41-.5.1-.23.14-.51.14-.86v-.18c0-.35-.05-.64-.14-.87-.09-.22-.23-.39-.41-.5-.18-.11-.41-.16-.68-.16s-.5.05-.69.16c-.19.11-.32.27-.41.5-.09.22-.13.51-.13.87v.18c0,.35.04.63.13.86.09.23.23.4.41.5.18.11.41.16.69.16M32.74,46.63l.69-1.06h.8v.02s-.88,1.04-.88,1.04h-.61Z"/>
      <path d="M35.99,51.36v-4.22h.57l.07.63h.05c.11-.17.24-.31.38-.42.14-.11.3-.18.47-.24.17-.05.36-.08.56-.08.27,0,.5.04.7.14.2.09.36.24.47.44.12.2.17.48.17.83v2.91h-.71v-2.81c0-.18-.02-.32-.07-.43s-.11-.2-.18-.26c-.08-.06-.17-.11-.28-.14-.11-.03-.23-.04-.37-.04-.2,0-.39.05-.56.14-.18.1-.32.24-.42.42-.11.18-.16.4-.16.65v2.48h-.7Z"/>
      <path d="M43.62,51.46c-.35,0-.65-.08-.9-.23-.25-.15-.44-.4-.58-.72-.14-.33-.2-.76-.2-1.28,0-.5.07-.91.21-1.23.14-.32.33-.56.58-.71.25-.16.53-.23.86-.23.19,0,.36.02.52.06.16.04.3.11.43.2.12.09.24.21.33.36h.05v-2.11h.71v5.8h-.57l-.06-.6h-.06c-.14.24-.33.41-.56.53-.23.12-.48.17-.75.17M43.78,50.84c.27,0,.48-.06.65-.18.16-.12.29-.29.36-.51.08-.22.12-.5.12-.84v-.13c0-.29-.03-.53-.09-.73-.06-.2-.14-.36-.24-.47-.1-.12-.22-.2-.35-.25-.13-.05-.27-.07-.42-.07-.26,0-.47.05-.64.16-.17.1-.29.27-.37.49-.08.22-.12.51-.12.86v.17c0,.36.04.66.13.88.08.22.21.38.37.48.16.1.36.15.6.15"/>
      <path d="M46.73,45.57h.71v.79h-.71v-.79ZM46.73,47.15h.71v4.22h-.71v-4.22Z"/>
      <path d="M49.24,52.82c-.2,0-.39-.04-.56-.12-.17-.08-.31-.2-.41-.36-.1-.15-.15-.34-.15-.55,0-.24.06-.43.2-.59.13-.15.29-.27.47-.34-.13-.06-.24-.15-.31-.27-.08-.11-.11-.24-.11-.38,0-.19.07-.34.2-.47.14-.13.3-.21.5-.26-.18-.12-.32-.27-.43-.45-.1-.19-.16-.39-.16-.61,0-.27.06-.5.19-.71.12-.2.32-.36.58-.48.26-.12.58-.18.95-.18.17,0,.33.01.48.04.15.02.28.06.4.12.19-.08.33-.2.42-.33.09-.13.15-.27.17-.41h.7c0,.16-.04.31-.11.45-.07.14-.17.26-.29.35-.12.09-.27.16-.45.19.13.13.23.27.3.43.07.16.1.33.1.52,0,.27-.06.5-.19.71-.13.21-.31.37-.57.49-.25.12-.57.18-.95.18h-.66c-.15,0-.26.03-.35.08-.09.06-.13.15-.13.27,0,.11.05.19.13.26.09.07.21.1.35.1h1.72c.31,0,.56.1.76.31.2.21.3.47.3.79,0,.23-.06.44-.17.62-.12.19-.27.33-.48.44-.21.11-.44.17-.72.17h-1.72ZM49.44,52.29h1.52c.12,0,.23-.03.34-.08.1-.05.18-.12.24-.21.06-.09.09-.19.09-.3,0-.18-.05-.33-.16-.43-.11-.11-.24-.16-.4-.16h-1.62c-.17,0-.31.06-.43.17-.12.12-.18.26-.18.42,0,.18.06.32.18.42.12.11.26.16.43.16M50.2,49.26c.34,0,.6-.07.76-.22.17-.15.25-.36.25-.62s-.08-.46-.25-.61c-.17-.15-.42-.22-.76-.22s-.6.08-.77.22c-.17.15-.25.35-.25.61,0,.17.04.31.11.44.07.13.19.23.34.3.15.07.34.1.57.1"/>
      <path d="M52.99,45.57h.71v.79h-.71v-.79ZM52.99,47.15h.71v4.22h-.71v-4.22Z"/>
      <path d="M55.78,51.46c-.22,0-.39-.04-.51-.12-.12-.08-.21-.19-.26-.33s-.08-.28-.08-.44v-2.83h-.54v-.59h.56l.13-1.18h.56v1.18h.79v.59h-.79v2.73c0,.13.02.23.07.3.05.07.14.1.27.1h.45v.47c-.05.03-.12.05-.19.06-.08.02-.15.03-.23.04-.08.01-.15.02-.22.02"/>
      <path d="M58.23,51.46c-.16,0-.31-.02-.47-.06-.16-.04-.3-.1-.43-.18-.13-.09-.24-.2-.32-.36-.08-.15-.12-.34-.12-.57,0-.29.07-.53.21-.71.14-.19.33-.33.58-.44s.54-.18.88-.22c.34-.04.71-.06,1.11-.06v-.48c0-.16-.03-.29-.08-.4s-.15-.2-.28-.26c-.14-.06-.33-.09-.58-.09s-.43.03-.57.09c-.14.06-.24.14-.3.24-.05.09-.08.2-.08.32v.12h-.68s0-.05,0-.08v-.09c0-.26.07-.47.21-.65.14-.17.34-.3.6-.39.26-.09.55-.13.88-.13.35,0,.65.05.89.15.24.1.42.25.54.43.12.19.18.41.18.67v2.28c0,.1.02.17.07.21.05.04.1.06.18.06h.31v.47c-.08.03-.16.06-.25.08-.09.02-.2.03-.31.03-.14,0-.25-.03-.35-.08-.09-.06-.16-.13-.21-.23-.05-.1-.08-.21-.1-.33h-.06c-.1.13-.22.25-.36.35-.15.1-.31.17-.49.23s-.38.08-.59.08M58.4,50.87c.17,0,.33-.03.48-.08.15-.05.29-.13.41-.23.12-.1.21-.22.28-.36.07-.14.1-.29.1-.46v-.35c-.43,0-.8.02-1.11.07-.3.05-.54.13-.7.26-.16.12-.24.3-.24.52,0,.14.03.26.1.35.06.09.16.16.27.21.12.05.25.07.41.07"/>
      <rect x="61.54" y="45.57" width=".71" height="5.8"/>
      <path d="M66.7,51.46c-.42,0-.77-.08-1.06-.24-.29-.16-.5-.4-.65-.73-.15-.32-.22-.74-.22-1.24s.07-.92.22-1.25c.15-.32.37-.57.65-.72.29-.16.65-.24,1.08-.24.4,0,.73.08,1,.23.27.15.47.38.6.68.14.3.2.68.2,1.13v.34h-3.03c.01.34.06.61.15.83.09.22.22.37.4.47.18.1.4.15.67.15.18,0,.34-.02.48-.07.14-.04.25-.11.35-.2.09-.09.16-.19.21-.31.05-.12.08-.25.08-.38h.69c0,.22-.05.43-.13.62-.08.19-.2.35-.35.49-.15.13-.34.24-.57.31-.22.07-.48.11-.77.11M65.52,48.9h2.28c0-.24-.03-.43-.08-.59-.05-.16-.13-.29-.23-.39-.1-.1-.21-.17-.35-.22s-.28-.07-.45-.07c-.25,0-.45.05-.63.14-.17.09-.3.23-.39.42-.09.19-.15.43-.17.72"/>
      <path d="M69.41,51.36v-4.22h.57l.06.63h.05c.11-.17.24-.31.38-.42.14-.11.3-.18.47-.24.17-.05.36-.08.56-.08.27,0,.5.04.7.14.2.09.36.24.47.44.12.2.17.48.17.83v2.91h-.71v-2.81c0-.18-.02-.32-.07-.43-.05-.11-.11-.2-.18-.26-.08-.06-.17-.11-.28-.14-.11-.03-.23-.04-.37-.04-.2,0-.38.05-.56.14-.18.1-.32.24-.42.42s-.16.4-.16.65v2.48h-.71Z"/>
      <path d="M76.31,52.82c-.2,0-.39-.04-.56-.12-.17-.08-.31-.2-.41-.36-.1-.15-.15-.34-.15-.55,0-.24.06-.43.2-.59.13-.15.29-.27.47-.34-.13-.06-.24-.15-.31-.27-.08-.11-.11-.24-.11-.38,0-.19.07-.34.2-.47.14-.13.3-.21.5-.26-.18-.12-.32-.27-.43-.45-.1-.19-.16-.39-.16-.61,0-.27.06-.5.19-.71.12-.2.32-.36.58-.48.26-.12.58-.18.95-.18.17,0,.33.01.48.04.15.02.28.06.4.12.19-.08.33-.2.42-.33.09-.13.15-.27.17-.41h.7c0,.16-.04.31-.11.45-.07.14-.17.26-.29.35-.12.09-.27.16-.45.19.13.13.23.27.3.43.07.16.1.33.1.52,0,.27-.06.5-.19.71-.13.21-.31.37-.57.49-.25.12-.57.18-.95.18h-.66c-.15,0-.26.03-.35.08-.09.06-.13.15-.13.27,0,.11.05.19.13.26.09.07.21.1.35.1h1.72c.31,0,.56.1.76.31.2.21.3.47.3.79,0,.23-.06.44-.17.62-.12.19-.27.33-.48.44-.21.11-.44.17-.72.17h-1.72ZM76.51,52.29h1.52c.12,0,.23-.03.34-.08.1-.05.18-.12.24-.21.06-.09.09-.19.09-.3,0-.18-.05-.33-.16-.43-.11-.11-.24-.16-.4-.16h-1.62c-.17,0-.31.06-.43.17-.12.12-.18.26-.18.42,0,.18.06.32.18.42.12.11.26.16.43.16M77.27,49.26c.34,0,.6-.07.76-.22.17-.15.25-.36.25-.62s-.08-.46-.25-.61c-.17-.15-.42-.22-.76-.22s-.6.08-.77.22c-.17.15-.25.35-.25.61,0,.17.04.31.11.44.07.13.19.23.34.3.15.07.34.1.57.1"/>
      <path d="M80.05,51.36v-4.22h.57l.06.7h.05c.04-.13.1-.26.18-.38.08-.12.18-.22.31-.3.13-.08.28-.12.47-.12.08,0,.15,0,.22.02.07.01.12.03.15.04v.65h-.26c-.18,0-.34.03-.47.09-.13.06-.24.15-.32.26-.08.11-.15.25-.19.4-.04.16-.06.32-.06.5v2.35h-.71Z"/>
      <path d="M83.69,51.46c-.16,0-.31-.02-.47-.06-.16-.04-.3-.1-.43-.18-.13-.09-.24-.2-.32-.36-.08-.15-.12-.34-.12-.57,0-.29.07-.53.21-.71.14-.19.33-.33.58-.44s.54-.18.89-.22c.34-.04.71-.06,1.11-.06v-.48c0-.16-.03-.29-.08-.4s-.15-.2-.28-.26c-.14-.06-.33-.09-.58-.09s-.43.03-.57.09c-.14.06-.24.14-.3.24-.05.09-.08.2-.08.32v.12h-.68s0-.05,0-.08v-.09c0-.26.07-.47.21-.65.14-.17.34-.3.6-.39.26-.09.55-.13.88-.13.35,0,.65.05.89.15.24.1.42.25.54.43.12.19.18.41.18.67v2.28c0,.1.02.17.07.21.05.04.1.06.18.06h.31v.47c-.08.03-.16.06-.25.08-.09.02-.2.03-.31.03-.14,0-.25-.03-.35-.08-.09-.06-.16-.13-.21-.23-.05-.1-.08-.21-.1-.33h-.06c-.1.13-.22.25-.36.35-.15.1-.31.17-.49.23s-.38.08-.59.08M83.87,50.87c.17,0,.33-.03.48-.08.15-.05.29-.13.41-.23.12-.1.21-.22.28-.36.07-.14.1-.29.1-.46v-.35c-.43,0-.8.02-1.11.07-.3.05-.54.13-.7.26-.16.12-.24.3-.24.52,0,.14.03.26.1.35.06.09.16.16.27.21.12.05.25.07.41.07"/>
      <path d="M87,51.36v-4.22h.57l.06.63h.05c.11-.17.24-.31.38-.42.14-.11.3-.18.47-.24.17-.05.36-.08.56-.08.27,0,.5.04.7.14.2.09.36.24.47.44.12.2.17.48.17.83v2.91h-.71v-2.81c0-.18-.02-.32-.07-.43-.05-.11-.11-.2-.18-.26-.08-.06-.17-.11-.28-.14-.11-.03-.23-.04-.37-.04-.2,0-.38.05-.56.14-.18.1-.32.24-.42.42s-.16.4-.16.65v2.48h-.71Z"/>
      <path d="M93.36,51.36v-3.62h-.63v-.59h.63v-.67c0-.17.02-.32.07-.47.05-.15.14-.27.27-.36.13-.09.32-.14.56-.14.07,0,.15,0,.22.01.07,0,.14.02.21.03.07.01.13.03.18.04v.5h-.43c-.13,0-.23.03-.29.1-.06.07-.09.16-.09.28v.67h.81v.59h-.81v3.62h-.7Z"/>
      <path d="M97.13,51.46c-.43,0-.79-.08-1.08-.24-.29-.16-.51-.4-.67-.73-.15-.32-.23-.74-.23-1.24s.08-.92.23-1.25c.15-.32.37-.56.67-.72.29-.16.65-.24,1.08-.24s.79.08,1.08.24c.29.16.51.4.66.72.15.32.22.74.22,1.25s-.08.92-.22,1.24c-.15.33-.37.57-.66.73-.29.16-.65.24-1.08.24M97.13,50.87c.27,0,.5-.05.68-.16.18-.11.32-.27.41-.5.09-.23.14-.51.14-.86v-.18c0-.35-.05-.64-.14-.87-.09-.22-.23-.39-.41-.5-.18-.11-.41-.16-.68-.16s-.5.05-.69.16c-.18.11-.32.27-.41.5-.09.22-.14.51-.14.87v.18c0,.35.05.64.14.86.09.23.23.39.41.5.19.11.41.16.69.16"/>
      <path d="M99.97,51.36v-4.22h.57l.06.7h.05c.04-.13.1-.26.18-.38.08-.12.18-.22.31-.3.13-.08.28-.12.47-.12.08,0,.15,0,.22.02.07.01.12.03.15.04v.65h-.26c-.18,0-.34.03-.47.09-.13.06-.24.15-.32.26-.08.11-.15.25-.19.4-.04.16-.06.32-.06.5v2.35h-.71Z"/>
      <path d="M102.63,51.36v-4.22h.57l.06.63h.05c.11-.17.23-.31.36-.42.13-.11.28-.18.44-.24.16-.05.33-.08.52-.08.27,0,.51.05.71.16.2.11.35.3.44.56h.05c.1-.17.22-.31.35-.41.13-.1.28-.18.45-.24.17-.05.34-.08.53-.08.26,0,.48.04.67.13.19.09.34.23.45.43.11.2.17.47.17.8v2.94h-.71v-2.83c0-.17-.02-.31-.06-.42-.04-.11-.1-.2-.17-.26-.08-.06-.16-.1-.26-.13-.1-.03-.21-.04-.32-.04-.19,0-.36.05-.52.14-.16.1-.28.24-.38.42-.1.18-.15.4-.15.65v2.48h-.7v-2.83c0-.17-.02-.31-.06-.42-.04-.11-.1-.2-.17-.26-.07-.06-.15-.1-.25-.13-.1-.03-.2-.04-.31-.04-.19,0-.37.05-.53.14-.16.1-.29.24-.39.42-.1.18-.14.4-.14.65v2.48h-.71Z"/>
      <path d="M110.58,51.46c-.16,0-.31-.02-.47-.06-.16-.04-.3-.1-.43-.18-.13-.09-.24-.2-.32-.36-.08-.15-.12-.34-.12-.57,0-.29.07-.53.21-.71.14-.19.33-.33.58-.44s.54-.18.89-.22c.34-.04.71-.06,1.11-.06v-.48c0-.16-.03-.29-.08-.4-.05-.11-.15-.2-.28-.26-.14-.06-.33-.09-.58-.09s-.43.03-.57.09c-.14.06-.24.14-.3.24-.06.09-.08.2-.08.32v.12h-.68s0-.05,0-.08v-.09c0-.26.07-.47.21-.65.14-.17.34-.3.6-.39.26-.09.55-.13.88-.13.35,0,.65.05.89.15.24.1.42.25.54.43s.18.41.18.67v2.28c0,.1.02.17.07.21.05.04.11.06.18.06h.31v.47c-.08.03-.16.06-.25.08-.09.02-.2.03-.31.03-.14,0-.25-.03-.35-.08-.09-.06-.16-.13-.21-.23-.05-.1-.08-.21-.1-.33h-.05c-.1.13-.22.25-.37.35-.15.1-.31.17-.49.23s-.38.08-.59.08M110.76,50.87c.17,0,.33-.03.49-.08.15-.05.29-.13.4-.23.12-.1.21-.22.28-.36.07-.14.1-.29.1-.46v-.35c-.43,0-.8.02-1.11.07-.3.05-.54.13-.7.26-.16.12-.25.3-.25.52,0,.14.03.26.1.35.07.09.16.16.27.21.12.05.25.07.41.07"/>
      <path d="M114.88,51.46c-.22,0-.39-.04-.51-.12-.12-.08-.21-.19-.26-.33s-.08-.28-.08-.44v-2.83h-.54v-.59h.56l.13-1.18h.56v1.18h.79v.59h-.79v2.73c0,.13.02.23.07.3.05.07.14.1.27.1h.45v.47c-.05.03-.12.05-.19.06-.08.02-.15.03-.23.04-.08.01-.15.02-.22.02"/>
      <path d="M118,51.46c-.43,0-.79-.08-1.08-.24-.29-.16-.51-.4-.67-.73-.15-.32-.23-.74-.23-1.24s.08-.92.23-1.25c.15-.32.37-.56.67-.72.29-.16.65-.24,1.08-.24s.79.08,1.08.24c.29.16.51.4.66.72.15.32.22.74.22,1.25s-.07.92-.22,1.24c-.15.33-.37.57-.66.73-.29.16-.65.24-1.08.24M118,50.87c.27,0,.5-.05.68-.16.18-.11.32-.27.41-.5.1-.23.14-.51.14-.86v-.18c0-.35-.05-.64-.14-.87-.09-.22-.23-.39-.41-.5-.18-.11-.41-.16-.68-.16s-.5.05-.69.16c-.18.11-.32.27-.41.5-.09.22-.14.51-.14.87v.18c0,.35.05.64.14.86.09.23.23.39.41.5.19.11.42.16.69.16"/>
      <polygon points="3.47 25.47 3.47 .44 22.99 .44 22.99 4.49 8.21 4.49 8.21 10.66 21.39 10.66 21.39 14.71 8.21 14.71 8.21 21.42 23.21 21.42 23.21 25.47 3.47 25.47"/>
      <path d="M39.01,25.91c-2.56,0-4.74-.45-6.55-1.35-1.81-.9-3.2-2.3-4.16-4.21-.96-1.91-1.44-4.37-1.44-7.39,0-4.4,1.07-7.66,3.21-9.78,2.14-2.12,5.12-3.18,8.94-3.18,2.07,0,3.94.35,5.6,1.06,1.67.7,2.99,1.77,3.98,3.19.99,1.42,1.48,3.23,1.48,5.42h-4.86c0-1.22-.26-2.24-.78-3.08-.52-.84-1.25-1.48-2.17-1.92-.92-.44-1.98-.66-3.18-.66-1.66,0-3.03.32-4.12.97-1.09.65-1.9,1.6-2.43,2.87-.52,1.26-.79,2.83-.79,4.71v.8c0,1.9.26,3.48.79,4.75.52,1.26,1.33,2.21,2.41,2.85,1.08.63,2.46.95,4.14.95,1.26,0,2.37-.21,3.32-.64.95-.43,1.68-1.06,2.21-1.9.52-.84.79-1.87.79-3.08h4.67c0,2.19-.49,4-1.46,5.42-.97,1.42-2.29,2.48-3.96,3.18-1.67.69-3.55,1.04-5.64,1.04"/>
      <path d="M65.8,25.91c-2.6,0-4.86-.47-6.75-1.41-1.9-.94-3.35-2.37-4.36-4.29-1.01-1.92-1.52-4.34-1.52-7.26s.5-5.37,1.52-7.28c1.01-1.91,2.46-3.33,4.36-4.27C60.95.47,63.2,0,65.8,0s4.88.47,6.77,1.4c1.89.94,3.33,2.36,4.34,4.27,1.01,1.91,1.52,4.34,1.52,7.28s-.51,5.34-1.52,7.26c-1.01,1.92-2.46,3.35-4.34,4.29-1.89.94-4.14,1.41-6.77,1.41M65.8,21.9c1.26,0,2.38-.18,3.34-.55.96-.36,1.77-.91,2.43-1.62.66-.72,1.15-1.6,1.5-2.66.34-1.06.51-2.28.51-3.67v-.8c0-1.41-.17-2.65-.51-3.72-.34-1.07-.84-1.96-1.5-2.68-.66-.72-1.47-1.26-2.43-1.62-.96-.36-2.07-.55-3.34-.55s-2.38.18-3.34.55c-.96.36-1.77.91-2.43,1.62-.66.72-1.15,1.61-1.48,2.68-.33,1.07-.49,2.31-.49,3.72v.8c0,1.39.16,2.61.49,3.67.33,1.06.82,1.95,1.48,2.66.66.72,1.47,1.26,2.43,1.62.96.36,2.07.55,3.34.55"/>
      <path d="M93.46,26.2c-1.72,0-3.2-.28-4.44-.83s-2.19-1.4-2.85-2.54c-.66-1.14-.99-2.56-.99-4.26V6.19h3.73v12.27c0,1.51.4,2.65,1.19,3.42.79.77,1.91,1.16,3.37,1.16s2.58-.39,3.4-1.16c.81-.77,1.22-1.92,1.22-3.42V6.19h3.73v12.38c0,1.7-.34,3.12-1,4.26-.67,1.14-1.62,1.98-2.87,2.54-1.24.55-2.73.83-4.47.83"/>
      <path d="M111.32,25.85l-7.17-19.66h4.04l4.67,13.53c.08.19.15.41.23.66.08.25.15.48.23.7.08.22.14.42.2.59h.14c.06-.15.12-.34.19-.54.07-.21.14-.44.22-.67.08-.24.15-.47.23-.7l4.64-13.56h3.87l-7.17,19.66h-4.33Z"/>
      <polygon class="cls-3" points="26.14 33.22 3.09 33.22 0 33.22 0 36.31 0 36.91 0 40 3.09 40 26.14 40 29.23 40 29.23 36.91 29.23 36.31 29.23 33.22 26.14 33.22"/>
      <rect class="cls-1" x="33.68" y="33.22" width="27.01" height="6.78"/>
      <rect class="cls-2" x="65.13" y="33.22" width="27.01" height="6.78"/>
      <polygon points="121.62 33.22 99.68 33.22 96.59 33.22 96.59 36.31 96.59 36.91 96.59 40 99.68 40 121.62 40 124.71 40 124.71 36.91 124.71 36.31 124.71 33.22 121.62 33.22"/>
    </g>
  </g>
</svg>