<?xml version="1.0" encoding="UTF-8"?>
<svg id="Capa_2" data-name="Capa 2" xmlns="http://www.w3.org/2000/svg" viewBox="0 0 138.28 51.36">
  <defs>
    <style>
      .cls-1 {
        fill: #eb008b;
      }

      .cls-2 {
        fill: #ffef20;
      }

      .cls-3 {
        fill: #00adee;
      }
    </style>
  </defs>
  <g id="Capa_1-2" data-name="Capa 1">
    <g>
      <rect x="4.82" y="44.47" width=".76" height="5.5"/>
      <path d="M6.82,49.97v-4.22h.57l.06.63h.05c.11-.17.23-.31.36-.42.13-.11.28-.18.44-.24.16-.05.33-.08.52-.08.27,0,.51.05.71.16.2.11.34.3.44.56h.05c.1-.17.22-.31.35-.41.13-.1.28-.18.45-.24.17-.05.34-.08.53-.08.26,0,.48.04.67.13.19.09.34.23.45.43.11.2.16.47.16.8v2.94h-.71v-2.83c0-.17-.02-.31-.06-.42-.04-.11-.1-.2-.17-.26-.07-.06-.16-.11-.26-.13-.1-.03-.2-.04-.32-.04-.19,0-.36.05-.52.14-.16.1-.29.23-.38.42-.1.18-.15.4-.15.65v2.48h-.7v-2.83c0-.17-.02-.31-.06-.42-.04-.11-.1-.2-.17-.26-.07-.06-.15-.11-.25-.13-.1-.03-.2-.04-.31-.04-.19,0-.37.05-.53.14-.16.1-.29.23-.39.42-.1.18-.14.4-.14.65v2.48h-.71Z"/>
      <path d="M13.71,51.36v-5.6h.56l.07.6h.05c.15-.23.33-.41.55-.52.22-.11.48-.17.76-.17.35,0,.65.08.9.23.25.15.44.4.57.73.13.33.2.75.2,1.28,0,.49-.07.9-.2,1.22-.14.32-.33.56-.57.72-.25.16-.53.23-.86.23-.18,0-.35-.02-.51-.06-.16-.04-.31-.11-.43-.2-.13-.09-.24-.21-.34-.36h-.05v1.91h-.71ZM15.52,49.45c.26,0,.47-.05.64-.16.17-.1.29-.27.37-.49.08-.22.12-.51.12-.85v-.17c0-.37-.04-.66-.13-.89-.09-.22-.21-.38-.37-.48-.16-.1-.36-.14-.6-.14-.26,0-.48.06-.64.17-.17.11-.29.29-.37.52-.08.23-.12.51-.12.84v.12c0,.29.03.54.09.73.05.2.13.35.24.47.1.12.22.2.36.25.13.05.27.07.42.07"/>
      <path d="M18.26,49.97v-4.22h.57l.06.7h.05c.04-.13.1-.26.18-.38.08-.12.18-.22.31-.3.13-.08.28-.12.47-.12.08,0,.15,0,.22.02.07.01.12.03.15.04v.65h-.26c-.18,0-.34.03-.47.09-.13.06-.24.15-.32.26-.08.11-.15.25-.19.4-.04.16-.06.32-.06.5v2.35h-.71Z"/>
      <path d="M22.52,50.07c-.42,0-.77-.08-1.05-.24-.29-.16-.5-.4-.65-.73-.15-.32-.22-.74-.22-1.24s.07-.92.22-1.25c.15-.32.37-.57.65-.72.29-.16.65-.23,1.08-.23.4,0,.73.07,1,.23.27.15.47.38.6.68.14.3.2.68.2,1.13v.34h-3.03c.01.34.06.61.15.83.09.22.22.37.4.47.18.1.4.15.67.15.18,0,.34-.02.48-.07.14-.05.25-.11.35-.2.09-.08.16-.19.21-.3.05-.12.08-.25.08-.39h.69c0,.22-.05.43-.13.62-.08.19-.2.35-.35.48-.16.13-.35.24-.57.31-.22.08-.48.11-.77.11M21.34,47.51h2.28c0-.23-.03-.43-.08-.59-.05-.16-.13-.29-.23-.39-.1-.1-.21-.18-.35-.22-.13-.05-.28-.07-.45-.07-.25,0-.45.05-.62.13-.17.09-.3.23-.39.42-.09.19-.15.43-.17.72"/>
      <path d="M26.71,50.07c-.29,0-.54-.03-.76-.09-.22-.06-.4-.15-.54-.26-.15-.11-.25-.25-.33-.4-.07-.15-.11-.33-.11-.53v-.08s0-.04,0-.06h.7s0,.04,0,.06v.05c0,.19.05.33.15.44.09.11.22.18.39.22.17.04.35.06.55.06.18,0,.34-.02.49-.07.15-.05.27-.12.36-.21.09-.09.13-.21.13-.36,0-.18-.06-.31-.17-.4-.12-.09-.27-.17-.45-.22-.19-.05-.38-.11-.58-.17-.17-.05-.34-.1-.51-.16-.17-.06-.32-.13-.46-.22-.14-.09-.25-.2-.33-.33-.08-.14-.12-.31-.12-.52,0-.19.04-.35.12-.5.08-.14.19-.27.33-.37.14-.1.32-.18.52-.23.21-.05.43-.08.68-.08.27,0,.5.03.7.09.2.06.37.14.5.25.13.11.23.23.3.36.06.14.1.28.1.44v.09s0,.05,0,.07h-.69v-.09c0-.11-.03-.21-.08-.31-.05-.1-.15-.18-.29-.24-.14-.06-.32-.09-.57-.09-.16,0-.29.01-.4.04s-.21.06-.28.11c-.08.05-.13.11-.17.18-.04.07-.05.14-.05.23,0,.14.05.25.14.32.09.07.21.14.36.19.15.05.32.1.49.16.19.05.38.11.57.17.2.05.37.13.54.21.16.09.29.2.39.35.1.15.15.34.15.58,0,.22-.04.42-.13.58-.09.17-.21.3-.37.41-.16.11-.34.19-.55.24s-.44.08-.69.08"/>
      <path d="M29.32,44.17h.71v.79h-.71v-.79ZM29.32,45.75h.71v4.22h-.71v-4.22Z"/>
      <path d="M32.85,50.07c-.43,0-.79-.08-1.08-.24-.29-.16-.51-.4-.67-.73s-.23-.74-.23-1.24.08-.92.23-1.25.37-.56.67-.72c.29-.16.65-.24,1.08-.24s.79.08,1.08.24c.29.16.51.4.66.72.15.32.22.74.22,1.25s-.07.92-.22,1.24c-.15.33-.37.57-.66.73-.29.16-.65.24-1.08.24M32.85,49.47c.27,0,.5-.05.68-.16.18-.11.32-.27.41-.5.09-.23.14-.51.14-.86v-.18c0-.35-.05-.64-.14-.87-.1-.22-.23-.39-.41-.5-.18-.11-.41-.16-.68-.16s-.5.05-.68.16c-.18.11-.32.27-.41.5-.09.22-.14.51-.14.87v.18c0,.35.04.63.14.86.09.23.23.4.41.5.18.11.41.16.68.16M32.44,45.23l.69-1.06h.8v.02s-.88,1.04-.88,1.04h-.61Z"/>
      <path d="M35.69,49.97v-4.22h.57l.06.63h.05c.11-.17.24-.31.38-.42.14-.11.3-.18.47-.24.17-.05.36-.08.56-.08.27,0,.5.04.7.14.2.09.36.24.47.44.12.2.17.48.17.83v2.91h-.71v-2.81c0-.18-.02-.32-.07-.43s-.11-.2-.18-.26c-.08-.06-.17-.11-.28-.14-.11-.03-.23-.04-.37-.04-.2,0-.38.05-.56.14-.18.1-.32.23-.42.42-.11.18-.16.4-.16.65v2.48h-.71Z"/>
      <path d="M42.87,50.07c-.22,0-.39-.04-.51-.12-.12-.08-.21-.19-.26-.33s-.08-.28-.08-.44v-2.83h-.54v-.59h.56l.13-1.18h.56v1.18h.79v.59h-.79v2.72c0,.14.02.24.07.3.05.07.14.1.27.1h.45v.47c-.05.03-.12.05-.19.06-.08.02-.15.03-.23.04-.08.01-.15.02-.22.02"/>
      <path d="M45.94,50.07c-.42,0-.77-.08-1.05-.24-.29-.16-.5-.4-.65-.73-.15-.32-.22-.74-.22-1.24s.07-.92.22-1.25c.15-.32.37-.57.65-.72.29-.16.65-.23,1.08-.23.4,0,.73.07,1,.23.27.15.47.38.6.68.14.3.2.68.2,1.13v.34h-3.03c.01.34.06.61.15.83.09.22.22.37.4.47.18.1.4.15.67.15.18,0,.34-.02.48-.07.14-.05.25-.11.35-.2.09-.08.16-.19.21-.3.05-.12.08-.25.08-.39h.69c0,.22-.05.43-.13.62-.08.19-.2.35-.35.48-.15.13-.35.24-.57.31-.22.08-.48.11-.77.11M44.77,47.51h2.28c0-.23-.03-.43-.08-.59-.05-.16-.13-.29-.23-.39-.1-.1-.21-.18-.34-.22-.13-.05-.28-.07-.45-.07-.25,0-.45.05-.63.13-.17.09-.3.23-.39.42-.09.19-.15.43-.17.72"/>
      <polygon points="48.19 49.97 49.7 47.81 48.26 45.75 49.11 45.75 50.14 47.26 50.18 47.26 51.2 45.75 52 45.75 50.56 47.79 52.09 49.97 51.24 49.97 50.14 48.34 50.1 48.34 48.99 49.97 48.19 49.97"/>
      <path d="M53.73,50.07c-.22,0-.39-.04-.51-.12-.12-.08-.21-.19-.26-.33-.05-.14-.08-.28-.08-.44v-2.83h-.54v-.59h.56l.13-1.18h.56v1.18h.79v.59h-.79v2.72c0,.14.02.24.07.3.05.07.14.1.27.1h.45v.47c-.05.03-.12.05-.19.06-.08.02-.15.03-.23.04-.08.01-.15.02-.22.02"/>
      <path d="M55.12,44.17h.71v.79h-.71v-.79ZM55.12,45.75h.71v4.22h-.71v-4.22Z"/>
      <rect x="56.93" y="44.17" width=".71" height="5.79"/>
      <path d="M61.84,50.07c-.35,0-.65-.08-.9-.23-.25-.16-.44-.4-.58-.73-.14-.33-.2-.76-.2-1.28,0-.5.07-.91.21-1.23.14-.32.33-.56.58-.71.25-.16.53-.23.86-.23.19,0,.36.02.52.06.16.04.3.11.43.2.12.09.24.21.33.36h.05v-2.11h.71v5.8h-.57l-.06-.6h-.05c-.15.24-.33.41-.56.52-.23.12-.48.17-.75.17M62.01,49.45c.27,0,.48-.06.65-.18.17-.12.29-.29.36-.51.08-.22.12-.5.12-.83v-.13c0-.29-.03-.53-.09-.73-.06-.2-.14-.35-.24-.47-.1-.12-.22-.2-.35-.25-.13-.05-.27-.07-.42-.07-.26,0-.47.05-.64.16-.17.11-.29.27-.37.49-.08.22-.12.51-.12.86v.17c0,.36.04.66.13.88.08.22.21.38.37.48.16.1.36.14.6.14"/>
      <path d="M64.95,44.17h.71v.79h-.71v-.79ZM64.95,45.75h.71v4.22h-.71v-4.22Z"/>
      <path d="M66.75,49.97v-4.22h.57l.06.7h.05c.04-.13.1-.26.18-.38.08-.12.18-.22.31-.3.13-.08.29-.12.47-.12.08,0,.15,0,.22.02.07.01.12.03.15.04v.65h-.26c-.18,0-.34.03-.47.09-.13.06-.24.15-.32.26-.08.11-.15.25-.19.4-.04.16-.06.32-.06.5v2.35h-.71Z"/>
      <path d="M71.02,50.07c-.42,0-.77-.08-1.05-.24-.29-.16-.5-.4-.65-.73-.15-.32-.22-.74-.22-1.24s.07-.92.22-1.25c.15-.32.37-.57.65-.72.29-.16.65-.23,1.08-.23.4,0,.73.07,1,.23.27.15.47.38.6.68.14.3.2.68.2,1.13v.34h-3.03c.01.34.06.61.15.83.09.22.22.37.4.47.18.1.4.15.66.15.18,0,.34-.02.48-.07.14-.05.25-.11.35-.2.09-.08.16-.19.21-.3.05-.12.08-.25.08-.39h.69c0,.22-.05.43-.13.62-.08.19-.2.35-.35.48-.15.13-.35.24-.57.31-.22.08-.48.11-.77.11M69.84,47.51h2.28c0-.23-.03-.43-.08-.59-.05-.16-.13-.29-.23-.39-.1-.1-.21-.18-.34-.22-.13-.05-.28-.07-.45-.07-.25,0-.45.05-.63.13-.17.09-.3.23-.39.42-.09.19-.15.43-.17.72"/>
      <path d="M75.33,50.07c-.41,0-.75-.08-1.02-.24-.28-.16-.48-.4-.63-.73-.14-.33-.21-.74-.21-1.24s.07-.91.21-1.23c.14-.33.35-.57.63-.73.28-.16.63-.24,1.04-.24.29,0,.54.04.75.11.21.07.39.18.53.33.14.15.24.32.31.52.07.2.1.44.1.7h-.71c0-.25-.03-.45-.1-.6-.07-.16-.17-.27-.32-.35-.14-.08-.33-.12-.57-.12s-.44.05-.61.16c-.17.11-.3.27-.39.49-.09.22-.14.52-.14.89v.17c0,.35.04.64.13.86.09.23.22.4.39.5.17.11.38.16.62.16s.44-.04.58-.13c.15-.09.25-.21.32-.37.07-.16.1-.35.1-.58h.69c0,.24-.03.45-.1.66-.07.2-.17.38-.31.53-.14.15-.32.27-.53.35-.21.08-.47.12-.77.12"/>
      <path d="M78.87,50.07c-.22,0-.39-.04-.51-.12-.12-.08-.21-.19-.26-.33-.05-.14-.08-.28-.08-.44v-2.83h-.54v-.59h.56l.13-1.18h.56v1.18h.79v.59h-.79v2.72c0,.14.02.24.07.3.05.07.14.1.27.1h.45v.47c-.05.03-.12.05-.19.06-.08.02-.15.03-.23.04-.08.01-.15.02-.22.02"/>
      <path d="M81.33,50.07c-.16,0-.31-.02-.47-.06-.16-.04-.3-.1-.43-.18-.13-.08-.24-.2-.32-.36-.08-.15-.12-.34-.12-.57,0-.29.07-.53.21-.71.14-.19.33-.33.58-.44.25-.1.54-.18.89-.22.34-.04.71-.06,1.11-.06v-.48c0-.16-.03-.29-.08-.4-.05-.11-.15-.2-.28-.26-.14-.06-.33-.09-.58-.09s-.43.03-.57.09c-.14.06-.24.14-.3.24-.06.1-.08.2-.08.32v.12h-.68s0-.05,0-.08v-.1c0-.26.07-.47.21-.64.14-.17.34-.31.6-.39.26-.09.55-.13.88-.13.35,0,.65.05.89.15.24.1.42.25.54.43.12.19.18.41.18.67v2.29c0,.1.02.17.07.21.05.04.1.06.18.06h.31v.47c-.08.03-.16.06-.25.08-.09.02-.2.04-.31.04-.14,0-.25-.03-.35-.08-.09-.06-.16-.13-.21-.23-.05-.1-.08-.21-.1-.33h-.05c-.1.13-.22.25-.37.35-.15.1-.31.17-.49.23-.18.05-.38.08-.59.08M81.5,49.47c.17,0,.33-.03.49-.08.15-.05.29-.13.4-.23.12-.1.21-.22.28-.36.07-.14.11-.29.11-.46v-.35c-.43,0-.8.02-1.11.07-.3.05-.54.13-.7.26-.16.12-.25.3-.25.52,0,.15.03.26.1.35.07.09.16.16.27.2.12.05.25.07.41.07"/>
      <polygon points="85.76 50.36 87.55 44.08 88.12 44.08 86.33 50.36 85.76 50.36"/>
      <path d="M92.5,50.07c-.3,0-.59-.03-.86-.09-.27-.06-.52-.15-.73-.28-.21-.13-.38-.3-.51-.51-.12-.21-.19-.46-.19-.77,0-.03,0-.05,0-.08,0-.03,0-.05,0-.08h.77s0,.04,0,.08c0,.03,0,.06,0,.09,0,.21.06.4.19.54.13.15.31.26.53.33.23.07.49.11.77.11.13,0,.26,0,.4-.02.14-.02.28-.04.41-.08.13-.04.25-.09.35-.16.1-.07.19-.15.25-.25.06-.1.09-.22.09-.36,0-.18-.05-.33-.16-.45-.1-.12-.24-.22-.41-.3-.17-.08-.36-.15-.58-.21-.22-.06-.44-.12-.67-.18-.23-.06-.45-.13-.67-.2-.22-.08-.41-.17-.58-.29-.17-.11-.31-.26-.41-.43-.11-.17-.16-.38-.16-.63,0-.23.05-.44.14-.62.09-.18.23-.34.42-.46.19-.13.42-.22.69-.29.27-.07.59-.1.94-.1.29,0,.56.03.81.09.25.06.47.16.66.28.19.13.34.28.44.48.11.19.16.42.16.7v.1h-.75v-.12c0-.18-.06-.34-.17-.47-.11-.13-.27-.23-.46-.3-.2-.07-.42-.11-.66-.11-.32,0-.59.03-.8.09-.21.06-.37.15-.48.27-.1.11-.16.24-.16.39,0,.17.05.3.16.42s.24.2.41.28c.17.07.37.14.59.2.22.06.44.12.67.18.23.06.45.13.67.21s.41.17.59.29c.17.11.31.26.41.43.1.17.15.39.15.64,0,.39-.1.71-.29.95-.19.24-.46.42-.79.53-.34.11-.73.17-1.17.17"/>
      <path d="M97.05,50.07c-.41,0-.73-.11-.98-.31-.25-.21-.37-.57-.37-1.09v-2.91h.71v2.81c0,.18.02.32.06.43s.1.2.18.26c.08.06.18.11.29.14.11.03.23.04.36.04.2,0,.39-.05.56-.15.17-.1.31-.23.42-.42.11-.18.16-.4.16-.65v-2.48h.7v4.22h-.57l-.06-.63h-.06c-.11.17-.24.31-.38.42-.14.11-.3.19-.47.24-.17.05-.36.08-.56.08"/>
      <path d="M102.25,50.07c-.28,0-.54-.06-.76-.17-.22-.11-.41-.29-.55-.52h-.05l-.07.6h-.56v-5.8h.71v2.11h.05c.1-.15.21-.27.34-.36.13-.09.27-.16.43-.2.16-.04.33-.06.51-.06.32,0,.61.08.86.23.25.15.44.39.57.71.14.32.2.73.2,1.23,0,.52-.07.95-.2,1.28-.13.33-.32.57-.57.73-.25.16-.55.23-.9.23M102.08,49.45c.24,0,.44-.05.6-.14.16-.1.29-.26.37-.48.08-.22.13-.51.13-.88v-.17c0-.35-.04-.64-.12-.86-.08-.22-.2-.38-.37-.49-.17-.1-.38-.16-.64-.16-.15,0-.29.02-.42.07-.13.05-.25.13-.36.25-.11.12-.18.28-.24.47-.06.2-.08.44-.08.73v.13c0,.33.04.61.12.83.08.22.2.39.37.51.17.12.38.18.64.18"/>
      <rect x="104.79" y="44.17" width=".71" height="5.79"/>
      <path d="M106.59,44.17h.71v.79h-.71v-.79ZM106.59,45.75h.71v4.22h-.71v-4.22Z"/>
      <path d="M108.4,49.97v-4.22h.57l.06.63h.05c.11-.17.23-.31.36-.42.13-.11.28-.18.44-.24.16-.05.33-.08.52-.08.27,0,.51.05.71.16.2.11.34.3.44.56h.05c.1-.17.22-.31.35-.41.13-.1.28-.18.45-.24.17-.05.34-.08.53-.08.26,0,.48.04.67.13.19.09.34.23.45.43.11.2.16.47.16.8v2.94h-.71v-2.83c0-.17-.02-.31-.06-.42-.04-.11-.1-.2-.17-.26-.07-.06-.16-.11-.26-.13-.1-.03-.2-.04-.32-.04-.19,0-.36.05-.52.14-.16.1-.29.23-.38.42-.1.18-.15.4-.15.65v2.48h-.7v-2.83c0-.17-.02-.31-.06-.42-.04-.11-.1-.2-.17-.26-.07-.06-.15-.11-.25-.13-.1-.03-.2-.04-.31-.04-.19,0-.37.05-.53.14-.16.1-.29.23-.39.42-.1.18-.14.4-.14.65v2.48h-.71Z"/>
      <path d="M116.35,50.07c-.16,0-.31-.02-.47-.06-.16-.04-.3-.1-.43-.18-.13-.08-.24-.2-.32-.36-.08-.15-.12-.34-.12-.57,0-.29.07-.53.21-.71.14-.19.33-.33.58-.44.25-.1.54-.18.89-.22.34-.04.71-.06,1.11-.06v-.48c0-.16-.03-.29-.08-.4-.05-.11-.15-.2-.28-.26-.14-.06-.33-.09-.58-.09s-.43.03-.57.09c-.14.06-.24.14-.3.24-.06.1-.08.2-.08.32v.12h-.68s0-.05,0-.08v-.1c0-.26.07-.47.21-.64.14-.17.34-.31.6-.39.26-.09.55-.13.88-.13.35,0,.65.05.89.15.24.1.42.25.54.43.12.19.18.41.18.67v2.29c0,.1.02.17.07.21.05.04.1.06.18.06h.31v.47c-.08.03-.16.06-.25.08-.09.02-.2.04-.31.04-.14,0-.25-.03-.35-.08-.09-.06-.16-.13-.21-.23-.05-.1-.08-.21-.1-.33h-.05c-.1.13-.22.25-.37.35-.15.1-.31.17-.49.23-.18.05-.38.08-.59.08M116.52,49.47c.17,0,.33-.03.49-.08.15-.05.29-.13.4-.23.12-.1.21-.22.28-.36.07-.14.11-.29.11-.46v-.35c-.43,0-.8.02-1.11.07-.3.05-.54.13-.7.26-.16.12-.24.3-.24.52,0,.15.03.26.1.35.07.09.16.16.27.2.12.05.25.07.41.07"/>
      <path d="M121.26,50.07c-.41,0-.75-.08-1.02-.24-.27-.16-.48-.4-.62-.73-.14-.33-.21-.74-.21-1.24s.07-.91.21-1.23c.14-.33.35-.57.63-.73.28-.16.63-.24,1.04-.24.29,0,.54.04.75.11.21.07.39.18.53.33.14.15.24.32.31.52.07.2.1.44.1.7h-.71c0-.25-.03-.45-.1-.6-.07-.16-.17-.27-.32-.35-.14-.08-.33-.12-.57-.12s-.44.05-.61.16c-.17.11-.3.27-.39.49-.09.22-.14.52-.14.89v.17c0,.35.04.64.13.86.09.23.22.4.39.5.17.11.38.16.62.16s.43-.04.58-.13c.15-.09.25-.21.32-.37.07-.16.1-.35.1-.58h.69c0,.24-.03.45-.1.66-.07.2-.17.38-.31.53-.14.15-.32.27-.53.35-.21.08-.47.12-.77.12"/>
      <path d="M123.82,44.17h.71v.79h-.71v-.79ZM123.82,45.75h.71v4.22h-.71v-4.22Z"/>
      <path d="M127.35,50.07c-.43,0-.79-.08-1.08-.24-.29-.16-.51-.4-.67-.73-.15-.33-.23-.74-.23-1.24s.08-.92.23-1.25c.15-.32.37-.56.67-.72.29-.16.65-.24,1.08-.24s.79.08,1.08.24c.29.16.51.4.66.72.15.32.22.74.22,1.25s-.07.92-.22,1.24c-.15.33-.37.57-.66.73-.29.16-.65.24-1.08.24M127.35,49.47c.27,0,.5-.05.68-.16.18-.11.32-.27.41-.5.1-.23.14-.51.14-.86v-.18c0-.35-.05-.64-.14-.87-.09-.22-.23-.39-.41-.5-.18-.11-.41-.16-.68-.16s-.5.05-.68.16c-.18.11-.32.27-.41.5-.09.22-.14.51-.14.87v.18c0,.35.04.63.14.86.09.23.23.4.41.5.18.11.41.16.68.16M126.94,45.23l.69-1.06h.8v.02s-.88,1.04-.88,1.04h-.61Z"/>
      <path d="M130.19,49.97v-4.22h.57l.06.63h.05c.11-.17.24-.31.38-.42.14-.11.3-.18.47-.24.17-.05.36-.08.56-.08.27,0,.5.04.7.14.2.09.36.24.47.44.12.2.17.48.17.83v2.91h-.71v-2.81c0-.18-.02-.32-.07-.43s-.11-.2-.18-.26c-.08-.06-.17-.11-.28-.14-.11-.03-.23-.04-.36-.04-.2,0-.38.05-.56.14-.17.1-.32.23-.42.42-.11.18-.16.4-.16.65v2.48h-.71Z"/>
      <path d="M109.09,30.54h26.1c1.7,0,3.08,1.38,3.08,3.09v.59c0,1.7-1.38,3.09-3.08,3.09h-28.91l2.81-6.77Z"/>
      <polygon class="cls-2" points="77.68 30.54 104.65 30.54 101.84 37.31 74.87 37.31 77.68 30.54"/>
      <polygon class="cls-1" points="46.27 30.54 73.24 30.54 70.43 37.31 43.46 37.31 46.27 30.54"/>
      <path class="cls-3" d="M22.87,30.54c-1.23,2.99-3.53,5.4-6.41,6.74.13.02.25.03.38.03h22.19l2.81-6.77h-18.96Z"/>
      <path class="cls-3" d="M26.57,9.76C26.68,4.47,22.75.11,17.8,0c-3.43-.07-6.45,1.91-8.02,4.89l-7.28,13.62C.99,20.43.06,22.84,0,25.49c-.13,6.34,4.77,11.57,10.95,11.7,5.28.11,9.78-3.54,11.06-8.56h0l4.03-15.89h0c.31-.94.49-1.94.51-2.98ZM11.14,29.63c-2.11-.05-3.78-1.85-3.73-4.01.05-2.17,1.81-3.88,3.92-3.82,2.11.05,3.78,1.85,3.73,4.01-.05,2.17-1.81,3.88-3.92,3.82Z"/>
      <path d="M29.11,23.4c-.05-.07-.06-.16-.03-.26l5.05-20.89c.03-.1.09-.19.17-.26.08-.07.17-.11.27-.11h3.39c.22,0,.31.12.28.37l-5.05,20.89c-.03.1-.1.19-.18.26-.09.07-.18.11-.28.11h-3.39c-.1,0-.17-.04-.23-.11"/>
      <path d="M51.82,1.88h3.39c.1,0,.17.04.23.11.05.07.06.16.03.26l-5.05,20.89c-.03.1-.09.19-.17.26-.08.07-.17.11-.27.11h-3.42c-.1,0-.18-.04-.23-.11-.05-.07-.06-.16-.03-.26l3.35-13.88c.03-.08.02-.12-.02-.12s-.08.03-.13.09l-3.31,4.27c-.14.16-.24.25-.3.25-.04,0-.1-.08-.18-.25l-1.21-4.27c-.03-.06-.07-.09-.11-.09s-.06.04-.07.12l-3.35,13.88c-.03.1-.09.19-.17.26-.08.07-.17.11-.27.11h-3.42c-.1,0-.18-.04-.23-.11-.05-.07-.06-.16-.03-.26l5.05-20.89c.03-.1.09-.19.17-.26.08-.07.17-.11.27-.11h3.35c.08,0,.16.02.23.06.07.04.12.1.13.18l1.41,4.91c.03.08.09.08.18,0l3.69-4.91c.1-.16.26-.25.48-.25"/>
      <path d="M68.68,3.33c.73.99.99,2.3.79,3.93-.06.51-.13.91-.2,1.17-.45,1.92-1.31,3.45-2.56,4.61-1.25,1.15-2.67,1.73-4.24,1.73h-2.16c-.08,0-.15.05-.2.15l-1.97,8.22c-.03.1-.09.19-.18.26-.09.07-.18.11-.28.11h-3.38c-.1,0-.18-.03-.23-.11-.05-.07-.06-.16-.03-.26l5.06-20.93c.03-.1.09-.19.17-.26.08-.07.17-.11.27-.11h5.87c1.46,0,2.55.49,3.28,1.48M64.26,10.44c.54-.62.87-1.46,1-2.53.09-.72,0-1.28-.26-1.68-.26-.4-.66-.6-1.2-.6h-1.29c-.1,0-.16.05-.17.15l-1.33,5.44c-.01.1.02.15.1.15h1.29c.7,0,1.32-.31,1.85-.93"/>
      <path d="M76.38,23.2l-.18-8.53c-.03-.08-.07-.12-.13-.12h-.96c-.12,0-.19.05-.2.15l-2.02,8.44c-.03.1-.1.19-.18.26-.09.07-.18.11-.28.11h-3.39c-.1,0-.18-.04-.23-.11-.05-.07-.06-.16-.03-.26l5.05-20.89c.03-.1.09-.19.17-.26.08-.07.17-.11.27-.11h5.87c1.44,0,2.53.49,3.27,1.47.74.98,1.01,2.28.81,3.91-.06.49-.13.88-.2,1.14-.29,1.2-.76,2.26-1.43,3.2-.67.94-1.45,1.66-2.35,2.18-.04.02-.08.05-.1.08-.03.03-.03.07-.01.11l.47,9.12v.06c-.02.1-.07.19-.15.26-.08.07-.17.11-.27.11h-3.48c-.2,0-.31-.1-.32-.31M77.08,5.77l-1.28,5.28c-.05.1-.02.16.1.16h1.29c.68,0,1.29-.31,1.82-.93.54-.62.87-1.43.99-2.44.08-.68,0-1.22-.27-1.62-.26-.4-.65-.6-1.17-.6h-1.32c-.1,0-.16.05-.17.15"/>
      <path d="M83.7,23.4c-.05-.07-.06-.16-.03-.26l5.05-20.89c.03-.1.09-.19.17-.26.08-.07.17-.11.27-.11h3.39c.22,0,.31.12.28.37l-5.05,20.89c-.03.1-.1.19-.18.26-.09.07-.18.11-.28.11h-3.39c-.1,0-.17-.04-.23-.11"/>
      <path d="M108.2,1.98c.05.07.06.16.03.26l-.73,3c-.03.1-.09.19-.17.26-.08.07-.17.11-.27.11h-3.66s-.08.02-.11.05c-.03.03-.05.07-.06.11l-4.2,17.37c-.03.1-.09.19-.17.26-.08.07-.17.11-.27.11h-3.42c-.1,0-.18-.03-.23-.11-.05-.07-.06-.16-.03-.26l4.2-17.37c.05-.1.02-.16-.1-.16h-3.48c-.22,0-.31-.12-.28-.37l.73-3c.03-.1.09-.19.17-.26.08-.07.17-.11.27-.11h11.54c.1,0,.17.04.23.11"/>
      <path d="M121.17,5.51c-.08.07-.17.11-.27.11h-6.08c-.1,0-.16.05-.17.15l-1.2,4.88c-.01.1.02.15.1.15h3.51c.1,0,.17.04.23.11.05.07.06.16.03.26l-.73,3c-.03.1-.09.19-.17.26-.08.07-.17.11-.27.11h-3.48c-.12,0-.18.05-.2.15l-1.17,4.92c-.05.1-.02.15.1.15h6.05c.1,0,.18.04.24.11.06.07.07.16.04.26l-.73,3c-.03.1-.09.19-.17.26-.08.07-.17.11-.27.11h-9.98c-.1,0-.18-.04-.23-.11-.05-.07-.06-.16-.03-.26l5.05-20.89c.03-.1.09-.19.17-.26.08-.07.17-.11.27-.11h9.98c.1,0,.18.04.23.11.05.07.06.16.03.26l-.73,3c-.03.1-.09.19-.17.26"/>
      <path d="M119.7,23.39c-.02-.08,0-.18.08-.31l6.42-10.29c.05-.06.07-.12.05-.19l-1.46-10.29v-.12c.01-.21.13-.31.35-.31h3.51c.18,0,.28.1.29.31l.53,5.94c0,.06.01.09.06.09.05,0,.09-.03.12-.09l3.37-5.94c.12-.21.28-.31.46-.31h3.45c.14,0,.22.04.24.12.02.08,0,.18-.08.31l-6.42,10.29c-.05.06-.07.12-.05.19l1.46,10.29.02.12c-.01.08-.06.15-.13.22-.08.06-.17.09-.27.09h-3.44c-.18,0-.28-.1-.29-.31l-.53-5.9c0-.06,0-.09-.05-.09-.04,0-.08.03-.13.09l-3.39,5.9c-.13.21-.28.31-.46.31h-3.45c-.14,0-.22-.04-.24-.12"/>
    </g>
  </g>
</svg>