<?xml version="1.0" encoding="UTF-8"?>
<svg xmlns="http://www.w3.org/2000/svg" xmlns:xlink="http://www.w3.org/1999/xlink" viewBox="0 0 173.41 51.28">
  <defs>
    <style>
      .cls-1 {
        letter-spacing: -.02em;
      }

      .cls-2 {
        fill: url(#linear-gradient-3);
      }

      .cls-2, .cls-3 {
        opacity: .3;
      }

      .cls-2, .cls-3, .cls-4 {
        mix-blend-mode: overlay;
      }

      .cls-3 {
        fill: url(#linear-gradient-2);
      }

      .cls-5 {
        letter-spacing: -.07em;
      }

      .cls-6 {
        isolation: isolate;
      }

      .cls-7 {
        filter: url(#drop-shadow-1);
      }

      .cls-7, .cls-4, .cls-8 {
        fill: #fff;
      }

      .cls-9 {
        letter-spacing: 0em;
      }

      .cls-8 {
        font-family: Barlow-SemiBold, Barlow;
        font-size: 14px;
        font-weight: 600;
      }

      .cls-10 {
        fill: url(#linear-gradient);
      }
    </style>
    <linearGradient id="linear-gradient" x1="0" y1="25.64" x2="173.41" y2="25.64" gradientUnits="userSpaceOnUse">
      <stop offset="0" stop-color="#143a9a"/>
      <stop offset="1" stop-color="#1b4dcb"/>
    </linearGradient>
    <filter id="drop-shadow-1" x="16.29" y="9.64" width="17" height="31.31" filterUnits="userSpaceOnUse">
      <feOffset dx=".5" dy=".5"/>
      <feGaussianBlur result="blur" stdDeviation="0"/>
      <feFlood flood-color="#000" flood-opacity=".31"/>
      <feComposite in2="blur" operator="in"/>
      <feComposite in="SourceGraphic"/>
    </filter>
    <linearGradient id="linear-gradient-2" x1="87.79" y1="25.64" x2="171.37" y2="25.64" gradientUnits="userSpaceOnUse">
      <stop offset="0" stop-color="#fff" stop-opacity="0"/>
      <stop offset=".09" stop-color="#fff" stop-opacity=".02"/>
      <stop offset=".22" stop-color="#fff" stop-opacity=".09"/>
      <stop offset=".36" stop-color="#fff" stop-opacity=".19"/>
      <stop offset=".51" stop-color="#fff" stop-opacity=".34"/>
      <stop offset=".68" stop-color="#fff" stop-opacity=".53"/>
      <stop offset=".85" stop-color="#fff" stop-opacity=".76"/>
      <stop offset="1" stop-color="#fff"/>
    </linearGradient>
    <linearGradient id="linear-gradient-3" x1=".06" x2="76.56" xlink:href="#linear-gradient-2"/>
  </defs>
  <g class="cls-6">
    <g id="Capa_2" data-name="Capa 2">
      <g id="OBJECTS">
        <path class="cls-10" d="M18.09,0h137.23c9.98,0,18.09,8.11,18.09,18.09v15.1c0,9.98-8.11,18.09-18.09,18.09H18.09C8.11,51.28,0,43.17,0,33.19v-15.1C0,8.11,8.11,0,18.09,0Z"/>
        <g transform="translate(24, 25.5) scale(0.82) translate(-24, -25.5)">
          <path class="cls-7" d="M30.36,14.76h2.43v-4.75s-2.21-.38-4.32-.38c-4.4,0-7.28,2.67-7.28,7.5v4.25h-4.9v5.57h4.9v13.48h6.03v-13.48h4.49l.86-5.57h-5.35v-3.62c0-1.53.75-3.01,3.14-3.01Z"/>
        </g>
        <path class="cls-4" d="M49.45,41.58c0,.1-.08.19-.19.19h0c-.1,0-.19-.08-.19-.19V9.7c0-.1.08-.19.19-.19h0c.1,0,.19.08.19.19v31.88Z"/>
        <text class="cls-8" transform="translate(55.67 30.04)"><tspan class="cls-5" x="0" y="0">F</tspan><tspan class="cls-1" x="6.93" y="0">A</tspan><tspan x="15.75" y="0">CE</tspan><tspan class="cls-9" x="32.55" y="0">B</tspan><tspan x="41.24" y="0">OOK USER</tspan></text>
        <path class="cls-3" d="M129.86,51.28h-42.07L139.06,0h16.26c6.98,0,13.03,3.97,16.05,9.77l-41.5,41.5Z"/>
        <path class="cls-2" d="M34.49,0L.06,34.43c.64,9.39,8.47,16.85,18.03,16.85h7.2L76.56,0h-42.07Z"/>
      </g>
    </g>
  </g>
</svg>