<?xml version="1.0" encoding="UTF-8"?>
<svg id="Capa_2" data-name="Capa 2" xmlns="http://www.w3.org/2000/svg" xmlns:xlink="http://www.w3.org/1999/xlink" viewBox="0 0 49.88 52.39">
  <defs>
    <style>
      .cls-1 {
        fill: #fff;
      }

      .cls-2 {
        fill: url(#linear-gradient);
      }
    </style>
    <linearGradient id="linear-gradient" x1="7.72" y1="10.26" x2="40.86" y2="43.4" gradientUnits="userSpaceOnUse">
      <stop offset="0" stop-color="#1677f1"/>
      <stop offset=".18" stop-color="#176ee9"/>
      <stop offset=".46" stop-color="#1d55d3"/>
      <stop offset=".82" stop-color="#252eb0"/>
      <stop offset="1" stop-color="#2b189c"/>
    </linearGradient>
  </defs>
  <g id="ELEMENTS">
    <path class="cls-2" d="M46.2,19.73c1.67-2.76-1.68-6.76-4.77-4.78-.02.02-.05.03-.08.05.18-.17.34-.34.52-.51,2.86-2.71-.84-7.57-4.23-5.48-2.12,1.31-4.21,2.67-6.29,4.05,1.71-1.66,3.44-3.3,5.21-4.91,3.02-2.74-.83-7.29-4.23-5.48-.81.43-1.6.9-2.4,1.36.51-2.57-2.32-5-5.18-3.68C17.08,3.91,10.02,8.63,3.71,14.27c-2.73,2.45.05,6.17,2.99,5.83-2.11,2.52-4.15,5.1-6.1,7.76-1.97,2.69,1.29,5.79,3.99,5.09-.61.81-1.23,1.61-1.82,2.43-1.01,1.38-.37,3.55.9,4.5,1.44,1.07,3.25.91,4.58-.27.38-.33.76-.66,1.14-.99-.63.74-1.28,1.45-1.9,2.19-1.21,1.44-1.41,3.52,0,4.93,1.13,1.13,3,1.32,4.33.48.18.86.66,1.68,1.32,2.17,1.35,1.01,2.81.87,4.12.04-.1,2.55,2.74,5.18,5.18,3.33,1.43-1.08,2.86-2.17,4.29-3.25.96,1.82,3.47,2.83,5.5.99,3.18-2.88,6.56-5.46,10.18-7.77,1.85-1.18,1.95-3.23,1.12-4.73l3.51-3.88c1.16-1.28,1.38-3.18.27-4.58-.21-.26-.48-.5-.77-.7.77-.71,1.54-1.42,2.31-2.14,2.45-2.26.16-6.07-2.64-5.96Z"/>
    <path class="cls-1" d="M26.14,43.03v-13.28h4.43l.84-5.49h-5.27v-3.57c0-1.5.74-2.97,3.1-2.97h2.4v-4.68s-2.18-.37-4.25-.37c-4.34,0-7.18,2.63-7.18,7.39v4.19h-4.83v5.49h4.83v13.28h5.94Z"/>
  </g>
</svg>