<?xml version="1.0" encoding="UTF-8"?>
<svg xmlns="http://www.w3.org/2000/svg" xmlns:xlink="http://www.w3.org/1999/xlink" viewBox="0 0 173.41 51.28">
  <defs>
    <style>
      .cls-1 {
        letter-spacing: -.02em;
      }

      .cls-2 {
        letter-spacing: -.01em;
      }

      .cls-3, .cls-4, .cls-5 {
        fill: #fff;
      }

      .cls-6 {
        fill: url(#linear-gradient-2);
      }

      .cls-6, .cls-4, .cls-7 {
        mix-blend-mode: overlay;
      }

      .cls-6, .cls-7 {
        opacity: .3;
      }

      .cls-8 {
        letter-spacing: -.06em;
      }

      .cls-9 {
        filter: url(#drop-shadow-1);
      }

      .cls-10 {
        fill: url(#Degradado_sin_nombre_2);
      }

      .cls-11 {
        isolation: isolate;
      }

      .cls-12 {
        letter-spacing: .02em;
      }

      .cls-7 {
        fill: url(#linear-gradient);
      }

      .cls-5 {
        font-family: Barlow-SemiBold, Barlow;
        font-size: 14px;
        font-weight: 600;
      }
    </style>
    <linearGradient id="Degradado_sin_nombre_2" data-name="Degradado sin nombre 2" x1="-1.75" y1="54.05" x2="163.25" y2="1.05" gradientUnits="userSpaceOnUse">
      <stop offset="0" stop-color="#fae089"/>
      <stop offset=".21" stop-color="#fbba45"/>
      <stop offset=".38" stop-color="#f65274"/>
      <stop offset=".52" stop-color="#d43691"/>
      <stop offset=".74" stop-color="#8e39cd"/>
      <stop offset="1" stop-color="#5b4fe8"/>
    </linearGradient>
    <filter id="drop-shadow-1" x="11.9" y="13" width="25.78" height="25.78" filterUnits="userSpaceOnUse">
      <feOffset dx=".5" dy=".5"/>
      <feGaussianBlur result="blur" stdDeviation="0"/>
      <feFlood flood-color="#000" flood-opacity=".31"/>
      <feComposite in2="blur" operator="in"/>
      <feComposite in="SourceGraphic"/>
    </filter>
    <linearGradient id="linear-gradient" x1="87.79" y1="25.64" x2="171.37" y2="25.64" gradientUnits="userSpaceOnUse">
      <stop offset="0" stop-color="#fff" stop-opacity="0"/>
      <stop offset=".09" stop-color="#fff" stop-opacity=".02"/>
      <stop offset=".22" stop-color="#fff" stop-opacity=".09"/>
      <stop offset=".36" stop-color="#fff" stop-opacity=".19"/>
      <stop offset=".51" stop-color="#fff" stop-opacity=".34"/>
      <stop offset=".68" stop-color="#fff" stop-opacity=".53"/>
      <stop offset=".85" stop-color="#fff" stop-opacity=".76"/>
      <stop offset="1" stop-color="#fff"/>
    </linearGradient>
    <linearGradient id="linear-gradient-2" x1=".06" x2="76.56" xlink:href="#linear-gradient"/>
  </defs>
  <g class="cls-11">
    <g id="Capa_2" data-name="Capa 2">
      <g id="OBJECTS">
        <path class="cls-10" d="M18.09,0h137.23c9.98,0,18.09,8.11,18.09,18.09v15.1c0,9.98-8.11,18.09-18.09,18.09H18.09C8.11,51.28,0,43.17,0,33.19v-15.1C0,8.11,8.11,0,18.09,0Z"/>
        <g class="cls-9">
          <path class="cls-3" d="M31.23,17.51c-.82,0-1.48.66-1.48,1.48s.66,1.48,1.48,1.48,1.48-.66,1.48-1.48-.66-1.48-1.48-1.48Z"/>
          <path class="cls-3" d="M24.65,19.41c-3.43,0-6.23,2.79-6.23,6.22s2.79,6.23,6.23,6.23,6.22-2.79,6.22-6.23-2.79-6.22-6.22-6.22ZM24.65,29.63c-2.2,0-3.99-1.79-3.99-3.99s1.79-3.98,3.99-3.98,3.99,1.79,3.99,3.98-1.79,3.99-3.99,3.99Z"/>
          <path class="cls-3" d="M29.59,38.28h-10.09c-4.19,0-7.59-3.41-7.59-7.59v-10.09c0-4.19,3.41-7.59,7.59-7.59h10.09c4.19,0,7.59,3.41,7.59,7.59v10.09c0,4.19-3.41,7.59-7.59,7.59ZM19.5,15.37c-2.88,0-5.21,2.34-5.21,5.22v10.09c0,2.88,2.34,5.21,5.21,5.21h10.09c2.88,0,5.22-2.34,5.22-5.21v-10.09c0-2.88-2.34-5.22-5.22-5.22h-10.09Z"/>
        </g>
        <path class="cls-4" d="M49.45,41.58c0,.1-.08.19-.19.19h0c-.1,0-.19-.08-.19-.19V9.7c0-.1.08-.19.19-.19h0c.1,0,.19.08.19.19v31.88Z"/>
        <text class="cls-5" transform="translate(55.67 30.04)"><tspan x="0" y="0">IN</tspan><tspan class="cls-2" x="13.03" y="0">S</tspan><tspan class="cls-8" x="21.13" y="0">T</tspan><tspan class="cls-1" x="28.38" y="0">A</tspan><tspan x="37.2" y="0">G</tspan><tspan class="cls-12" x="45.78" y="0">R</tspan><tspan x="54.68" y="0">AM USER</tspan></text>
        <path class="cls-7" d="M129.86,51.28h-42.07L139.06,0h16.26c6.98,0,13.03,3.97,16.05,9.77l-41.5,41.5Z"/>
        <path class="cls-6" d="M34.49,0L.06,34.43c.64,9.39,8.47,16.85,18.03,16.85h7.2L76.56,0h-42.07Z"/>
      </g>
    </g>
  </g>
</svg>