<?xml version="1.0" encoding="UTF-8"?>
<svg id="Capa_2" data-name="Capa 2" xmlns="http://www.w3.org/2000/svg" viewBox="0 0 329.35 512">
  <defs>
    <style>
      .cls-1 {
        fill: #eb008b;
      }

      .cls-2 {
        fill: #ffef20;
      }

      .cls-3 {
        fill: #fff;
      }

      .cls-4 {
        fill: #00adee;
      }
    </style>
  </defs>
  <g id="Capa_1-2" data-name="Capa 1">
    <g>
      <path class="cls-3" d="M329.35,385.29h-114.68v-31.47c-11.42,11.43-25.29,20.23-41.61,26.39-16.31,6.19-32.28,9.28-47.89,9.28-35.44,0-64.34-10.97-86.71-32.87-14.92-14.92-25.06-31.18-30.42-48.77-5.36-17.6-8.04-38.05-8.04-61.36V0h117.47v230.75c0,19.35,5.07,32.98,15.21,40.91,10.14,7.93,20.8,11.88,31.99,11.88s21.86-3.9,32-11.7c10.14-7.82,15.21-21.51,15.21-41.08V0h117.48v385.29Z"/>
      <g>
        <path class="cls-4" d="M44.83,431.13c-20.94,0-37.91,16.51-37.91,36.87v7.12c0,20.37,16.98,36.88,37.92,36.88h45.29v-80.87h-45.31Z"/>
        <rect class="cls-1" x="90.13" y="431.13" width="78.07" height="80.87"/>
        <rect class="cls-2" x="168.2" y="431.13" width="77.67" height="80.87"/>
        <path class="cls-3" d="M291.44,512c20.94,0,37.91-16.51,37.91-36.87v-7.13c0-20.36-16.97-36.87-37.91-36.87h-45.57v80.87h45.57Z"/>
      </g>
    </g>
  </g>
</svg>