<?xml version="1.0" encoding="UTF-8"?>
<svg id="Capa_2" data-name="Capa 2" xmlns="http://www.w3.org/2000/svg" viewBox="0 0 512 512">
  <defs>
    <style>
      .cls-1 {
        fill: #eb008b;
      }

      .cls-2 {
        fill: #ffef20;
      }

      .cls-3 {
        fill: #fff;
      }

      .cls-4 {
        fill: #00adee;
      }
    </style>
  </defs>
  <g id="Capa_1-2" data-name="Capa 1">
    <g>
      <rect class="cls-3" width="512" height="512" rx="80.04" ry="80.04"/>
      <g>
        <path d="M370.14,360.76h-87.05v-23.89c-8.67,8.68-19.19,15.36-31.58,20.03-12.38,4.69-24.5,7.05-36.35,7.05-26.9,0-48.83-8.33-65.82-24.95-11.33-11.33-19.02-23.67-23.09-37.02-4.07-13.36-6.1-28.88-6.1-46.57V68.3h89.17v175.16c0,14.69,3.85,25.04,11.54,31.05,7.69,6.02,15.79,9.02,24.28,9.02s16.59-2.96,24.29-8.88c7.69-5.93,11.54-16.33,11.54-31.19V68.3h89.18v292.46Z"/>
        <g>
          <path class="cls-4" d="M149.54,384.34c-16.23,0-29.39,12.53-29.39,27.99v5.4c0,15.46,13.16,28,29.4,28h35.12v-61.38h-35.13Z"/>
          <rect class="cls-1" x="184.66" y="384.34" width="60.53" height="61.38"/>
          <rect class="cls-2" x="245.2" y="384.34" width="60.22" height="61.38"/>
          <path d="M340.75,445.72c16.23,0,29.39-12.53,29.39-27.99v-5.41c0-15.46-13.16-27.99-29.39-27.99h-35.33v61.38h35.33Z"/>
        </g>
      </g>
    </g>
  </g>
</svg>