<?xml version="1.0" encoding="UTF-8"?>
<svg id="Capa_2" data-name="Capa 2" xmlns="http://www.w3.org/2000/svg" xmlns:xlink="http://www.w3.org/1999/xlink" viewBox="0 0 49.88 52.39">
  <defs>
    <style>
      .cls-1 {
        fill: #ff1753;
      }

      .cls-1, .cls-2, .cls-3 {
        fill-rule: evenodd;
      }

      .cls-2 {
        fill: #fff;
      }

      .cls-3 {
        fill: #00c9d0;
      }

      .cls-4 {
        fill: url(#linear-gradient);
      }
    </style>
    <linearGradient id="linear-gradient" x1="7.72" y1="10.26" x2="40.86" y2="43.4" gradientUnits="userSpaceOnUse">
      <stop offset="0" stop-color="#23004a"/>
      <stop offset=".96" stop-color="#010003"/>
      <stop offset="1" stop-color="#000"/>
    </linearGradient>
  </defs>
  <g id="ELEMENTS">
    <g>
      <path class="cls-4" d="M46.2,19.73c1.67-2.76-1.68-6.76-4.77-4.78-.02.02-.05.03-.08.05.18-.17.34-.34.52-.51,2.86-2.71-.84-7.57-4.23-5.48-2.12,1.31-4.21,2.67-6.29,4.05,1.71-1.66,3.44-3.3,5.21-4.91,3.02-2.74-.83-7.29-4.23-5.48-.81.43-1.6.9-2.4,1.36.51-2.57-2.32-5-5.18-3.68C17.08,3.91,10.02,8.63,3.71,14.27c-2.73,2.45.05,6.17,2.99,5.83-2.11,2.52-4.15,5.1-6.1,7.76-1.97,2.69,1.29,5.79,3.99,5.09-.61.81-1.23,1.61-1.82,2.43-1.01,1.38-.37,3.55.9,4.5,1.44,1.07,3.25.91,4.58-.27.38-.33.76-.66,1.14-.99-.63.74-1.28,1.45-1.9,2.19-1.21,1.44-1.41,3.52,0,4.93,1.13,1.13,3,1.32,4.33.48.18.86.66,1.68,1.32,2.17,1.35,1.01,2.81.87,4.12.04-.1,2.55,2.74,5.18,5.18,3.33,1.43-1.08,2.86-2.17,4.29-3.25.96,1.82,3.47,2.83,5.5.99,3.18-2.88,6.56-5.46,10.18-7.77,1.85-1.18,1.95-3.23,1.12-4.73l3.51-3.88c1.16-1.28,1.38-3.18.27-4.58-.21-.26-.48-.5-.77-.7.77-.71,1.54-1.42,2.31-2.14,2.45-2.26.16-6.07-2.64-5.96Z"/>
      <path class="cls-1" d="M29.72,24.13c1.73,1.24,3.85,1.96,6.14,1.96v-4.41c-.43,0-.87-.05-1.29-.13v3.47c-2.29,0-4.41-.73-6.14-1.96v8.99c0,4.5-3.65,8.14-8.15,8.14-1.68,0-3.24-.51-4.54-1.38,1.48,1.51,3.54,2.45,5.82,2.45,4.5,0,8.15-3.65,8.15-8.14v-8.99h0ZM31.31,19.69c-.88-.97-1.47-2.21-1.59-3.59v-.57h-1.22c.31,1.75,1.36,3.25,2.81,4.16h0ZM18.59,35.37c-.49-.65-.76-1.44-.76-2.26,0-2.06,1.67-3.72,3.73-3.72.38,0,.76.06,1.13.17v-4.5c-.43-.06-.86-.08-1.29-.07v3.51c-.37-.12-.75-.17-1.13-.17-2.06,0-3.73,1.67-3.73,3.72,0,1.45.83,2.71,2.05,3.33Z"/>
      <path class="cls-2" d="M28.43,23.06c1.73,1.24,3.85,1.96,6.14,1.96v-3.47c-1.28-.27-2.41-.94-3.26-1.87-1.46-.91-2.51-2.41-2.81-4.16h-3.21v17.6c0,2.05-1.67,3.71-3.73,3.71-1.21,0-2.29-.58-2.97-1.47-1.22-.61-2.05-1.87-2.05-3.33,0-2.06,1.67-3.72,3.73-3.72.39,0,.77.06,1.13.17v-3.51c-4.42.09-7.98,3.7-7.98,8.14,0,2.22.89,4.23,2.32,5.69,1.3.87,2.86,1.38,4.54,1.38,4.5,0,8.15-3.65,8.15-8.14v-8.99Z"/>
      <path class="cls-3" d="M34.57,21.56v-.94c-1.15,0-2.28-.32-3.26-.93.87.95,2.01,1.6,3.26,1.87ZM28.5,15.53c-.03-.17-.05-.34-.07-.51v-.57h-4.43v17.6c0,2.05-1.67,3.71-3.73,3.71-.6,0-1.17-.14-1.68-.4.68.89,1.76,1.47,2.97,1.47,2.05,0,3.72-1.66,3.73-3.71V15.53h3.21ZM21.4,24.98v-1c-.37-.05-.74-.08-1.12-.08-4.5,0-8.15,3.65-8.15,8.14,0,2.82,1.43,5.3,3.61,6.77-1.44-1.47-2.32-3.48-2.32-5.69,0-4.44,3.55-8.05,7.98-8.14h0Z"/>
    </g>
  </g>
</svg>