<?xml version="1.0" encoding="UTF-8"?>
<svg xmlns="http://www.w3.org/2000/svg" xmlns:xlink="http://www.w3.org/1999/xlink" viewBox="0 0 173.41 51.28">
  <defs>
    <style>
      .cls-1 {
        fill: url(#linear-gradient-3);
      }

      .cls-1, .cls-2 {
        opacity: .3;
      }

      .cls-1, .cls-2, .cls-3 {
        mix-blend-mode: overlay;
      }

      .cls-4 {
        font-family: Barlow-SemiBold, Barlow;
        font-size: 16.4px;
        font-weight: 600;
      }

      .cls-4, .cls-5, .cls-3 {
        fill: #fff;
      }

      .cls-5, .cls-6, .cls-7 {
        fill-rule: evenodd;
      }

      .cls-2 {
        fill: url(#linear-gradient-2);
      }

      .cls-8 {
        isolation: isolate;
      }

      .cls-6 {
        fill: #69c8cf;
      }

      .cls-7 {
        fill: #ed1d52;
      }

      .cls-9 {
        letter-spacing: -.03em;
      }

      .cls-10 {
        fill: url(#linear-gradient);
      }
    </style>
    <linearGradient id="linear-gradient" x1="0" y1="25.64" x2="173.41" y2="25.64" gradientUnits="userSpaceOnUse">
      <stop offset="0" stop-color="#1e0041"/>
      <stop offset="1" stop-color="#51008e"/>
    </linearGradient>
    <linearGradient id="linear-gradient-2" x1="87.79" y1="25.64" x2="171.37" y2="25.64" gradientUnits="userSpaceOnUse">
      <stop offset="0" stop-color="#fff" stop-opacity="0"/>
      <stop offset=".09" stop-color="#fff" stop-opacity=".02"/>
      <stop offset=".22" stop-color="#fff" stop-opacity=".09"/>
      <stop offset=".36" stop-color="#fff" stop-opacity=".19"/>
      <stop offset=".51" stop-color="#fff" stop-opacity=".34"/>
      <stop offset=".68" stop-color="#fff" stop-opacity=".53"/>
      <stop offset=".85" stop-color="#fff" stop-opacity=".76"/>
      <stop offset="1" stop-color="#fff"/>
    </linearGradient>
    <linearGradient id="linear-gradient-3" x1=".06" x2="76.56" xlink:href="#linear-gradient-2"/>
  </defs>
  <g class="cls-8">
    <g id="Capa_2" data-name="Capa 2">
      <g id="OBJECTS">
        <path class="cls-10" d="M18.09,0h137.23c9.98,0,18.09,8.11,18.09,18.09v15.1c0,9.98-8.11,18.09-18.09,18.09H18.09C8.11,51.28,0,43.17,0,33.19v-15.1C0,8.11,8.11,0,18.09,0Z"/>
        <g>
          <path class="cls-7" d="M29.45,22.02c1.64,1.17,3.65,1.86,5.82,1.86v-4.17c-.41,0-.82-.04-1.22-.13v3.29c-2.17,0-4.18-.69-5.82-1.86v8.52c0,4.26-3.46,7.71-7.72,7.71-1.59,0-3.07-.48-4.3-1.3,1.4,1.43,3.36,2.32,5.52,2.32,4.26,0,7.72-3.45,7.72-7.72v-8.52h0ZM30.96,17.81c-.84-.91-1.39-2.1-1.51-3.41v-.54h-1.16c.29,1.66,1.29,3.08,2.66,3.94h0ZM18.91,32.66c-.47-.61-.72-1.37-.72-2.14,0-1.95,1.58-3.53,3.53-3.53.36,0,.72.06,1.07.17v-4.27c-.4-.06-.81-.08-1.22-.07v3.32c-.35-.11-.71-.17-1.07-.17-1.95,0-3.53,1.58-3.53,3.53,0,1.38.79,2.57,1.94,3.15Z"/>
          <path class="cls-5" d="M28.23,21c1.64,1.17,3.65,1.86,5.82,1.86v-3.29c-1.21-.26-2.28-.89-3.09-1.77-1.38-.86-2.37-2.28-2.66-3.94h-3.04v16.67c0,1.94-1.59,3.52-3.53,3.52-1.15,0-2.16-.54-2.81-1.39-1.15-.58-1.94-1.78-1.94-3.15,0-1.95,1.58-3.53,3.53-3.53.37,0,.73.06,1.07.17v-3.32c-4.19.09-7.56,3.51-7.56,7.71,0,2.1.84,4,2.2,5.4,1.23.83,2.7,1.31,4.3,1.31,4.26,0,7.72-3.46,7.72-7.72v-8.52Z"/>
          <path class="cls-6" d="M34.05,19.58v-.89c-1.09,0-2.16-.31-3.09-.88.82.9,1.9,1.52,3.09,1.77ZM28.29,13.87c-.03-.16-.05-.32-.06-.48v-.54h-4.2v16.67c0,1.94-1.59,3.52-3.53,3.52-.57,0-1.11-.13-1.59-.38.65.85,1.66,1.39,2.81,1.39,1.95,0,3.53-1.57,3.53-3.52V13.87h3.04ZM21.57,22.82v-.95c-.35-.05-.71-.07-1.06-.07-4.27,0-7.72,3.45-7.72,7.72,0,2.67,1.36,5.03,3.42,6.41-1.36-1.39-2.2-3.3-2.2-5.4,0-4.21,3.37-7.62,7.56-7.71h0Z"/>
        </g>
        <path class="cls-3" d="M49.45,41.58c0,.1-.08.19-.19.19h0c-.1,0-.19-.08-.19-.19V9.7c0-.1.08-.19.19-.19h0c.1,0,.19.08.19.19v31.88Z"/>
        <text class="cls-4" transform="translate(55.67 31.04)"><tspan x="0" y="0">TIK</tspan><tspan class="cls-9" x="23.96" y="0">T</tspan><tspan x="32.88" y="0">OK USER</tspan></text>
        <path class="cls-2" d="M129.86,51.28h-42.07L139.06,0h16.26c6.98,0,13.03,3.97,16.05,9.77l-41.5,41.5Z"/>
        <path class="cls-1" d="M34.49,0L.06,34.43c.64,9.39,8.47,16.85,18.03,16.85h7.2L76.56,0h-42.07Z"/>
      </g>
    </g>
  </g>
</svg>