<?xml version="1.0" encoding="UTF-8"?>
<svg id="Capa_2" data-name="Capa 2" xmlns="http://www.w3.org/2000/svg" viewBox="0 0 37.32 58.46">
  <g id="Capa_1-2" data-name="Capa 1">
    <g>
      <path d="M37.32,43.66h-12.99v-3.57c-1.29,1.3-2.87,2.29-4.71,2.99-1.85.7-3.66,1.05-5.43,1.05-4.02,0-7.29-1.24-9.83-3.72-1.69-1.69-2.84-3.53-3.45-5.53-.61-1.99-.91-4.31-.91-6.95V0h13.31v26.15c0,2.19.57,3.74,1.72,4.64,1.15.9,2.36,1.35,3.62,1.35s2.48-.44,3.63-1.33c1.15-.89,1.72-2.44,1.72-4.66V0h13.31v43.66Z"/>
      <path d="M31.39,49.3H5.93c-2.16,0-3.91,1.87-3.91,4.18v.81c0,2.31,1.75,4.18,3.91,4.18h25.45c2.16,0,3.91-1.87,3.91-4.18v-.81c0-2.31-1.75-4.18-3.91-4.18Z"/>
    </g>
  </g>
</svg>