<?xml version="1.0" encoding="UTF-8"?>
<svg id="Capa_1" data-name="Capa 1" xmlns="http://www.w3.org/2000/svg" viewBox="0 0 358.32 229.17">
  <rect x="0" width="358.32" height="229.17" fill="none"/>
  <g>
    <polygon points="179.18 138.53 174.83 149.04 119.04 149.04 123.39 138.53 179.18 138.53" fill="#fff"/>
    <path d="M119.06,138.53l-4.35,10.51h-50.34c-2.9,0-5.25-2.36-5.25-5.26s2.35-5.25,5.25-5.25h54.69Z" fill="#fff"/>
    <polygon points="239.14 138.53 234.79 149.04 179.16 149.04 183.51 138.53 239.14 138.53" fill="#fff"/>
    <path d="M299.2,143.78c0,2.9-2.35,5.26-5.25,5.26h-54.82l4.35-10.51h50.47c2.9,0,5.25,2.35,5.25,5.25Z" fill="#fff"/>
  </g>
  <g>
    <path d="M59.77,58.83h13.43v40.83c0,9.44,6.38,16.49,15.96,16.49s16.62-7.05,16.62-17.02v-40.3h13.43v67.83h-13.43v-7.58c-4.65,5.59-11.84,8.91-19.95,8.91-15.56,0-26.07-11.3-26.07-25.8v-43.36Z" fill="#fff"/>
    <path d="M126.47,105.49l12.9.03c1.58,7.72,8.22,11.72,16.6,11.74,7.31.02,11.84-3.43,11.86-8.62,0-4.12-2.91-7.05-9.29-8.8l-12.5-3.09c-12.1-3.08-18.33-9.48-18.31-19.19.03-12.37,10.02-20.33,23.72-20.3,15.83.03,26.18,9.76,28.02,22.54l-12.9-.03c-1.58-7.72-8.35-11.72-15.27-11.74-6.52-.01-10.38,3.44-10.39,8.22,0,4.26,3.31,7.19,9.69,8.8l11.7,3.08c12.5,3.22,18.73,9.75,18.71,19.46-.02,11.7-9.75,20.46-24.91,20.43-16.49-.03-27.24-9.63-29.61-22.54Z" fill="#fff"/>
    <path d="M293.6,70.8c-8.78,0-15.16,6.78-15.16,17.29v38.57h-13.43V58.83h13.3v8.38c3.32-5.45,8.78-8.91,16.23-8.91h4.65v12.5h-5.59Z" fill="#fff"/>
    <path d="M244.28,107.18c-2.58,3.45-6,5.89-9.36,7.52-2.79,1.36-5.52,2.16-8.68,2.35-4.58.37-9.01-.67-13.26-2.99-4.26-2.33-7.45-5.78-9.42-9.78l54.2-15.85c-.27-3.59-1.11-7.08-2.5-10.35-2.83-6.65-7.91-12.38-15.02-16.27-17.39-9.52-38.29-2.62-47.49,14.19-3.84,7.01-5.15,14.5-4.22,21.6.45,3.54,1.47,6.97,3,10.21.44.93.92,1.84,1.45,2.73,3.25,5.56,8.19,9.96,14.46,13.4,2.9,1.59,8.1,4.08,17.58,4.09,5.26,0,10.42-.75,14.99-2.76,5.55-2.44,10.25-5.94,13.98-10.88l-9.69-7.2ZM201.2,93.89s.28-21.77,21.05-24.38c10.55-1.33,18.51,5.97,21.05,12.07l-42.1,12.31Z" fill="#fff"/>
    <g>
      <polygon points="106.67 160.61 109.76 160.61 109.76 169.1 111.55 169.1 111.55 160.61 114.64 160.61 114.64 159.09 106.67 159.09 106.67 160.61" fill="#fff"/>
      <path d="M120.5,165.99c0,.37-.07.68-.21.94-.14.26-.32.46-.56.59-.24.13-.51.2-.82.2-.46,0-.81-.14-1.07-.42-.26-.28-.39-.68-.39-1.19v-4.42h-1.73v4.69c0,.6.11,1.12.32,1.54.21.42.51.74.9.96.38.22.83.33,1.34.33.6,0,1.11-.16,1.52-.49.31-.25.57-.59.76-1.02v1.4h1.67v-7.41h-1.74v4.31Z" fill="#fff"/>
      <path d="M133.23,164.87l-1.28-.27c-.36-.08-.63-.19-.79-.33s-.25-.32-.25-.54c0-.25.12-.46.36-.62.24-.16.55-.25.92-.25.4,0,.71.09.94.28.23.19.38.42.44.69l1.56-.23c-.08-.41-.25-.77-.5-1.07-.25-.3-.59-.54-1-.71-.41-.17-.91-.25-1.47-.25s-1.12.09-1.56.28c-.45.19-.8.45-1.05.79-.25.34-.38.73-.38,1.19,0,.55.17.99.52,1.34.35.35.88.6,1.58.75l1.26.27c.33.07.58.18.75.32s.25.32.25.53c0,.25-.12.46-.37.63-.25.17-.59.25-1.01.25s-.76-.09-1.02-.27c-.26-.18-.43-.46-.52-.82l-1.64.24c.08.47.26.86.54,1.18.28.32.65.57,1.09.74.45.17.96.25,1.53.25.62,0,1.17-.1,1.65-.3.48-.2.85-.48,1.12-.83.27-.35.41-.77.41-1.24,0-.52-.17-.95-.51-1.28-.34-.33-.87-.57-1.57-.73Z" fill="#fff"/>
      <path d="M142.79,162.06c-.53-.32-1.16-.48-1.89-.48s-1.35.16-1.88.48-.95.77-1.24,1.35c-.29.58-.44,1.25-.44,2.01s.15,1.44.44,2.01c.29.58.71,1.02,1.24,1.34.53.32,1.16.48,1.88.48s1.35-.16,1.89-.48c.53-.32.95-.77,1.24-1.34s.44-1.25.44-2.01-.15-1.44-.44-2.01-.71-1.03-1.24-1.35ZM142.5,166.65c-.14.36-.34.65-.61.87-.27.21-.6.32-1,.32s-.73-.11-.99-.32c-.27-.21-.47-.5-.6-.87s-.2-.78-.2-1.23.07-.88.2-1.25.34-.65.6-.86.6-.32.99-.32.73.11,1,.32.47.5.61.86c.14.36.2.78.2,1.25s-.07.87-.2,1.23Z" fill="#fff"/>
      <path d="M151.5,167.05c-.09.17-.2.31-.34.42s-.29.2-.47.27c-.18.06-.37.09-.59.09-.4,0-.73-.1-1-.32-.27-.21-.47-.5-.6-.86-.14-.36-.2-.78-.2-1.24s.07-.89.2-1.25c.14-.36.34-.65.6-.86s.6-.32,1-.32c.21,0,.41.03.58.09.17.06.33.15.46.26.13.11.24.25.34.4.09.16.16.33.2.52l1.65-.26c-.07-.37-.2-.71-.39-1.01s-.42-.56-.7-.77c-.28-.21-.6-.37-.97-.49-.36-.11-.76-.17-1.18-.17-.72,0-1.35.16-1.88.48-.53.32-.95.77-1.24,1.35-.29.58-.44,1.25-.44,2.01s.15,1.43.44,2.01c.29.58.71,1.03,1.24,1.35.53.32,1.16.48,1.88.48.43,0,.83-.06,1.19-.17s.69-.28.97-.5c.28-.22.52-.48.7-.78.19-.3.32-.64.38-1.02l-1.64-.27c-.04.2-.11.39-.2.55Z" fill="#fff"/>
      <path d="M156.53,158.71c-.28,0-.52.09-.72.27-.2.18-.3.41-.3.68s.1.49.3.68.44.28.72.28.52-.09.72-.28.3-.41.3-.68-.1-.49-.3-.68c-.2-.18-.44-.27-.72-.27Z" fill="#fff"/>
      <rect x="155.67" y="161.68" width="1.73" height="7.41" fill="#fff"/>
      <path d="M165.25,162.06c-.53-.32-1.16-.48-1.89-.48s-1.35.16-1.88.48-.95.77-1.24,1.35c-.29.58-.44,1.25-.44,2.01s.15,1.44.44,2.01c.29.58.71,1.02,1.24,1.34.53.32,1.16.48,1.88.48s1.35-.16,1.89-.48c.53-.32.95-.77,1.24-1.34s.44-1.25.44-2.01-.15-1.44-.44-2.01-.71-1.03-1.24-1.35ZM164.97,166.65c-.14.36-.34.65-.61.87-.27.21-.6.32-1,.32s-.73-.11-.99-.32c-.27-.21-.47-.5-.6-.87s-.2-.78-.2-1.23.07-.88.2-1.25.34-.65.6-.86.6-.32.99-.32.73.11,1,.32.47.5.61.86c.14.36.2.78.2,1.25s-.07.87-.2,1.23Z" fill="#fff"/>
      <path d="M179.2,162.03c-.46-.3-.99-.45-1.57-.45-.42,0-.76.07-1.04.2-.28.13-.51.3-.69.5-.18.2-.32.4-.42.59h-.09v-1.19h-1.7v10.22h1.73v-3.97h.07c.1.2.24.4.42.6s.41.37.69.5.62.2,1.02.2c.6,0,1.13-.15,1.6-.46.47-.31.83-.75,1.09-1.32.26-.57.4-1.26.4-2.06s-.14-1.51-.41-2.07c-.27-.57-.64-1-1.1-1.3ZM178.73,166.65c-.14.36-.34.65-.6.85-.26.2-.59.31-.97.31s-.7-.1-.97-.3c-.27-.2-.47-.48-.61-.84-.14-.36-.21-.78-.21-1.26s.07-.9.21-1.26c.14-.36.34-.64.61-.83.27-.2.59-.3.97-.3s.71.1.97.3c.26.2.46.48.6.84.14.36.2.77.2,1.25s-.07.89-.21,1.25Z" fill="#fff"/>
      <path d="M186.72,161.59c-.44,0-.82.11-1.14.34-.32.23-.55.56-.68.99h-.07v-1.23h-1.68v7.41h1.73v-4.32c0-.34.07-.63.21-.87.14-.24.34-.43.59-.57.25-.13.53-.2.84-.2.16,0,.31,0,.47.03.16.02.27.04.35.05v-1.58c-.08-.01-.18-.02-.29-.03s-.22-.01-.33-.01Z" fill="#fff"/>
      <path d="M194.51,162.06c-.53-.32-1.16-.48-1.89-.48s-1.35.16-1.88.48-.95.77-1.24,1.35c-.29.58-.44,1.25-.44,2.01s.15,1.44.44,2.01c.29.58.71,1.02,1.24,1.34.53.32,1.16.48,1.88.48s1.35-.16,1.89-.48c.53-.32.95-.77,1.24-1.34s.44-1.25.44-2.01-.15-1.44-.44-2.01-.71-1.03-1.24-1.35ZM194.22,166.65c-.14.36-.34.65-.61.87-.27.21-.6.32-1,.32s-.73-.11-.99-.32c-.27-.21-.47-.5-.6-.87s-.2-.78-.2-1.23.07-.88.2-1.25.34-.65.6-.86.6-.32.99-.32.73.11,1,.32.47.5.61.86c.14.36.2.78.2,1.25s-.07.87-.2,1.23Z" fill="#fff"/>
      <path d="M203.58,162.87h-.06c-.1-.2-.24-.4-.42-.59-.18-.2-.41-.37-.69-.5s-.63-.2-1.04-.2c-.58,0-1.11.15-1.57.45s-.83.73-1.1,1.3c-.27.57-.41,1.26-.41,2.07s.13,1.49.4,2.06c.27.57.63,1.01,1.1,1.32.47.31,1,.46,1.59.46.41,0,.75-.07,1.03-.2s.51-.3.69-.5.32-.4.43-.61h.09v1.17h1.7v-10h-1.73v3.78ZM203.41,166.66c-.14.36-.34.64-.61.84-.27.2-.59.3-.97.3s-.7-.1-.96-.31-.47-.49-.6-.85c-.14-.36-.21-.78-.21-1.25s.07-.89.21-1.25c.14-.36.34-.64.6-.84.26-.2.59-.3.97-.3s.7.1.97.3.47.47.61.83c.14.36.21.78.21,1.26s-.07.9-.21,1.26Z" fill="#fff"/>
      <path d="M212.84,165.99c0,.37-.07.68-.21.94-.14.26-.32.46-.56.59-.24.13-.51.2-.82.2-.46,0-.81-.14-1.07-.42-.26-.28-.39-.68-.39-1.19v-4.42h-1.73v4.69c0,.6.11,1.12.32,1.54.21.42.51.74.9.96.38.22.83.33,1.34.33.6,0,1.11-.16,1.52-.49.31-.25.57-.59.76-1.02v1.4h1.67v-7.41h-1.74v4.31Z" fill="#fff"/>
      <path d="M221.97,167.05c-.09.17-.2.31-.34.42s-.29.2-.47.27c-.18.06-.37.09-.59.09-.4,0-.73-.1-1-.32-.27-.21-.47-.5-.6-.86-.14-.36-.2-.78-.2-1.24s.07-.89.2-1.25c.14-.36.34-.65.6-.86s.6-.32,1-.32c.21,0,.41.03.58.09.17.06.33.15.46.26.13.11.24.25.34.4.09.16.16.33.2.52l1.65-.26c-.07-.37-.2-.71-.39-1.01s-.42-.56-.7-.77c-.28-.21-.6-.37-.97-.49-.36-.11-.76-.17-1.18-.17-.72,0-1.35.16-1.88.48-.53.32-.95.77-1.24,1.35-.29.58-.44,1.25-.44,2.01s.15,1.43.44,2.01c.29.58.71,1.03,1.24,1.35.53.32,1.16.48,1.88.48.43,0,.83-.06,1.19-.17s.69-.28.97-.5c.28-.22.52-.48.7-.78.19-.3.32-.64.38-1.02l-1.64-.27c-.04.2-.11.39-.2.55Z" fill="#fff"/>
      <path d="M229.45,167.74c-.13.01-.24.02-.33.02-.27,0-.46-.06-.57-.18-.11-.12-.17-.31-.17-.58v-3.95h1.45v-1.36h-1.45v-1.82h-1.73v1.82h-1.11v1.36h1.11v4.12c0,.65.19,1.15.56,1.49.38.34.92.52,1.64.52.19,0,.38-.01.58-.03.2-.02.38-.05.56-.1l-.21-1.35c-.08.01-.19.03-.32.04Z" fill="#fff"/>
      <path d="M232.94,158.71c-.28,0-.52.09-.72.27-.2.18-.3.41-.3.68s.1.49.3.68.44.28.72.28.52-.09.72-.28.3-.41.3-.68-.1-.49-.3-.68c-.2-.18-.44-.27-.72-.27Z" fill="#fff"/>
      <rect x="232.08" y="161.68" width="1.73" height="7.41" fill="#fff"/>
      <path d="M240.17,165.68c-.15.46-.28.92-.39,1.39-.05.19-.09.38-.14.56-.05-.19-.1-.38-.14-.57-.12-.47-.25-.93-.4-1.38l-1.36-3.99h-1.85l2.77,7.41h1.93l2.77-7.41h-1.83l-1.35,3.99Z" fill="#fff"/>
      <path d="M251.47,163.4c-.29-.58-.71-1.03-1.24-1.35s-1.16-.48-1.89-.48-1.35.16-1.88.48-.95.77-1.24,1.35c-.29.58-.44,1.25-.44,2.01s.15,1.44.44,2.01c.29.58.71,1.02,1.24,1.34.53.32,1.16.48,1.88.48s1.35-.16,1.89-.48c.53-.32.95-.77,1.24-1.34s.44-1.25.44-2.01-.15-1.44-.44-2.01ZM249.95,166.65c-.14.36-.34.65-.61.87-.27.21-.6.32-1,.32s-.73-.11-.99-.32c-.27-.21-.47-.5-.6-.87s-.2-.78-.2-1.23.07-.88.2-1.25.34-.65.6-.86.6-.32.99-.32.73.11,1,.32.47.5.61.86c.14.36.2.78.2,1.25s-.07.87-.2,1.23Z" fill="#fff"/>
    </g>
  </g>
</svg>