<?xml version="1.0" encoding="UTF-8"?>
<svg id="Capa_1" xmlns="http://www.w3.org/2000/svg" version="1.1" viewBox="0 0 294.2 112.5">
  <!-- Generator: Adobe Illustrator 29.0.0, SVG Export Plug-In . SVG Version: 2.1.0 Build 186)  -->
  <defs>
    <style>
      .st0 {
        fill: #22a9ff;
      }

      .st1 {
        fill: #fff;
      }

      .st2 {
        fill: #f09;
      }

      .st3 {
        fill: #ff0;
      }
    </style>
  </defs>
  <g>
    <polygon class="st2" points="149.3 91.6 144.9 102.1 84.9 102.1 89.3 91.6 149.3 91.6"/>
    <polygon class="st3" points="209.3 91.6 205 102.1 144.9 102.1 149.3 91.6 209.3 91.6"/>
    <path class="st1" d="M267.1,96.9c0,2.9-2.4,5.2-5.2,5.2h-56.9l4.4-10.5h52.6c2.9,0,5.2,2.4,5.2,5.2Z"/>
    <path class="st0" d="M89.3,91.6l-4.3,10.5h-52.6c-2.9,0-5.2-2.4-5.2-5.2s2.3-5.2,5.2-5.2h56.9Z"/>
  </g>
  <g>
    <path class="st1" d="M27.7,11.9h13.4v40.8c0,9.4,6.4,16.5,16,16.5s16.6-7.1,16.6-17V11.9h13.4v67.8h-13.4v-7.6c-4.7,5.6-11.8,8.9-19.9,8.9-15.6,0-26.1-11.3-26.1-25.8V11.9h0Z"/>
    <path class="st1" d="M94.4,58.6h12.9c1.6,7.8,8.2,11.8,16.6,11.8,7.3,0,11.8-3.4,11.9-8.6,0-4.1-2.9-7.1-9.3-8.8l-12.5-3.1c-12.1-3.1-18.3-9.5-18.3-19.2,0-12.4,10-20.3,23.7-20.3,15.8,0,26.2,9.8,28,22.5h-12.9c-1.6-7.8-8.4-11.8-15.3-11.8-6.5,0-10.4,3.4-10.4,8.2,0,4.3,3.3,7.2,9.7,8.8l11.7,3.1c12.5,3.2,18.7,9.8,18.7,19.5,0,11.7-9.8,20.5-24.9,20.4-16.5,0-27.2-9.6-29.6-22.5h0Z"/>
    <path class="st1" d="M261.6,23.9c-8.8,0-15.2,6.8-15.2,17.3v38.6h-13.4V11.9h13.3v8.4c3.3-5.5,8.8-8.9,16.2-8.9h4.6v12.5h-5.6Z"/>
    <path class="st1" d="M212.2,60.3c-2.6,3.4-6,5.9-9.4,7.5-2.8,1.4-5.5,2.2-8.7,2.3-4.6.4-9-.7-13.3-3-4.3-2.3-7.4-5.8-9.4-9.8l54.2-15.8c-.3-3.6-1.1-7.1-2.5-10.3-2.8-6.7-7.9-12.4-15-16.3-17.4-9.5-38.3-2.6-47.5,14.2-3.8,7-5.1,14.5-4.2,21.6.4,3.5,1.5,7,3,10.2.4.9.9,1.8,1.4,2.7,3.2,5.6,8.2,10,14.5,13.4,2.9,1.6,8.1,4.1,17.6,4.1,5.3,0,10.4-.8,15-2.8,5.6-2.4,10.2-5.9,14-10.9l-9.7-7.2h0ZM169.2,47s.3-21.8,21.1-24.4c10.6-1.3,18.5,6,21.1,12.1l-42.1,12.3h0Z"/>
  </g>
</svg>