<?xml version="1.0" encoding="UTF-8"?>
<svg id="Capa_2" data-name="Capa 2" xmlns="http://www.w3.org/2000/svg" viewBox="0 0 25.19 29.79">
  <defs>
    <style>
      .cls-1 {
        fill: #fff;
      }
    </style>
  </defs>
  <g id="Capa_1-2" data-name="Capa 1">
    <path class="cls-1" d="M25.19,29.47h-8.77v-2.41c-.87.87-1.93,1.55-3.18,2.02-1.25.47-2.47.71-3.66.71-2.71,0-4.92-.84-6.63-2.51-1.14-1.14-1.92-2.38-2.33-3.73-.41-1.35-.61-2.91-.61-4.69V0h8.98v17.65c0,1.48.39,2.52,1.16,3.13.78.61,1.59.91,2.45.91s1.67-.3,2.45-.89c.78-.6,1.16-1.65,1.16-3.14V0h8.98v29.47Z"/>
  </g>
</svg>