<?xml version="1.0" encoding="UTF-8"?>
<svg id="Capa_2" data-name="Capa 2" xmlns="http://www.w3.org/2000/svg" viewBox="0 0 42.85 57.46">
  <defs>
    <style>
      .cls-1 {
        fill: #eb008b;
      }

      .cls-2 {
        fill: #ffef20;
      }

      .cls-3 {
        fill: #fff;
      }

      .cls-4 {
        fill: #00adee;
      }
    </style>
  </defs>
  <g id="Capa_1-2" data-name="Capa 1">
    <g>
      <path class="cls-3" d="M40.08,43.66h-12.99v-3.57c-1.29,1.3-2.87,2.29-4.71,2.99-1.85.7-3.66,1.05-5.43,1.05-4.02,0-7.29-1.24-9.83-3.72-1.69-1.69-2.84-3.53-3.45-5.53-.61-1.99-.91-4.31-.91-6.95V0h13.31v26.15c0,2.19.57,3.74,1.72,4.64,1.15.9,2.36,1.35,3.62,1.35s2.48-.44,3.63-1.33c1.15-.89,1.72-2.44,1.72-4.66V0h13.31v43.66Z"/>
      <g>
        <path class="cls-4" d="M5.04,48.3c-2.78,0-5.04,1.87-5.04,4.18v.81c0,2.31,2.26,4.18,5.04,4.18h6.02v-9.16h-6.02Z"/>
        <rect class="cls-1" x="11.06" y="48.3" width="10.37" height="9.16"/>
        <rect class="cls-2" x="21.43" y="48.3" width="10.32" height="9.16"/>
        <path class="cls-3" d="M37.81,57.46c2.78,0,5.04-1.87,5.04-4.18v-.81c0-2.31-2.26-4.18-5.04-4.18h-6.06v9.16h6.06Z"/>
      </g>
    </g>
  </g>
</svg>