<?xml version="1.0" encoding="UTF-8"?>
<svg id="Capa_2" data-name="Capa 2" xmlns="http://www.w3.org/2000/svg" viewBox="0 0 25.19 42.16">
  <defs>
    <style>
      .cls-1 {
        fill: #eb008b;
      }

      .cls-2 {
        fill: #ffef20;
      }

      .cls-3 {
        fill: #fff;
      }

      .cls-4 {
        fill: #00adee;
      }
    </style>
  </defs>
  <g id="Capa_1-2" data-name="Capa 1">
    <g>
      <path class="cls-3" d="M25.19,29.47h-8.77v-2.41c-.87.87-1.93,1.55-3.18,2.02-1.25.47-2.47.71-3.66.71-2.71,0-4.92-.84-6.63-2.51-1.14-1.14-1.92-2.38-2.33-3.73-.41-1.35-.61-2.91-.61-4.69V0h8.98v17.65c0,1.48.39,2.52,1.16,3.13.78.61,1.59.91,2.45.91s1.67-.3,2.45-.89c.78-.6,1.16-1.65,1.16-3.14V0h8.98v29.47Z"/>
      <g>
        <path class="cls-4" d="M3.43,35.97c-1.6,0-2.9,1.26-2.9,2.82v.54c0,1.56,1.3,2.82,2.9,2.82h3.46v-6.18h-3.46Z"/>
        <rect class="cls-1" x="6.89" y="35.97" width="5.97" height="6.18"/>
        <rect class="cls-2" x="12.86" y="35.97" width="5.94" height="6.18"/>
        <path class="cls-3" d="M22.29,42.16c1.6,0,2.9-1.26,2.9-2.82v-.55c0-1.56-1.3-2.82-2.9-2.82h-3.48v6.18h3.48Z"/>
      </g>
    </g>
  </g>
</svg>