<?xml version="1.0" encoding="UTF-8"?>
<svg id="Capa_2" data-name="Capa 2" xmlns="http://www.w3.org/2000/svg" viewBox="0 0 101.36 50.64">
  <defs>
    <style>
      .cls-1 {
        fill: #eb008b;
      }

      .cls-2 {
        fill: #ffef20;
      }

      .cls-3 {
        fill: #00adee;
      }
    </style>
  </defs>
  <g id="Capa_1-2" data-name="Capa 1">
    <g>
      <g>
        <path d="M23.33,26.52h-7.81v-2.14c-.78.78-1.72,1.38-2.83,1.8-1.11.42-2.2.63-3.26.63-2.41,0-4.38-.75-5.91-2.24-1.02-1.02-1.71-2.12-2.07-3.32-.37-1.2-.55-2.59-.55-4.18V.29h8v15.71c0,1.32.35,2.25,1.04,2.79.69.54,1.42.81,2.18.81s1.49-.27,2.18-.8c.69-.53,1.04-1.46,1.04-2.8V.29h8v26.24Z"/>
        <path d="M49.62,17.95c0,1.98-.51,3.64-1.52,4.97-1.02,1.33-2.38,2.31-4.1,2.94-1.71.64-3.63.95-5.74.95-1.62,0-3.03-.08-4.23-.23-1.2-.15-2.41-.5-3.64-1.04-1.23-.54-2.42-1.38-3.56-2.53l5.19-5.2c1.46,1.48,3.59,2.21,6.38,2.21.78,0,1.54-.13,2.29-.4.75-.27,1.12-.7,1.12-1.31,0-1-.64-1.56-1.9-1.66l-4.05-.38c-1.52-.14-2.86-.5-4.01-1.06-1.15-.56-2.04-1.38-2.65-2.45-.62-1.07-.93-2.44-.93-4.1,0-1.38.29-2.63.87-3.73.58-1.11,1.35-2.02,2.32-2.74.97-.71,2.08-1.25,3.32-1.63,1.25-.37,2.55-.56,3.92-.56,2.33,0,4.33.23,6,.69,1.67.46,3.11,1.3,4.33,2.52l-4.93,4.93c-1.05-1.05-2.9-1.57-5.55-1.57-.87,0-1.52.16-1.95.48-.43.32-.64.67-.64,1.04,0,.84.57,1.32,1.71,1.45l4.05.4c1.79.16,3.28.6,4.45,1.33,1.17.72,2.04,1.65,2.61,2.8.56,1.14.85,2.44.85,3.88"/>
        <path d="M76.33,16.02h-15.69c0,1.13.42,2.09,1.25,2.87.83.79,1.96,1.18,3.37,1.18,1.33,0,2.38-.17,3.13-.52.75-.35,1.51-.9,2.27-1.65l4.79,4.75c-1.44,1.45-2.91,2.51-4.4,3.17-1.49.66-3.42.99-5.79.99-8.32,0-12.48-4.47-12.48-13.4,0-4.21,1.08-7.49,3.25-9.86C58.2,1.18,61.03,0,64.52,0c2.46,0,4.58.55,6.37,1.65,1.79,1.1,3.14,2.58,4.06,4.46.92,1.88,1.38,3.99,1.38,6.34v3.58ZM68.43,10.67c0-.78-.14-1.46-.43-2.05-.25-.59-.68-1.08-1.27-1.46-.59-.39-1.33-.58-2.2-.58s-1.61.19-2.2.58c-.6.39-1.01.88-1.25,1.46-.28.59-.43,1.27-.43,2.05h7.79Z"/>
        <path d="M101.36,2.43l-6.05,6.14c-.44-.44-.87-.78-1.29-1.01-.41-.23-.94-.35-1.6-.35-.75,0-1.47.27-2.17.82-.7.55-1.05,1.48-1.05,2.8v15.69h-8V.29h7.81v2.14c.67-.67,1.54-1.24,2.63-1.71C92.74.24,93.93,0,95.21,0s2.43.18,3.38.55c.95.36,1.87.99,2.76,1.88"/>
        <path class="cls-3" d="M23.76,38.53H2.51c-1.39,0-2.51-1.12-2.51-2.51v-.48c0-1.39,1.12-2.51,2.51-2.51h21.25v5.51Z"/>
        <rect class="cls-1" x="27.37" y="33.02" width="21.95" height="5.51"/>
        <rect class="cls-2" x="52.94" y="33.02" width="21.95" height="5.51"/>
        <path d="M98.85,38.53h-20.34v-5.51h20.34c1.39,0,2.51,1.12,2.51,2.51v.48c0,1.39-1.12,2.51-2.51,2.51"/>
      </g>
      <g>
        <path d="M9.96,49.41c-.51,0-.94-.09-1.29-.27-.36-.18-.63-.46-.82-.84-.19-.38-.28-.87-.28-1.46,0-.87.21-1.52.63-1.94.42-.42,1.01-.63,1.76-.63.42,0,.79.07,1.12.21.33.14.59.35.78.63.19.28.29.63.29,1.06h-.83c0-.27-.06-.49-.17-.67-.11-.18-.27-.31-.47-.41-.21-.09-.44-.14-.71-.14-.34,0-.62.07-.86.2-.23.13-.41.33-.53.6-.12.27-.18.6-.18,1.01v.16c0,.41.06.75.18,1.01.12.27.29.46.52.59.23.13.52.19.86.19.28,0,.52-.04.73-.13.21-.09.37-.22.48-.4s.17-.4.17-.67h.8c0,.43-.1.79-.29,1.07-.19.28-.45.49-.78.62-.33.14-.71.2-1.13.2Z"/>
        <path d="M14.48,49.41c-.39,0-.72-.07-.98-.21-.26-.14-.46-.36-.6-.66-.14-.29-.2-.67-.2-1.12s.07-.83.2-1.13.34-.51.6-.65c.27-.14.6-.21.99-.21.36,0,.67.07.91.21.24.14.43.35.55.63.13.28.19.63.19,1.06v.29h-2.67c0,.27.05.5.12.68.07.18.18.31.33.4.15.08.33.13.56.13.14,0,.27-.02.38-.05.11-.04.21-.09.28-.16.08-.07.14-.15.18-.25s.07-.21.07-.34h.74c0,.23-.04.43-.12.6-.08.17-.19.32-.34.44-.15.12-.32.21-.52.27s-.43.09-.67.09ZM13.48,47.06h1.87c0-.19-.02-.35-.06-.47-.04-.13-.1-.23-.18-.32-.08-.08-.17-.14-.28-.18-.11-.04-.23-.05-.36-.05-.2,0-.38.04-.52.11s-.25.19-.33.34-.13.34-.14.58Z"/>
        <path d="M16.85,49.33v-3.81h.62l.07.54h.05c.09-.14.2-.26.33-.35.13-.09.26-.16.42-.21s.32-.07.5-.07c.24,0,.45.04.64.13.18.08.33.22.43.41.1.19.16.44.16.76v2.6h-.75v-2.49c0-.14-.02-.27-.05-.36-.04-.1-.09-.17-.16-.23-.07-.06-.15-.1-.24-.12s-.19-.04-.3-.04c-.17,0-.33.04-.47.13s-.26.2-.34.35c-.09.15-.13.33-.13.53v2.23h-.75Z"/>
        <path d="M21.88,49.41c-.22,0-.39-.04-.51-.13-.12-.08-.21-.19-.26-.33-.05-.13-.08-.27-.08-.42v-2.4h-.48v-.62h.49l.14-1.07h.6v1.07h.69v.62h-.69v2.31c0,.11.02.2.07.25.05.06.13.09.24.09h.38v.51s-.11.04-.18.05c-.07.02-.14.03-.21.04-.07.01-.14.02-.2.02Z"/>
        <path d="M23.08,49.33v-3.81h.62l.07.62h.04c.04-.12.1-.23.17-.34s.16-.19.28-.26.25-.1.42-.1c.08,0,.15,0,.21.02s.11.03.14.04v.71h-.25c-.15,0-.29.02-.41.07-.12.05-.22.12-.3.21-.08.09-.14.21-.17.34-.04.14-.05.29-.05.46v2.04h-.75Z"/>
        <path d="M27.14,49.41c-.4,0-.73-.07-1-.21-.27-.14-.48-.36-.62-.66-.14-.29-.21-.67-.21-1.12s.07-.83.21-1.13.34-.51.62-.65c.27-.14.61-.21,1-.21s.74.07,1.01.21c.27.14.47.36.61.65.14.29.21.67.21,1.13s-.07.83-.21,1.12c-.14.29-.34.51-.61.66-.27.14-.61.21-1.01.21ZM27.14,48.79c.24,0,.44-.05.59-.14.15-.09.27-.24.34-.43.07-.19.11-.44.11-.73v-.13c0-.29-.04-.54-.11-.73-.07-.19-.19-.34-.34-.43-.15-.09-.35-.14-.59-.14s-.43.05-.59.14-.27.24-.34.43c-.08.19-.11.44-.11.73v.13c0,.29.04.54.11.73.07.19.19.34.34.43s.35.14.59.14Z"/>
        <path d="M32.41,49.41c-.31,0-.58-.07-.8-.21-.23-.14-.4-.36-.53-.65-.12-.29-.18-.68-.18-1.14s.06-.83.19-1.12c.13-.29.3-.5.52-.64.22-.14.48-.21.77-.21.17,0,.33.02.47.06s.27.1.39.18.21.19.29.31h.05v-1.89h.75v5.24h-.62l-.07-.52h-.05c-.13.2-.29.36-.5.46s-.43.15-.68.15ZM32.62,48.76c.22,0,.4-.05.54-.15s.24-.24.31-.43.1-.42.1-.7v-.1c0-.23-.02-.43-.06-.59-.04-.16-.11-.3-.19-.4-.08-.1-.18-.18-.3-.23-.12-.05-.25-.07-.39-.07-.22,0-.4.05-.54.13-.14.09-.24.23-.31.42-.07.19-.1.43-.1.73v.13c0,.3.03.54.1.73.07.19.17.32.31.41s.32.13.53.13Z"/>
        <path d="M36.81,49.41c-.39,0-.72-.07-.98-.21-.26-.14-.46-.36-.6-.66-.14-.29-.2-.67-.2-1.12s.07-.83.2-1.13.34-.51.6-.65c.27-.14.6-.21.99-.21.36,0,.67.07.91.21.24.14.43.35.55.63.13.28.19.63.19,1.06v.29h-2.67c0,.27.05.5.12.68.07.18.18.31.33.4.15.08.33.13.56.13.14,0,.27-.02.38-.05.11-.04.21-.09.28-.16.08-.07.14-.15.18-.25s.07-.21.07-.34h.74c0,.23-.04.43-.12.6-.08.17-.19.32-.34.44-.15.12-.32.21-.52.27s-.43.09-.67.09ZM35.81,47.06h1.87c0-.19-.02-.35-.06-.47-.04-.13-.1-.23-.18-.32-.08-.08-.17-.14-.28-.18-.11-.04-.23-.05-.36-.05-.2,0-.38.04-.52.11s-.25.19-.33.34-.13.34-.14.58Z"/>
        <path d="M40.7,49.33v-4.97h.81v4.97h-.81Z"/>
        <path d="M42.52,49.33v-3.81h.62l.07.54h.05c.09-.14.19-.26.3-.35.11-.09.24-.16.38-.21.14-.05.3-.07.46-.07.24,0,.44.05.62.14.18.1.31.26.4.49h.05c.09-.14.19-.25.3-.34.12-.09.25-.17.39-.21s.31-.07.47-.07c.23,0,.43.04.6.12s.31.21.41.4.15.43.15.74v2.64h-.75v-2.5c0-.14-.02-.26-.05-.36-.03-.09-.08-.17-.14-.22-.06-.06-.13-.09-.21-.12-.08-.02-.17-.04-.27-.04-.16,0-.3.04-.43.13-.13.08-.23.2-.3.35-.08.15-.12.33-.12.53v2.23h-.75v-2.5c0-.14-.02-.26-.05-.36-.03-.09-.08-.17-.14-.22-.06-.06-.13-.09-.21-.12-.08-.02-.17-.04-.26-.04-.16,0-.3.04-.43.13s-.23.2-.31.35c-.08.15-.12.33-.12.53v2.23h-.75Z"/>
        <path d="M48.68,50.58v-5.06h.62l.07.52h.05c.13-.2.3-.36.5-.46s.43-.15.68-.15c.31,0,.58.07.81.21.23.14.4.36.52.65.12.29.18.68.18,1.14s-.06.83-.19,1.12c-.12.29-.3.51-.52.65s-.48.21-.77.21c-.17,0-.33-.02-.47-.06-.14-.04-.27-.1-.39-.18-.11-.08-.21-.19-.29-.31h-.04v1.72h-.75ZM50.37,48.76c.23,0,.41-.05.55-.13.14-.09.24-.23.31-.42.06-.19.1-.43.1-.72v-.13c0-.3-.03-.55-.1-.74-.07-.19-.17-.33-.31-.41s-.32-.13-.53-.13-.4.05-.54.15c-.14.1-.24.25-.31.44-.07.19-.1.43-.1.7v.1c0,.23.02.42.07.59.04.16.11.3.19.4.08.1.18.18.3.23.12.05.24.07.38.07Z"/>
        <path d="M52.81,49.33v-3.81h.62l.07.62h.04c.04-.12.1-.23.17-.34s.16-.19.28-.26.25-.1.42-.1c.08,0,.15,0,.21.02s.11.03.14.04v.71h-.25c-.15,0-.29.02-.41.07-.12.05-.22.12-.3.21-.08.09-.14.21-.17.34-.04.14-.05.29-.05.46v2.04h-.75Z"/>
        <path d="M56.83,49.41c-.39,0-.72-.07-.98-.21-.26-.14-.46-.36-.6-.66-.14-.29-.2-.67-.2-1.12s.07-.83.2-1.13.34-.51.6-.65c.27-.14.6-.21.99-.21.36,0,.67.07.91.21.24.14.43.35.55.63.13.28.19.63.19,1.06v.29h-2.67c0,.27.05.5.12.68.07.18.18.31.33.4.15.08.33.13.56.13.14,0,.27-.02.38-.05.11-.04.21-.09.28-.16.08-.07.14-.15.18-.25s.07-.21.07-.34h.74c0,.23-.04.43-.12.6-.08.17-.19.32-.34.44-.15.12-.32.21-.52.27s-.43.09-.67.09ZM55.84,47.06h1.87c0-.19-.02-.35-.06-.47-.04-.13-.1-.23-.18-.32-.08-.08-.17-.14-.28-.18-.11-.04-.23-.05-.36-.05-.2,0-.38.04-.52.11s-.25.19-.33.34-.13.34-.14.58Z"/>
        <path d="M60.61,49.41c-.27,0-.5-.03-.7-.09-.2-.06-.37-.14-.51-.24-.14-.1-.24-.22-.31-.37-.07-.14-.1-.3-.1-.47,0-.02,0-.05,0-.07,0-.02,0-.04,0-.05h.75v.08c0,.15.04.27.12.36.08.09.19.15.33.19.14.04.29.05.45.05.14,0,.28-.02.4-.05.12-.04.23-.09.3-.16.08-.07.12-.16.12-.28,0-.14-.05-.26-.15-.33-.1-.08-.23-.14-.4-.18-.16-.05-.33-.1-.51-.15-.16-.04-.32-.09-.47-.14s-.3-.12-.42-.2c-.13-.08-.23-.19-.3-.31-.08-.13-.12-.28-.12-.47,0-.18.04-.34.12-.47.08-.14.18-.25.32-.34s.3-.16.49-.21c.19-.05.4-.07.63-.07s.45.03.63.08.34.12.47.21.23.2.29.33.1.26.1.41c0,.03,0,.06,0,.09,0,.03,0,.05,0,.06h-.74v-.06c0-.1-.03-.18-.08-.26-.05-.08-.14-.14-.25-.19-.11-.05-.26-.07-.45-.07-.13,0-.24.01-.33.03s-.18.05-.24.09c-.06.04-.11.08-.14.14s-.05.11-.05.18c0,.11.04.2.12.26.08.06.18.11.32.15s.27.09.42.13c.17.05.35.1.53.15.18.05.34.11.5.19.15.08.28.18.37.32.09.14.14.32.14.54,0,.21-.04.39-.12.54-.08.15-.2.28-.34.37-.15.09-.32.16-.52.21s-.41.07-.65.07Z"/>
        <path d="M62.93,44.86v-.77h.75v.77h-.75ZM62.93,49.33v-3.81h.75v3.81h-.75Z"/>
        <path d="M66.22,49.41c-.4,0-.73-.07-1-.21-.27-.14-.48-.36-.62-.66-.14-.29-.21-.67-.21-1.12s.07-.83.21-1.13.34-.51.62-.65c.27-.14.61-.21,1-.21s.74.07,1.01.21c.27.14.47.36.61.65.14.29.21.67.21,1.13s-.07.83-.21,1.12c-.14.29-.34.51-.61.66-.27.14-.61.21-1.01.21ZM66.22,48.79c.24,0,.44-.05.59-.14.15-.09.27-.24.34-.43.07-.19.11-.44.11-.73v-.13c0-.29-.04-.54-.11-.73-.07-.19-.19-.34-.34-.43-.15-.09-.35-.14-.59-.14s-.43.05-.59.14-.27.24-.34.43c-.08.19-.11.44-.11.73v.13c0,.29.04.54.11.73.07.19.19.34.34.43s.35.14.59.14ZM65.8,45.04l.61-.96h.82v.02s-.79.94-.79.94h-.64Z"/>
        <path d="M68.75,49.33v-3.81h.62l.07.54h.05c.09-.14.2-.26.33-.35.13-.09.26-.16.42-.21s.32-.07.5-.07c.24,0,.45.04.64.13.18.08.33.22.43.41.1.19.16.44.16.76v2.6h-.75v-2.49c0-.14-.02-.27-.05-.36-.04-.1-.09-.17-.16-.23-.07-.06-.15-.1-.24-.12s-.19-.04-.3-.04c-.17,0-.33.04-.47.13s-.26.2-.34.35c-.09.15-.13.33-.13.53v2.23h-.75Z"/>
        <path d="M74.36,49.33v-4.97h1.92c.51,0,.95.09,1.31.26.36.18.64.45.84.81.2.36.29.83.29,1.41s-.1,1.04-.29,1.41c-.2.37-.48.64-.84.82-.36.18-.8.26-1.31.26h-1.92ZM75.17,48.63h1.1c.26,0,.48-.03.69-.1.2-.07.37-.17.51-.31.14-.14.24-.32.31-.53.07-.21.11-.47.11-.76v-.15c0-.3-.04-.56-.11-.77-.07-.21-.17-.39-.31-.53-.14-.14-.31-.24-.51-.31-.2-.07-.43-.1-.69-.1h-1.1v3.58Z"/>
        <path d="M79.49,44.86v-.77h.75v.77h-.75ZM79.49,49.33v-3.81h.75v3.81h-.75Z"/>
        <path d="M81.79,50.64c-.17,0-.34-.04-.49-.11s-.27-.18-.37-.31c-.09-.14-.14-.3-.14-.49,0-.21.06-.38.18-.52.12-.13.26-.23.42-.3-.12-.05-.21-.13-.28-.23-.07-.1-.11-.22-.11-.35,0-.18.07-.32.2-.43.13-.11.28-.18.46-.22-.17-.11-.3-.25-.4-.42s-.14-.36-.14-.57c0-.26.06-.48.18-.66s.3-.33.54-.44c.24-.11.53-.16.87-.16.15,0,.29.01.42.03.13.02.25.05.36.09.17-.09.29-.19.36-.32.07-.12.12-.24.13-.34h.74c0,.16-.03.3-.1.43-.06.13-.15.23-.27.32-.11.08-.25.14-.41.18.12.11.21.24.27.39s.09.31.09.48c0,.25-.06.47-.17.66s-.29.34-.53.44c-.23.11-.52.16-.87.16h-.59c-.12,0-.21.02-.28.07s-.11.12-.11.22c0,.08.03.15.1.2.07.05.16.08.27.08h1.61c.28,0,.51.09.7.28s.28.42.28.71c0,.21-.05.4-.16.58-.11.17-.26.31-.46.41-.2.1-.42.15-.68.15h-1.64ZM82.03,50.09h1.38c.1,0,.19-.02.28-.06s.15-.09.2-.16c.05-.07.07-.15.07-.24,0-.14-.05-.26-.13-.34-.09-.08-.2-.12-.33-.12h-1.46c-.14,0-.25.04-.34.13-.09.09-.14.2-.14.33s.04.24.13.33c.09.08.2.13.34.13ZM82.72,47.41c.28,0,.5-.06.64-.19.14-.13.21-.3.21-.53s-.07-.4-.21-.53c-.14-.12-.35-.18-.64-.18s-.5.06-.64.18c-.14.12-.21.3-.21.53,0,.14.03.27.09.38.06.11.15.19.28.25.13.06.29.09.48.09Z"/>
        <path d="M85.24,44.86v-.77h.75v.77h-.75ZM85.24,49.33v-3.81h.75v3.81h-.75Z"/>
        <path d="M87.84,49.41c-.22,0-.39-.04-.51-.13-.12-.08-.21-.19-.26-.33-.05-.13-.08-.27-.08-.42v-2.4h-.48v-.62h.49l.14-1.07h.6v1.07h.69v.62h-.69v2.31c0,.11.02.2.07.25.05.06.13.09.24.09h.38v.51s-.11.04-.18.05c-.07.02-.14.03-.21.04-.07.01-.14.02-.2.02Z"/>
        <path d="M90,49.41c-.12,0-.25-.01-.39-.04-.14-.03-.27-.08-.4-.16-.12-.08-.22-.18-.3-.32s-.12-.32-.12-.54c0-.26.06-.48.18-.64.12-.17.29-.3.51-.4.22-.1.48-.16.78-.2s.63-.06.99-.06v-.38c0-.13-.02-.24-.06-.33-.04-.1-.12-.17-.22-.22s-.26-.08-.47-.08-.36.03-.47.08c-.11.05-.19.11-.24.19-.05.08-.07.16-.07.24v.11h-.72s0-.05,0-.07v-.09c0-.23.06-.42.19-.58.13-.16.31-.28.54-.36.23-.08.5-.12.8-.12.33,0,.6.05.82.14.22.09.39.23.5.4.11.17.17.38.17.63v1.93c0,.09.02.16.07.2s.1.06.16.06h.26v.51c-.06.02-.13.05-.22.07-.09.02-.19.04-.3.04-.13,0-.24-.02-.33-.07-.09-.05-.16-.11-.22-.2-.06-.08-.09-.18-.11-.29h-.04c-.09.11-.19.21-.32.29s-.26.15-.42.2-.34.07-.54.07ZM90.21,48.79c.15,0,.29-.02.42-.07.13-.05.24-.11.33-.2.09-.08.16-.19.22-.3.05-.12.08-.25.08-.39v-.25c-.33,0-.63.02-.88.06s-.45.11-.59.21c-.14.1-.21.25-.21.43,0,.11.02.2.07.28.05.07.12.13.22.17.1.04.21.06.34.06Z"/>
        <path d="M92.96,49.33v-5.24h.75v5.24h-.75Z"/>
      </g>
    </g>
  </g>
</svg>