<?xml version="1.0" encoding="UTF-8"?>
<svg id="Capa_2" data-name="Capa 2" xmlns="http://www.w3.org/2000/svg" xmlns:xlink="http://www.w3.org/1999/xlink" viewBox="0 0 139.07 34.45">
  <defs>
    <style>
      .cls-1 {
        fill: #792e88;
      }

      .cls-2 {
        fill: none;
      }

      .cls-3 {
        fill: #4522b2;
      }

      .cls-4 {
        letter-spacing: -.01em;
      }

      .cls-5 {
        letter-spacing: 0em;
      }

      .cls-6 {
        fill: #a04c97;
      }

      .cls-7 {
        font-family: Archivo-Regular, Archivo;
        font-size: 6.77px;
      }

      .cls-8 {
        clip-path: url(#clippath);
      }
    </style>
    <clipPath id="clippath">
      <path class="cls-2" d="M1.53,2.59v13.57c.03,1.26.19,2.53.48,3.77.26,1.13.66,2.83,1.8,4.65,1.09,1.73,2.34,2.78,2.95,3.29,1.34,1.12,2.54,1.74,3.82,2.4.96.5,1.95.94,2.96,1.33,1.01-.39,2-.84,2.96-1.33,1.28-.66,2.48-1.29,3.82-2.4.6-.5,1.86-1.55,2.95-3.29,1.14-1.82,1.54-3.52,1.8-4.65.29-1.24.45-2.5.48-3.77V2.59c-3.95-.74-7.99-1.12-12.01-1.12S5.48,1.85,1.53,2.59"/>
    </clipPath>
  </defs>
  <g id="Capa_1-2" data-name="Capa 1">
    <g>
      <g>
        <path d="M43.91,6.19c-.06.06-.14.1-.23.1h-5.7c-.09,0-.14.05-.14.14v4.31c0,.09.05.14.14.14h3.27c.09,0,.17.03.23.1.06.06.1.14.1.23v2.64c0,.09-.03.17-.1.23-.06.06-.14.1-.23.1h-3.27c-.09,0-.14.05-.14.14v4.33c0,.09.05.14.14.14h5.7c.09,0,.17.03.23.1.06.06.1.14.1.23v2.64c0,.09-.03.17-.1.23-.06.06-.14.1-.23.1h-9.35c-.09,0-.17-.03-.23-.1-.06-.06-.1-.14-.1-.23V3.32c0-.09.03-.17.1-.23.06-.06.14-.1.23-.1h9.35c.09,0,.17.03.23.1.06.06.1.14.1.23v2.64c0,.09-.03.17-.1.23Z"/>
        <path d="M55.67,2.99h3.16c.09,0,.17.03.23.1.06.06.1.14.1.23v18.42c0,.09-.03.17-.1.23-.06.06-.14.1-.23.1h-3.19c-.09,0-.17-.03-.23-.1-.06-.06-.1-.14-.1-.23v-12.24c0-.07-.02-.11-.05-.11s-.07.03-.11.08l-2.13,3.76c-.09.15-.16.22-.22.22s-.13-.07-.22-.22l-2.13-3.76c-.04-.05-.07-.08-.11-.08s-.05.04-.05.11v12.24c0,.09-.03.17-.1.23s-.14.1-.23.1h-3.19c-.09,0-.17-.03-.23-.1-.06-.06-.1-.14-.1-.23V3.32c0-.09.03-.17.1-.23s.14-.1.23-.1h3.13c.18,0,.32.07.41.22l2.43,4.33c.05.07.11.07.16,0l2.34-4.33c.07-.15.21-.22.41-.22Z"/>
        <path d="M71.5,20.7c-1.02.91-2.33,1.36-3.95,1.36h-5.15c-.09,0-.17-.03-.23-.1-.06-.06-.1-.14-.1-.23V3.32c0-.09.03-.17.1-.23.06-.06.14-.1.23-.1h4.55c1.82,0,3.24.44,4.27,1.31,1.03.87,1.54,2.17,1.54,3.9s-.62,3.11-1.85,3.92c-.07.05-.08.11-.03.16,1.44,1.02,2.15,2.53,2.15,4.52,0,1.69-.51,2.99-1.53,3.9ZM65.92,6.42v4.28c0,.09.05.14.14.14h.98c.62,0,1.1-.2,1.44-.59.35-.39.52-.94.52-1.65,0-.75-.17-1.32-.5-1.72-.34-.4-.82-.6-1.46-.6h-.98c-.09,0-.14.05-.14.14ZM68.67,18.09c.34-.44.52-1.05.52-1.85s-.17-1.44-.52-1.91c-.35-.47-.81-.71-1.39-.71h-1.23c-.09,0-.14.05-.14.14v4.85c0,.09.05.14.14.14h1.2c.6,0,1.07-.22,1.42-.65Z"/>
        <path d="M75.58,21.97c-.06-.06-.1-.14-.1-.23V3.32c0-.09.03-.17.1-.23.06-.06.14-.1.23-.1h3.19c.09,0,.17.03.23.1.06.06.1.14.1.23v15.32c0,.09.05.14.14.14h5.72c.09,0,.17.03.23.1.06.06.1.14.1.23v2.64c0,.09-.03.17-.1.23-.06.06-.14.1-.23.1h-9.38c-.09,0-.17-.03-.23-.1Z"/>
        <path d="M97.6,6.19c-.06.06-.14.1-.23.1h-5.7c-.09,0-.14.05-.14.14v4.31c0,.09.05.14.14.14h3.27c.09,0,.17.03.23.1.06.06.1.14.1.23v2.64c0,.09-.03.17-.1.23-.06.06-.14.1-.23.1h-3.27c-.09,0-.14.05-.14.14v4.33c0,.09.05.14.14.14h5.7c.09,0,.17.03.23.1.06.06.1.14.1.23v2.64c0,.09-.03.17-.1.23-.06.06-.14.1-.23.1h-9.35c-.09,0-.17-.03-.23-.1-.06-.06-.1-.14-.1-.23V3.32c0-.09.03-.17.1-.23.06-.06.14-.1.23-.1h9.35c.09,0,.17.03.23.1.06.06.1.14.1.23v2.64c0,.09-.03.17-.1.23Z"/>
        <path d="M109.36,2.99h3.16c.09,0,.17.03.23.1.06.06.1.14.1.23v18.42c0,.09-.03.17-.1.23-.06.06-.14.1-.23.1h-3.19c-.09,0-.17-.03-.23-.1-.06-.06-.1-.14-.1-.23v-12.24c0-.07-.02-.11-.05-.11s-.07.03-.11.08l-2.13,3.76c-.09.15-.16.22-.22.22s-.13-.07-.22-.22l-2.13-3.76c-.04-.05-.07-.08-.11-.08s-.05.04-.05.11v12.24c0,.09-.03.17-.1.23s-.14.1-.23.1h-3.19c-.09,0-.17-.03-.23-.1-.06-.06-.1-.14-.1-.23V3.32c0-.09.03-.17.1-.23s.14-.1.23-.1h3.13c.18,0,.32.07.41.22l2.43,4.33c.05.07.11.07.16,0l2.34-4.33c.07-.15.21-.22.41-.22Z"/>
        <path d="M123.42,21.77l-.44-2.62c0-.09-.05-.14-.16-.14h-3.46c-.11,0-.16.05-.16.14l-.44,2.62c-.02.2-.14.3-.35.3h-3.19c-.24,0-.33-.12-.27-.35l4.01-18.42c.04-.2.15-.3.35-.3h3.68c.2,0,.32.1.35.3l3.98,18.42.03.11c0,.16-.1.25-.3.25h-3.27c-.22,0-.34-.1-.35-.3ZM119.85,16.04h2.45c.09,0,.13-.05.11-.14l-1.28-7.44c-.02-.05-.05-.08-.08-.08s-.06.03-.08.08l-1.23,7.44c0,.09.04.14.11.14Z"/>
        <path d="M130.94,21.66c-.8-.42-1.42-1-1.85-1.76-.44-.75-.65-1.62-.65-2.6v-.79c0-.09.03-.17.1-.23s.14-.1.23-.1h3.13c.09,0,.17.03.23.1.06.06.1.14.1.23v.6c0,.56.15,1.02.44,1.36.29.35.65.52,1.09.52s.8-.16,1.09-.49c.29-.33.44-.75.44-1.28s-.18-1.01-.55-1.4c-.36-.39-1.07-.97-2.13-1.73-.91-.65-1.64-1.24-2.21-1.74-.56-.51-1.05-1.14-1.44-1.88-.4-.75-.6-1.61-.6-2.59,0-1.54.48-2.78,1.44-3.71.96-.93,2.23-1.39,3.82-1.39s2.88.48,3.86,1.44c.97.96,1.46,2.23,1.46,3.79v.65c0,.09-.03.17-.1.23-.06.06-.14.1-.23.1h-3.13c-.09,0-.17-.03-.23-.1-.06-.06-.1-.14-.1-.23v-.74c0-.56-.14-1.01-.42-1.35-.28-.34-.65-.5-1.1-.5s-.79.16-1.06.48c-.27.32-.41.76-.41,1.32s.17,1.03.52,1.44c.35.42,1.03,1,2.04,1.74,1.13.84,1.98,1.51,2.55,2.03.57.52,1.02,1.09,1.34,1.72.32.63.48,1.38.48,2.25,0,1.6-.49,2.87-1.47,3.82-.98.95-2.27,1.42-3.87,1.42-1.05,0-1.98-.21-2.78-.63Z"/>
      </g>
      <g>
        <g>
          <g class="cls-8">
            <path class="cls-6" d="M13.54,1.47c4.02,0,8.06.38,12.01,1.12v13.57c-.03,1.26-.19,2.53-.48,3.77-.26,1.13-.66,2.83-1.8,4.65-1.09,1.73-2.34,2.78-2.95,3.29-1.34,1.12-2.54,1.74-3.82,2.4-.96.5-1.95.94-2.96,1.33-1.01-.39-2-.84-2.96-1.33-1.28-.66-2.48-1.29-3.82-2.4-.6-.5-1.86-1.55-2.95-3.29-1.14-1.82-1.54-3.52-1.8-4.65-.29-1.24-.45-2.5-.48-3.77V2.59c3.95-.74,7.99-1.12,12.01-1.12"/>
            <g>
              <rect class="cls-1" x="13.54" y="-12.06" width="14.83" height="55.72"/>
              <rect class="cls-3" x="25.27" y="-12.06" width="4.71" height="55.72"/>
              <rect class="cls-3" x="-3" y="-12.06" width="4.71" height="55.72"/>
            </g>
          </g>
          <path d="M26.8,1.33h-.05c-4.33-.89-8.78-1.33-13.21-1.33S4.66.44.33,1.32h-.05c-.16.04-.28.19-.28.35v14.5h0c.03,1.37.2,2.74.52,4.08.28,1.22.72,3.06,1.99,5.09,1.21,1.93,2.59,3.08,3.25,3.64,1.45,1.21,2.78,1.91,4.07,2.57,1.16.6,2.36,1.13,3.59,1.59.08.03.16.03.24,0,1.23-.45,2.43-.98,3.59-1.59,1.29-.67,2.62-1.36,4.07-2.57.66-.55,2.04-1.71,3.25-3.64,1.27-2.03,1.7-3.87,1.99-5.09.31-1.34.49-2.7.52-4.07V1.67c0-.17-.12-.31-.28-.34ZM24.05,16.87c-.06.89-.19,1.79-.39,2.66-.23,1-.59,2.51-1.59,4.11-.96,1.52-2.07,2.45-2.6,2.9-1.18.99-2.26,1.55-3.4,2.14-.78.4-1.58.77-2.4,1.1-.08.03-.16.03-.24,0-.82-.32-1.62-.69-2.4-1.1-1.14-.59-2.22-1.15-3.4-2.14-.53-.45-1.65-1.37-2.6-2.9-1.01-1.6-1.36-3.11-1.59-4.11-.2-.87-.33-1.77-.39-2.66l-.03-6.94v-5.49c0-.15.11-.29.26-.31,3.39-.6,6.84-.91,10.28-.91s6.89.3,10.28.91c.15.03.26.16.26.31v5.49l-.03,6.94Z"/>
        </g>
        <path d="M25.57,20.31c-9.6-1.06-14.47-1.06-24.06,0-.42-3.77-.62-5.65-1.04-9.41,10.42-1.15,15.71-1.15,26.14,0-.42,3.77-.62,5.65-1.04,9.41Z"/>
      </g>
    </g>
    <text class="cls-7" transform="translate(56.22 31.78)"><tspan class="cls-4" x="0" y="0">P</tspan><tspan class="cls-5" x="4.43" y="0">a</tspan><tspan class="cls-4" x="8.12" y="0">r</tspan><tspan x="10.3" y="0">ches y Bo</tspan><tspan class="cls-4" x="39.59" y="0">r</tspan><tspan x="41.77" y="0">dados</tspan></text>
  </g>
</svg>