<?xml version="1.0" encoding="utf-8"?>
<!-- Generator: Adobe Illustrator 27.0.0, SVG Export Plug-In . SVG Version: 6.00 Build 0)  -->
<svg version="1.1" id="Capa_1" xmlns="http://www.w3.org/2000/svg" xmlns:xlink="http://www.w3.org/1999/xlink" x="0px" y="0px"
	 viewBox="0 0 384 384" style="enable-background:new 0 0 384 384;" xml:space="preserve">
<style type="text/css">
	.st0{fill:#2D2D2D;}
</style>
<g>
	<path class="st0" d="M214.7,2v35.7c15,3.5,28.5,11.2,40.5,22.9c17.3,17.3,26,38.5,26,63.4h-44.5c0-13.2-4.2-24.1-12.5-32.6
		c-8.4-8.5-18.9-12.8-31.5-12.8c-12.6,0-23.3,4.3-32.1,13c-8.8,8.7-13.2,19.5-13.2,32.4c0,12,4.5,22.5,13.4,31.3
		c9,8.8,19.6,13.2,31.9,13.2c24.1,0,44.9,9.1,62.5,27.3c17.3,17.3,26,38,26,62.1c0,24.7-8.7,45.9-26,63.8
		c-12.6,12-26.1,19.8-40.5,23.3v37h-44.9v-36.5c-15.3-3.8-29.1-11.7-41.4-23.8c-17-17.9-25.5-39.2-25.5-63.8h44.5
		c0,12.3,4.4,23,13.2,31.9c8.8,9,19.5,13.4,32.1,13.4c12,0,22.4-4.5,31-13.4c8.7-9,13-19.6,13-31.9c0-12.6-4.2-23.1-12.5-31.5
		c-8.4-8.4-18.9-12.5-31.5-12.5c-24.7,0-46.1-9.1-64.3-27.3c-17-17.3-25.5-38.2-25.5-62.5c0-25.2,8.5-46.4,25.5-63.4
		c11.7-11.7,25.5-19.7,41.4-23.8V2H214.7z"/>
</g>
</svg>
