<?xml version="1.0" encoding="utf-8"?>
<!-- Generator: Adobe Illustrator 27.0.0, SVG Export Plug-In . SVG Version: 6.00 Build 0)  -->
<svg version="1.1" id="Capa_2_00000158013411504092451720000004466124251884180920_"
	 xmlns="http://www.w3.org/2000/svg" xmlns:xlink="http://www.w3.org/1999/xlink" x="0px" y="0px" viewBox="0 0 176.3 176.4"
	 style="enable-background:new 0 0 176.3 176.4;" xml:space="preserve">
<style type="text/css">
	.st0{fill:#3C96D3;}
</style>
<g>
	<rect x="47.6" y="121.6" class="st0" width="9.7" height="5.4"/>
	<path class="st0" d="M120.1,26.7c7.5,0,13.6-6,13.5-13.4c0-7.5-6.1-13.4-13.5-13.4c-7.7,0-13.6,6.5-13.4,13.4
		C106.7,20.7,112.6,26.7,120.1,26.7z"/>
	<path class="st0" d="M154.4,87.5c-0.1-1.9-0.5-3.9-0.8-5.8c-0.8-5-1.6-10-2.4-15c-0.3-2.2-0.6-4.3-1-6.5c-0.7-4.2-1.3-8.5-2-12.7
		c-0.5-3.2-0.9-6.5-1.6-9.7c-1.2-5.4-6.4-10.1-12-10.8c-1.4-0.2-2.9,0-4.3-0.2c-2.8-0.3-4.9,0.7-6.8,2.6
		c-5.2,5.2-10.3,10.4-15.5,15.6c-0.2,0.2-0.5,0.6-0.8,0.7c-1.3,0.4-2.6,0.8-3.9,1.2c-3.1,0.9-6.2,1.8-9.3,2.7
		c-3.5,1-6.9,2.1-10.3,3.1c-2.4,0.7-4.1,2.3-4.8,4.6c-0.3,1-0.4,2.1-0.6,3.4c-0.3-0.5-17.9-31-19.2-31c-2.5,0-5.4,0-8.6,0l15.5,26.5
		l-0.1,6.1L47.1,29.7c-5.2,0-10.6,0-14.6,0c-6.3,0-10.7,4.4-10.7,10.7c0,7.2,0,14.5,0,21.7c0,34.3,0,68.7,0,103
		c0,1.2,0.1,2.4,0.4,3.6c1.3,4.1,5,7.3,9.8,7.3c15.8,0,31.6,0,47.4,0c1.3,0,2.8-0.2,4-0.8c4-1.8,6.2-5,6.2-9.5c0-3.8,0-7.7,0-11.5
		c0-14.1,0-36.4,0-52.6L74,74.6l0.1-6.1l15.6,27.1c0-8.4,0-14,0-14S81.3,65.4,81.1,65c0.5,0.1,0.7,0.2,1,0.4
		c1.5,0.9,3.2,1.3,4.9,0.8c3.8-1,7.6-2.2,11.4-3.3c4.5-1.3,9-2.7,13.5-4c1.8-0.5,3.5-1.2,4.8-2.7c0.6-0.6,1.2-1.2,1.8-1.8
		c0.4-0.4,0.7-0.3,0.8,0.3c0.7,4.4,1.3,8.8,2,13.2c0.6,4.1,1.2,8.1,1.8,12.2c0.5,3,1,5.9,1.4,8.9c0.6,4.5,2.3,8.2,6,11
		c0.8,0.6,1,1.2,1,2.1c0,16.2,0,32.5,0,48.7c0,5.2-0.2,10.5,0.1,15.7c0.4,7.3,8.3,11.6,14.7,8.1c3.6-1.9,5.4-5,5.4-9.1
		c0-22.6,0-45.1,0-67.7c0-0.6,0.2-1.3,0.5-1.9C153.8,93.4,154.6,90.5,154.4,87.5z M69.7,150c0,2.9-2.3,5.1-5.1,5.1h-7.2V154
		c0-2.6-2.2-4.9-4.9-4.9s-4.9,2.2-4.9,4.9v1.1h-7.2c-2.9,0-5.1-2.3-5.1-5.1v-23.1h8v-5.4h-8V98.4c0-2.8,2.4-5.1,5.1-5.1h7.2v1.1
		c0,2.7,2.2,4.9,4.9,4.9c2.6,0,4.9-2.2,4.9-4.9v-1.1h7.2c2.8,0,5.1,2.3,5.1,5.1v23.3h-8v5.4h8.1V150z"/>
</g>
</svg>
