<?xml version="1.0" encoding="utf-8"?>
<!-- Generator: Adobe Illustrator 27.0.0, SVG Export Plug-In . SVG Version: 6.00 Build 0)  -->
<svg version="1.1" id="Capa_2_00000158013411504092451720000004466124251884180920_"
	 xmlns="http://www.w3.org/2000/svg" xmlns:xlink="http://www.w3.org/1999/xlink" x="0px" y="0px" viewBox="0 0 176.3 176.4"
	 style="enable-background:new 0 0 176.3 176.4;" xml:space="preserve">
<style type="text/css">
	.st0{fill:#3C97D3;}
	.st1{fill:#FFFFFF;}
</style>
<g>
	<g>
		<path class="st0" d="M164,26.1c-34.3,0-68.3,0-102.6,0c-6.8,0-11.2,4.2-11.2,11.2c0,24.4,0,48.8,0,73.3c0,1.8,0.3,3.6,1,5.2
			c2.3,4.4,6,6,10.7,6c22.1,0,44.4,0,66.5,0c1.3,0,1.8,0.3,2.6,1.6c1.8,3.4,3.6,6.2,5.5,9.4c3.1,5.2,6.2,10.4,9.4,15.6
			c1,1.9,2.6,2.8,4.4,2.8c0.4,0,0.9-0.1,1.3-0.2c2.6-0.8,3.9-2.6,3.9-5.7c0-7.3,0-14.3,0-21.6c0-1,0.3-1.6,1.6-1.6
			c2.3,0,4.9,0,7.3,0c5.5-0.3,8.8-2.6,10.7-7.5c0.3-0.3,0.3-0.5,0.5-0.5c0-26.5,0-53-0.3-79.5l-0.3-0.3
			C173.4,28.7,169.7,26.1,164,26.1L164,26.1z"/>
	</g>
	<g>
		<path class="st0" d="M38.5,43.6c-8.8,0-17.4,0-26,0C5.5,43.6,1.1,48,1.1,55c0,12,0,24.2,0,36.4c0,4.2,0,8.1-0.3,12.2
			c0,8.3,0,16.9,0,25.2c0.3,5.7,3.9,10.1,9.6,10.7c1.4,0.3,2.9,0.3,4.3,0.3s2.9-0.1,4.3-0.1c1.3,0,1.8,0.3,1.8,1.8c0,7,0,14,0,21
			c0,1.6,0,3.1,1.3,4.4c1.1,1.2,2.5,1.8,3.8,1.8c1.8,0,3.6-1.1,4.7-3.1c4.9-8.1,9.6-16.1,14.3-24.2c0.8-1.3,1.6-1.8,3.1-1.8
			c22.3,0,44.4,0,66.5,0c3.9,0,7.3-1,9.6-4.4c0.3-0.8,1-1,0.5-2.1c-0.2-0.7-0.6-0.8-1.1-0.8c-0.2,0-0.5,0-0.8,0
			c-12.7,0-25.2,0-37.9,0c-8.1,0-15.8,0-23.9,0c-9.9,0-17.9-6.2-20.3-15.6c-0.4-1.5-0.9-2.1-1.9-2.1c-0.2,0-0.4,0-0.7,0.1
			c-1.3,0-2.6,0-3.9,0c-1.8,0-3.4,0-5.2-0.3c-3.1-0.5-5.2-3.4-4.9-6.8c0.3-3.1,2.6-5.5,5.7-5.7c2.9,0,6,0,8.8,0c1,0,1.3,0,1.3-1
			c0-6,0-12.2,0-18.4c0-1-0.3-1.3-1.3-1.3c-2.6,0-5.5,0-8.1,0c-3.9,0-6.5-2.9-6.5-6.5c0.3-3.6,2.9-6.2,6.8-6.2c2.3,0,4.9,0,7.5,0
			c1.3,0,1.6-0.3,1.6-1.6c0-7.3,0-14.3,0-21.6C40.1,43.8,39.8,43.6,38.5,43.6L38.5,43.6z"/>
	</g>
</g>
<path class="st1" d="M80.1,63.6c-4.7,0-7.5-3.9-6.5-8.1c0.5-2.6,2.6-4.4,5.2-4.7c0.8,0,1.6,0,2.3,0c21.3,0,42.3,0,63.4,0
	c1,0,2.3,0,3.4,0.3c3.1,1,4.9,3.9,4.4,7.3c-0.5,2.9-3.1,5.2-6.2,5.2c-8.6,0-17.4,0-26,0c-2.6,0-4.9,0-7.3,0
	C101.9,63.6,91,63.6,80.1,63.6L80.1,63.6z"/>
<path class="st1" d="M79.8,97.6c-3.6,0-6.2-1.8-6.8-5.2c-0.5-3.6,1.8-7,5.2-7.5c0.8-0.3,1.8-0.3,2.6-0.3c21,0,42.3,0,63.4,0
	c1,0,2.3,0,3.4,0.3c3.1,1,4.9,3.9,4.4,7c-0.3,3.1-2.9,5.5-6.2,5.5c-9.6,0-19.2,0-28.8,0c-1.3,0-2.9,0-4.2,0
	C101.9,97.3,91,97.3,79.8,97.6L79.8,97.6z"/>
</svg>
