<?xml version="1.0" encoding="utf-8"?>
<!-- Generator: Adobe Illustrator 27.0.0, SVG Export Plug-In . SVG Version: 6.00 Build 0)  -->
<svg version="1.1" id="Capa_2_00000161631381169538515400000011567852216487742387_"
	 xmlns="http://www.w3.org/2000/svg" xmlns:xlink="http://www.w3.org/1999/xlink" x="0px" y="0px" viewBox="0 0 176.3 176.4"
	 style="enable-background:new 0 0 176.3 176.4;" xml:space="preserve">
<style type="text/css">
	.st0{fill:#3C97D3;}
	.st1{fill:#FFFFFF;}
</style>
<g>
	<g>
		<path class="st0" d="M353.3,372.8c7.9,0,14.4,6.4,14.4,14.4v137.2c0,7.9-6.4,14.4-14.4,14.4h-98.8c-7.9,0-14.4-6.4-14.4-14.4
			V387.2c0-7.9,6.4-14.4,14.4-14.4L353.3,372.8 M353.3,368.3h-98.8c-10.6,0-18.9,8.6-18.9,18.9v137.2c0,10.6,8.6,18.9,18.9,18.9
			h98.8c10.6,0,18.9-8.6,18.9-18.9V387.2C372.2,376.7,363.6,368.3,353.3,368.3L353.3,368.3z"/>
	</g>
	<path class="st0" d="M301.8,472c-0.6,0-1.3,0-1.9-0.3c-1.9-0.6-2.9-2.6-3.2-4.2c0,0,0,0.3-0.3,0.3c-1,1.9-2.6,4.5-5.4,2.9
		c-0.3-0.3-0.6-0.3-1-0.6c-2.6,1-6.1,1-9.9-0.3c-2.6,0.6-5.1,0.3-7.4-0.3c-2.2-0.6-3.5-1.6-4.5-2.2s-1.3-1-1.6-1l0,0
		c-0.3,0-0.6,0.3-1.6,1c-0.6,0.6-1.3,1-1.9,1.6c-4.2,2.9-10.2,2.9-17.9,0.6l1.9-6.1c5.8,1.9,9.9,1.9,12.5,0.3c0.6-0.3,1-0.6,1.3-1
		c1.3-1,3.2-2.6,5.8-2.6c2.6,0,4.2,1,5.4,1.9c1,0.6,1.6,1,2.9,1.3c1.6,0.3,3.2,0.3,4.8,0l1-0.3l1,0.3c2.2,0.6,5.4,1.6,7,0.3
		c0.6-0.3,1.3-1.3,1.6-1.9c1-1.3,2.2-2.2,3.5-2.2c1.6-1.6,3.2-2.9,5.1-2.2c2.9,0.6,3.2,3.8,3.5,5.8c0,0.3,0,0.6,0,1
		c1.6-1.3,3.8-2.6,6.7-2.6c2.2,0,4.2,1.3,5.4,1.9l0.3,0.3c0.3-0.6,1-1.3,2.2-1.9c2.6-1.3,5.1,0,6.7,0.6c1.3,0.6,2.2,1.3,3.5,1
		c0.3,0,0.3,0,1-0.3s1.6-1,2.9-1.3c4.2-1.6,7.4-0.6,10.6,0.3c2.2,0.6,4.2,1,7,1s5.8-0.6,8.3-1.6l2.2,6.1c-3.5,1.3-7.4,2.2-10.9,1.9
		c-3.5,0-6.4-0.6-8.6-1.3c-2.9-0.6-4.5-1.3-7-0.3c-0.6,0.3-1.3,0.6-1.6,1c-1,0.6-2.2,1.3-4.2,1.3c-2.9,0-5.1-1-6.7-1.9
		c-0.3-0.3-0.6-0.3-1-0.6c-0.3,0.6-1.3,1.6-2.6,2.2c-2.6,1.3-4.8-0.3-6.1-1c-1-0.6-1.6-1-2.2-1c-1,0-1.9,0.6-2.9,1.3
		C305.3,470.7,303.7,472,301.8,472L301.8,472z"/>
	<path class="st0" d="M301.8,503.6c-0.6,0-1.3,0-1.9-0.3c-1.9-0.6-2.9-2.6-3.2-4.2c0,0,0,0.3-0.3,0.3c-1,1.9-2.6,4.5-5.4,2.9
		c-0.3-0.3-0.6-0.3-1-0.6c-2.6,1-6.1,1-9.9-0.3c-2.6,0.6-5.1,0.3-7.4-0.3c-2.2-0.6-3.5-1.6-4.5-2.2s-1.3-1-1.6-1l0,0
		c-0.3,0-0.6,0.3-1.6,1c-0.6,0.6-1.3,1-1.9,1.6c-4.2,2.9-10.2,2.9-17.9,0.6l1.9-6.1c5.8,1.9,9.9,1.9,12.5,0.3c0.6-0.3,1-0.6,1.3-1
		c1.3-1,3.2-2.6,5.8-2.6c2.6,0,4.2,1,5.4,1.9c1,0.6,1.6,1,2.9,1.3c1.6,0.3,3.2,0.3,4.8,0l1-0.3l1,0.3c2.2,0.6,5.4,1.6,7,0.3
		c0.6-0.3,1.3-1.3,1.6-1.9c1-1.3,2.2-2.2,3.5-2.2c1.6-1.6,3.2-2.9,5.1-2.2c2.9,0.6,3.2,3.8,3.5,5.8c0,0.3,0,0.6,0,1
		c1.6-1.3,3.8-2.6,6.7-2.6c2.2,0,4.2,1.3,5.4,1.9l0.3,0.3c0.3-0.6,1-1.3,2.2-1.9c2.6-1.3,5.1,0,6.7,0.6c1.3,0.6,2.2,1.3,3.5,1
		c0.3,0,0.3,0,1-0.3s1.6-1,2.9-1.3c4.2-1.6,7.4-0.6,10.6,0.3c2.2,0.6,4.2,1,7,1s5.8-0.6,8.3-1.6l2.2,6.1c-3.5,1.3-7.4,2.2-10.9,1.9
		c-3.5,0-6.4-0.6-8.6-1.3c-2.9-0.6-4.5-1.3-7-0.3c-0.6,0.3-1.3,0.6-1.6,1c-1,0.6-2.2,1.3-4.2,1.3c-2.9,0-5.1-1-6.7-1.9
		c-0.3-0.3-0.6-0.3-1-0.6c-0.3,0.6-1.3,1.6-2.6,2.2c-2.6,1.3-4.8-0.3-6.1-1c-1-0.6-1.6-1-2.2-1c-1,0-1.9,0.6-2.9,1.3
		C305.3,502.7,303.7,503.6,301.8,503.6L301.8,503.6z"/>
	<g>
		<rect x="251" y="375.7" class="st1" width="102.4" height="76.1"/>
		<path class="st0" d="M256.4,425.9v-3.5h90.5c0,1,0,2.2,0.3,3.5H256.4z"/>
		<path class="st0" d="M256.7,393.6c-1-3.8-1-3.8,3.2-3.8c27.8,0,55.7,0,83.2,0h3.2c1.3,3.8,1,3.8-3.2,3.8c-27.8,0-55.7,0-83.5,0
			C258.6,393.6,257.7,393.6,256.7,393.6L256.7,393.6z"/>
		<path class="st0" d="M256.4,438.7h90.5v3.5h-90.5V438.7z"/>
		<path class="st0" d="M256.4,406.1c1.3,0,1.9,0,2.9,0c28.2,0,56.6,0,84.8,0c1.3,0,3.2-0.3,3.2,1.6c0,1.6-0.3,2.6-2.6,2.6
			c-28.5,0-57.3,0-85.7,0C254.8,409.9,256.4,408,256.4,406.1L256.4,406.1z"/>
		<rect x="262.5" y="382.1" class="st0" width="15" height="9.3"/>
		<rect x="283.9" y="381.1" class="st0" width="15" height="9.3"/>
		<rect x="283.9" y="397.4" class="st0" width="15" height="9.3"/>
		<rect x="323.2" y="381.1" class="st0" width="15" height="9.3"/>
		<rect x="312.1" y="398.1" class="st0" width="26.2" height="9.3"/>
		<rect x="323.2" y="414.7" class="st0" width="15" height="9.3"/>
		<rect x="302.1" y="413.8" class="st0" width="15" height="9.3"/>
		<rect x="302.1" y="430.4" class="st0" width="15" height="9.3"/>
		<rect x="262.5" y="413.8" class="st0" width="15" height="9.3"/>
		<rect x="262.5" y="430.7" class="st0" width="26.2" height="9.3"/>
	</g>
</g>
<image style="overflow:visible;enable-background:new    ;" width="920" height="1391" xlink:href="81972B7.jpg"  transform="matrix(0.9992 0 0 0.9992 -1981.2986 -566.9894)">
</image>
<image style="overflow:visible;enable-background:new    ;" width="286" height="235" xlink:href="81972B5.jpg"  transform="matrix(1 0 0 1 -915.0425 -166.6)">
</image>
<g>
	<path class="st0" d="M38.2,117.5c-1.4,7.9-4.1,15.3-8.7,21.8c-4,5.7-9.1,10.3-15.1,13.7c-4.8,2.7-9.5,1.8-11.9-2.3
		c-2.5-4.2-1-8.9,3.7-11.7c12.3-7.2,18.2-20.7,15-33.8c-0.2-0.8-0.2-1.7-0.7-2.3c-5.5-7.6-3.2-16.1-2.3-24.3
		c0.6-5.8,2.2-11.6,3.4-17.6c-5.2,3.6-8.2,8.3-8.8,14.4c-0.2,1.8,0,3.7,0.1,5.6c0.3,3.7-1.2,6.1-4.1,6.6c-3,0.5-5.2-1.3-6-4.9
		C0.5,72.3,5.4,60,14.7,53.4c6.2-4.4,13.1-6.3,20.7-5.5c6.5,0.7,9.8,3.4,11.5,9.8c2,7.5,8.3,13,16.1,13.9c0-10,0-20.1,0-30.3
		c9.4,0,18.4,0,27.7,0c0,10.6,0,21.1,0,31.9c17.5,0,34.9,0,52.6,0c0,10.6,0,21,0,31.6c-18,0-36,0-54.3,0c0-10.7,0-21.2,0-31.9
		c-4.6,0-8.8,0-13.1,0c1.5,6.4-0.2,8.7-6.9,9.3c-9.7,0.9-18.1-2.2-25.7-9.7c-0.9,5.1-1.6,9.6-2.4,14.1c-1.1,5.5,0.3,9.3,4.5,13.7
		c13.4,14,16.3,30.8,9.9,49c-2.2,6.2-9.5,7.7-13.7,3c-2.6-2.9-2.4-6-1.1-9.4C43.6,134.1,42.7,125.7,38.2,117.5z"/>
	<path class="st0" d="M143.3,107c0,10.5,0,20.8,0,31.3c-18.2,0-36.1,0-54.3,0c0-10.4,0-20.7,0-31.3C107,107,124.9,107,143.3,107z"/>
	<path class="st0" d="M172.5,138.3c-9.1,0-18,0-27.2,0c0-10.4,0-20.7,0-31.3c9,0,18,0,27.2,0C172.5,117.3,172.5,127.6,172.5,138.3z"
		/>
	<path class="st0" d="M145.2,40.2c9.2,0,18.1,0,27.2,0c0,10.4,0,20.7,0,31.2c-9,0-18,0-27.2,0C145.2,61.2,145.2,50.9,145.2,40.2z"/>
	<path class="st0" d="M116.1,40.2c9.1,0,18,0,27.2,0c0,10.4,0,20.6,0,31.2c-9,0-18,0-27.2,0C116.1,61,116.1,50.7,116.1,40.2z"/>
	<polygon class="st0" points="145.1,104.7 145.3,73.4 172.4,73.4 172.4,104.7 	"/>
	<path class="st0" d="M175.1,141.7c0,4,0,7.9,0,12.1c-30.6,0-61.2,0-91.9,0c0-4,0-8,0-12.1C113.7,141.7,144.3,141.7,175.1,141.7z
		 M135.1,151.6h29l0-7.9l-29-0.1V151.6z M123.1,143.8c-9.8,0-19.1,0-28.6,0c0,2.7,0,5.2,0,7.7c9.7,0,19.1,0,28.6,0
		C123.1,148.9,123.1,146.5,123.1,143.8z"/>
	<path class="st0" d="M43.7,21.5c6.9,0,12.4,5.4,12.4,12.4c0,7-5.6,12.7-12.6,12.6c-6.7-0.1-12.4-6-12.3-12.6
		C31.3,26.9,36.8,21.5,43.7,21.5z"/>
</g>
</svg>
