<?xml version="1.0" encoding="utf-8"?>
<!-- Generator: Adobe Illustrator 27.0.0, SVG Export Plug-In . SVG Version: 6.00 Build 0)  -->
<svg version="1.1" id="Capa_2_00000158013411504092451720000004466124251884180920_"
	 xmlns="http://www.w3.org/2000/svg" xmlns:xlink="http://www.w3.org/1999/xlink" x="0px" y="0px" viewBox="0 0 176.3 176.4"
	 style="enable-background:new 0 0 176.3 176.4;" xml:space="preserve">
<style type="text/css">
	.st0{fill:#3C97D3;}
</style>
<g>
	<g>
		<path class="st0" d="M2.3,59.6c0-2,0-3.9,0-5.9c0-2.3,0.3-4.5,0-6.5c-0.3-2.5,0.8-4.5,2.3-6.2c2-2.5,4.5-3.7,7.6-3.7
			c4.5,0,8.7,0,13.2-0.3c0.3,0,0.6,0,1.1,0c0-11.5,0-23.4,0-34.9c18.6,0,37.4,0,56,0c0,11.5,0,23.1,0,34.9c1.4,0,2.8,0,4.2,0
			c3.7,0,7.3,0.3,11,0.3c3.9,0,9,4.2,9,9.3c0,9.6,0.3,19.1,0.3,28.7c0,0.8-0.3,1.1-1.1,1.7C96.3,81,88.7,87.5,82.8,95.7
			c-0.8,1.1-1.4,1.7-2.8,1.4c-0.3,0-0.6,0-1.1,0c-2,0-3.1,1.1-3.4,3.4c-0.3,2-0.3,3.9,0.6,5.9c0.3,0.6,0,1.4,0,2
			c-0.8,2.8-1.7,5.6-2.3,8.4c-1.4,5.9-1.1,11.8-0.6,18c-0.6,0-0.8,0.3-1.4,0.3c-7.6,0-15.2,0-23.1,0c-9,0-18,0-27,0
			c-0.6,0-0.8,0-1.4-0.3c-3.7-1.7-6.5-4.5-7.9-8.4c0-0.3-0.3-0.8-0.3-1.1c0-6.5-0.3-13.2-0.3-19.7c0-0.3,0-0.8,0-1.4
			c-1.1-0.3-2.3-0.6-3.1-0.8c-3.9-1.7-6.8-4.5-6.8-9.6c0-0.8,0-1.7-0.3-2.5C2.3,80.5,2.3,70.1,2.3,59.6z M30.2,47.5
			c16.3,0,32.6,0,49,0c0-14.1,0-27.9,0-41.9c-16.3,0-32.6,0-49,0C30.2,19.7,30.2,33.5,30.2,47.5z M26.8,44.2c-2.3,0-4.5,0-7,0
			c0,3.4,0,7,0,10.4c23.4,0,46.7,0,69.8,0c0-3.4,0-7,0-10.4c-2.3,0-4.5,0-7,0c0,2.3,0,4.5,0,6.8c-18.9,0-37.4,0-56,0
			C26.8,48.7,26.8,46.4,26.8,44.2z M46.5,107.2L46.5,107.2c0.3,0,0.8-0.3,1.1-0.3c2-0.3,3.1-1.1,3.1-3.1c0.3-1.4,0-3.1,0-4.5
			c-0.3-1.7-1.1-2.5-2.5-2.5c-1.4-0.3-2.8-0.3-4.2-0.3c-2,0.3-3.1,1.1-3.1,2.8c-0.3,1.4-0.3,3.1,0,4.8c0,1.4,1.1,2.5,2.5,2.8
			C44.5,106.9,45.7,107.2,46.5,107.2z M46,124.6c0.8,0,1.7,0,2.5-0.3c1.4-0.3,2.3-1.1,2.5-2.5c0-1.7,0.3-3.4,0-5.1
			c0-1.4-1.1-2.3-2.5-2.5c-1.7,0-3.4,0-5.1,0c-1.1,0-2,0.8-2.3,2.3c-0.6,2-0.6,3.7,0,5.6c0.3,1.4,1.1,2,2.5,2.3
			C44.3,124.6,45.1,124.6,46,124.6z M23.2,119.3L23.2,119.3c0,0.6,0,1.1,0,1.7c0.3,2,1.1,3.1,3.1,3.4c1.1,0.3,2.5,0.3,3.7,0
			c2.3-0.3,3.4-0.8,3.4-2.5c0.3-1.7,0.3-3.7,0-5.3c0-1.4-1.1-2.3-2.3-2.3c-1.7,0-3.4,0-5.1,0c-1.4,0-2.3,1.1-2.5,2.3
			C23.4,117.6,23.2,118.4,23.2,119.3z M68.7,119.3c0-0.6,0-1.4-0.3-2c-0.3-1.7-1.1-2.8-2.8-2.8c-1.7,0-3.1,0-4.8,0
			c-1.4,0-2.3,0.8-2.5,2.5c0,1.1,0,2.8,0,4.2c0.3,2,1.1,2.8,3.1,3.1c1.1,0.3,2.3,0.3,3.4,0c2.5-0.3,3.4-1.1,3.7-3.1
			C68.7,120.7,68.7,120.1,68.7,119.3z M28.2,107.2c0.8,0,1.4,0,2.3-0.3c1.4-0.3,2.5-0.8,2.8-2.3c0.6-2,0.6-3.9,0-5.9
			c-0.3-1.1-1.1-2-2.3-2c-1.4-0.3-3.1-0.3-4.5-0.3c-2,0-3.1,0.8-3.4,2.8c-0.3,1.4,0,3.1,0,4.5c0.3,1.7,1.1,2.5,2.8,2.8
			C26.8,106.9,27.7,107.2,28.2,107.2z M68.7,102.1c0-0.8,0-1.7-0.3-2.3c-0.3-2-1.1-2.8-2.8-3.1c-1.4-0.3-2.8-0.3-4.2,0
			c-2,0.3-2.8,0.8-3.1,2.8c-0.3,1.4,0,3.1,0,4.5c0,1.7,1.1,2.5,2.5,2.5c1.7,0,3.4,0,4.8,0c1.4,0,2.3-1.1,2.5-2.5
			C68.7,103.5,68.7,102.7,68.7,102.1z"/>
	</g>
	<g>
		<path class="st0" d="M174.5,129.1c-0.3,1.7-0.6,3.7-0.8,5.3c-1.4,8.4-4.8,15.8-10.1,22.2c-5.3,6.2-11.5,10.7-18.9,13.8
			c-6.8,2.5-13.8,3.7-21.1,3.1c-13.8-1.1-24.8-7.3-33.5-17.7c-5.3-6.5-8.4-13.8-9.6-21.9c-1.7-12.9,0.8-25,9-35.7
			c7.9-10.1,18-16.6,31-18.3c4.8-0.6,9.3-0.6,14.1,0.3c15.8,2.5,27,11,34.6,25c3.1,5.6,4.8,11.8,5.1,18c0,0.3,0,0.8,0.3,1.1
			C174.5,125.8,174.5,127.5,174.5,129.1z M124.7,97.9c-0.3,0-0.6,0.3-0.8,0.3c-2.8,0.6-5.6,1.7-7.9,3.9c-2.5,2.3-4.5,5.1-4.8,8.7
			c0,1.4,0,2.8,0,3.9c0,1.1,0.3,2.3,0.8,3.4c1.4,3.1,3.7,5.3,6.2,6.8c3.1,1.7,6.2,3.1,9.3,4.8c2.3,1.1,4.2,2.5,6.2,3.9
			c3.9,3.1,3.4,10.4-1.4,13.2c-3.4,2.3-7.3,2.3-11,1.4c-2.8-0.6-5.3-1.4-7.9-2.8c-1.1-0.6-1.1-0.6-1.7,0.6s-0.8,2.5-1.1,3.7
			c-0.3,0.8,0,1.4,0.8,1.7c3.7,2,7.9,2.8,11.8,3.4c0.6,0,0.8,0.3,0.8,0.8c0,1.7,0,3.7,0,5.3c0,0.8,0,2,0,2.8c2,0,3.9,0,5.9,0
			c0-3.1,0-6.5,0-9.6c0.6,0,1.1-0.3,1.7-0.3c6.2-1.4,12.4-6.2,12.7-14.6c0.3-3.9-0.8-7.6-3.7-10.7c-2.5-2.5-5.1-4.2-8.2-5.6
			c-3.1-1.4-5.9-2.8-9-4.5c-1.7-0.8-3.1-2-3.9-3.9c-1.7-3.7-0.6-9.3,5.6-10.7c2.8-0.6,5.3-0.6,8.2,0.3c2.3,0.6,4.8,1.4,7,2.3
			c0.6-1.4,1.1-2.8,1.7-4.2c0.6-1.7,0.6-1.7-1.1-2.3c-2.8-1.1-5.6-2.3-9-2.3c-0.8,0-1.4-0.6-1.4-1.4c0-0.6,0-1.4,0-2
			c0-2,0-3.7,0-5.6c-2,0-3.7,0-5.6,0C124.7,92,124.7,95.1,124.7,97.9z"/>
	</g>
	<g>
		<path class="st0" d="M46.2,174.2c-12.1,0-21.9-0.3-31.8-0.3c-0.8,0-2,0-2.8-0.3c-1.1,0-1.7-0.8-2-2c-0.6-2-0.6-3.9,0-5.9
			c0.3-1.4,1.1-2,2.8-2c4.5,0,9-0.3,13.5-0.3c10.1,0,20.5,0,30.7,0c6.5,0,12.7,0.3,19.1,0.3c2,0,2.8,0.6,3.1,2.5
			c0.3,1.7,0.3,3.4,0,5.1c-0.3,1.7-1.1,2.3-2.5,2.3C65.4,173.9,54.7,173.9,46.2,174.2z"/>
	</g>
	<g>
		<path class="st0" d="M44.3,156.7c-10.4-0.3-20.8-0.3-31.5-0.6c-2.5,0-3.4-1.1-3.4-3.4c0-1.4,0-2.8,0.3-4.2c0.3-1.4,1.1-2,2.5-2.3
			C18.4,146,24.8,146,31,146c12.4,0,25,0,37.4,0c2.5,0,5.3,0.3,7.9,0.3c1.1,0,2,0.6,2.3,1.7c0.6,2,0.6,4.2,0,6.2
			c-0.3,1.1-1.1,1.7-2.5,1.7c-4.8,0-9.6,0.3-14.6,0.3C55.8,156.4,49.9,156.4,44.3,156.7C44.3,156.4,44.3,156.7,44.3,156.7z"/>
	</g>
</g>
</svg>
