<?xml version="1.0" encoding="utf-8"?>
<!-- Generator: Adobe Illustrator 27.0.0, SVG Export Plug-In . SVG Version: 6.00 Build 0)  -->
<svg version="1.1" id="Capa_2_00000182511140418905644070000004041521490501084594_"
	 xmlns="http://www.w3.org/2000/svg" xmlns:xlink="http://www.w3.org/1999/xlink" x="0px" y="0px" viewBox="0 0 176.3 176.4"
	 style="enable-background:new 0 0 176.3 176.4;" xml:space="preserve">
<style type="text/css">
	.st0{fill:#3C97D3;}
	.st1{fill:#FFFFFF;}
	.st2{fill:none;stroke:#3C97D3;stroke-width:5.5511;stroke-miterlimit:10;}
</style>
<g>
	<g>
		<rect x="19.3" y="43.8" class="st0" width="137.7" height="130.5"/>
		<path class="st1" d="M26.8,129.8v-6.1h121.8c0,1.9,0.3,3.6,0.3,6.1H26.8z"/>
		<path class="st1" d="M27.4,74.6c-1.4-6.4-1.1-6.7,4.4-6.7c37.5,0,74.7,0,112.1,0h4.4c1.7,6.4,1.4,6.7-4.4,6.7
			c-37.5,0-74.9,0-112.4,0C29.9,74.6,28.5,74.6,27.4,74.6z"/>
		<path class="st1" d="M26.8,151.5h121.8v6.1H26.8V151.5z"/>
		<path class="st1" d="M26.5,96c1.7,0,2.8-0.3,3.9-0.3c38,0,76.1,0,114.1,0c1.9,0,4.2-0.8,4.4,2.5c0,2.8-0.6,4.2-3.6,4.2
			c-38.6,0-76.9,0-115.5,0C24.6,102.4,26.8,99,26.5,96z"/>
		<rect x="35.1" y="54.6" class="st1" width="20" height="15.8"/>
		<rect x="63.7" y="53" class="st1" width="20" height="15.8"/>
		<rect x="63.7" y="81.3" class="st1" width="20" height="15.8"/>
		<rect x="116.7" y="53" class="st1" width="20" height="15.8"/>
		<rect x="101.8" y="81.8" class="st1" width="35.2" height="15.8"/>
		<rect x="117" y="110.7" class="st1" width="20" height="15.8"/>
		<rect x="88.4" y="109" class="st1" width="20" height="15.8"/>
		<rect x="88.4" y="137.3" class="st1" width="20" height="15.8"/>
		<rect x="35.1" y="109" class="st1" width="20" height="15.8"/>
		<rect x="35.1" y="137.9" class="st1" width="35.2" height="15.8"/>
	</g>
	<g>
		<line class="st2" x1="90.1" y1="21" x2="90.1" y2="25.7"/>
		<g>
			<polygon class="st1" points="67.9,7.7 90.1,17.1 112,7.4 90.1,60.2 			"/>
			<path class="st0" d="M107,12.7L90.4,53L73.2,13l16.9,7.2L107,12.7 M117.3,2.2l-12.5,5.6l-14.7,6.4l-15-6.4L62.6,2.4l5.3,12.5
				l17.2,40l5.3,12.2l5-12.2L112,14.6L117.3,2.2L117.3,2.2L117.3,2.2z"/>
		</g>
	</g>
</g>
</svg>
