<?xml version="1.0" encoding="utf-8"?>
<!-- Generator: Adobe Illustrator 27.0.0, SVG Export Plug-In . SVG Version: 6.00 Build 0)  -->
<svg version="1.1" id="Capa_1" xmlns="http://www.w3.org/2000/svg" xmlns:xlink="http://www.w3.org/1999/xlink" x="0px" y="0px"
	 viewBox="0 0 384 384" style="enable-background:new 0 0 384 384;" xml:space="preserve">
<style type="text/css">
	.st0{fill:#2D2D2D;}
</style>
<g>
	<path class="st0" d="M133.2,377.6c-20.5,0-37.3-16.7-37.3-37.3c0-20.5,16.7-37.3,37.3-37.3c20.5,0,37.3,16.7,37.3,37.3
		C170.4,360.9,153.7,377.6,133.2,377.6z M133.2,316.1c-13.4,0-24.3,10.9-24.3,24.3c0,13.4,10.9,24.3,24.3,24.3
		c13.4,0,24.3-10.9,24.3-24.3C157.4,327,146.6,316.1,133.2,316.1z"/>
</g>
<g>
	<path class="st0" d="M261.6,377.6c-20.5,0-37.3-16.7-37.3-37.3c0-20.5,16.7-37.3,37.3-37.3s37.3,16.7,37.3,37.3
		C298.9,360.9,282.1,377.6,261.6,377.6z M261.6,316.1c-13.4,0-24.3,10.9-24.3,24.3c0,13.4,10.9,24.3,24.3,24.3s24.3-10.9,24.3-24.3
		C285.9,327,275,316.1,261.6,316.1z"/>
</g>
<path class="st0" d="M69.6,69.1c-2.2-8.4-5.6-18.5-11-29.4c-7-14-15-24.7-21.7-32.4c-7.3-4.1-14.7-2.1-16.7,1.9
	c-1.8,3.6,1,8.2,1.4,8.8c7.1,9.1,16.7,23.3,24.3,42.2c10,25,11.4,45.8,12.3,56.5c2.3,29.9,7.3,71.2,17.5,132.1
	c1.6,4.3,5,11.5,12.3,17.2c7.7,6.1,16.1,7.4,19.9,8c2.8,0.4,12.8,1.1,12.8,1.1l176.2,0.4c2.9-0.7,4.9-3.2,5.1-6
	c0.2-3-1.8-5.9-4.9-6.7c-62.2-0.6-124.4-1.1-186.6-1.7c-1.3,0-9.8-0.4-15.5-7.5c-4.3-5.3-4.4-11.2-4.4-12.9
	c36.6-4.4,77.4-9.8,121.8-16.3c76.9-11.3,97.9-16.3,114.4-35.5c15.6-18.2,22.5-43.4,28.7-66.3c5.9-21.7,8-40.4,8.9-53.4
	C266,69.1,167.8,69.1,69.6,69.1z M151.4,181.3c0,5.2-4.3,9.5-9.5,9.5s-9.5-4.3-9.5-9.5v-80.5c0-5.2,4.3-9.5,9.5-9.5s9.5,4.3,9.5,9.5
	V181.3z M211,181.3c0,5.2-4.3,9.5-9.5,9.5s-9.5-4.3-9.5-9.5v-80.5c0-5.2,4.3-9.5,9.5-9.5s9.5,4.3,9.5,9.5V181.3z M270.6,181.3
	c0,5.2-4.3,9.5-9.5,9.5s-9.5-4.3-9.5-9.5v-80.5c0-5.2,4.3-9.5,9.5-9.5s9.5,4.3,9.5,9.5V181.3z"/>
</svg>
