<?xml version="1.0" encoding="utf-8"?>
<!-- Generator: Adobe Illustrator 27.0.0, SVG Export Plug-In . SVG Version: 6.00 Build 0)  -->
<svg version="1.1" id="Capa_2_00000121245702204322117720000001837076288044592536_"
	 xmlns="http://www.w3.org/2000/svg" xmlns:xlink="http://www.w3.org/1999/xlink" x="0px" y="0px" viewBox="0 0 176.3 176.3"
	 style="enable-background:new 0 0 176.3 176.3;" xml:space="preserve">
<style type="text/css">
	.st0{fill:#BC0000;}
</style>
<g>
	<path class="st0" d="M161.9,96.7c-0.1,37-28.1,68.6-64.5,73.1c-37,4.5-71.7-19.2-80.8-55.2c-9-36,10-73.4,44.2-86.9
		c4.6-1.8,7.9-1.1,9.9,2.2c2.4,3.9,0.5,8-4.5,10.1c-15.6,6.4-26.9,17.3-33.6,32.8c-13.1,30.5,1.6,66.7,32.3,79.4
		c30.9,12.9,66.5-1.8,79.2-32.8c12.7-31-2.1-66.6-33-79.1c-0.5-0.2-1.1-0.4-1.6-0.7c-4.6-1.9-6.5-5.2-5.1-8.9c1.5-4,5.2-5.3,10-3.6
		C142.6,37.6,162,65.9,161.9,96.7z"/>
	<path class="st0" d="M94.9,43c0,9.6,0.1,19.2,0,28.8c0,5.1-2.8,8.1-7.1,7.9c-3.6-0.1-6.4-2.7-6.4-6.8c-0.1-20.1-0.1-40.1,0-60.2
		c0-4.2,3-6.9,6.8-6.8c3.9,0,6.6,2.8,6.7,7.4C95,23.3,94.9,33.1,94.9,43z"/>
</g>
</svg>
