<?xml version="1.0" encoding="utf-8"?>
<!-- Generator: Adobe Illustrator 27.0.0, SVG Export Plug-In . SVG Version: 6.00 Build 0)  -->
<svg version="1.1" id="Capa_2_00000104685612074434174170000012478027565612899001_"
	 xmlns="http://www.w3.org/2000/svg" xmlns:xlink="http://www.w3.org/1999/xlink" x="0px" y="0px" viewBox="0 0 176.3 176.3"
	 style="enable-background:new 0 0 176.3 176.3;" xml:space="preserve">
<style type="text/css">
	.st0{fill:#3C97D3;}
</style>
<g>
	<path class="st0" d="M175.7,52c-2.6,2.8-5.3,5.6-7.9,8.5c-0.3,0.4-0.6,1-0.6,1.5c-0.1,2,0,4,0,6c0,0.4-0.1,0.8-0.4,1.1
		c-10.6,10.4-21.3,20.9-31.9,31.3c-0.1,0.1-0.1,0.1-0.2,0.2c-1.9,1.9-2.5,2-4.9,0.1c-1.1-0.9-2.1-2-3.1-3c-1-1.1-1.2-1.9-0.3-3.1
		c1.7-2.1,3.4-4.1,5.3-6c7.9-7.9,15.9-15.8,23.9-23.7c0.5-0.5,0.8-1.1,0.8-1.9c-0.1-1.4,0-2.8,0-4.2c0-0.5-0.2-1-0.6-1.3
		c-1.9-2.1-4-4.1-5.9-6.2c-1.4-1.5-1.5-2.2,0-3.7c3.2-3.3,6.4-6.6,9.7-9.8c1.5-1.4,2.3-1.4,3.8,0c2.5,2.2,4.9,4.6,7.2,6.9
		c1.9,1.9,3.6,3.9,5.3,5.8C175.7,51.1,175.7,51.6,175.7,52z"/>
	<path class="st0" d="M36.3,158.6c-2.9,5.7-5.7,11.3-8.6,16.8c-0.1,0.3-0.6,0.6-0.8,0.6c-6.3-0.1-12.6-0.1-18.9-0.3
		c-0.8,0-1.8-0.5-2.5-1c-2.2-1.5-3.8-3.5-4.7-6c-0.1-0.3-0.1-0.6-0.1-0.9c0-30.7,0-61.5,0-92.2c0-11.3,0-22.6,0.1-33.8
		c0-4.4,0.1-8.7,0.3-13.1c0.1-1.9,1.3-3.3,2.6-4.5c1.7-1.7,3.6-2.7,6.1-2.8c4.7,0,9.4-0.1,14.1-0.1c1.8,0,3.6,0,5.4,0
		c0,5.9,0,11.8,0,17.8c-2.2,0-4.4,0-6.5,0c-0.8,0-1.7,0.1-2.5,0.1c-1.1,0-1.4,0.7-1.4,1.6c-0.1,2.3-0.2,4.6-0.2,6.9
		c0,33.5,0,67,0,100.6c0,2.7,0.1,5.4,0.2,8.1c0,1.6,0.1,1.7,1.7,1.8c4.9,0.2,9.8,0.3,14.8,0.5C35.5,158.6,35.8,158.6,36.3,158.6z"/>
	<path class="st0" d="M143.7,50.7c2.6,2.6,5.2,5.2,7.7,7.8c0.2,0.3,0.4,0.7,0.5,1c0.5,3.1,0.4,3.2-1.8,5.4
		c-9.1,9.1-18.2,18.2-27.2,27.4c-0.6,0.6-1.2,1.3-1.8,2.1c-0.8,1-0.9,1.8,0,2.8c1.6,1.9,3.4,3.7,5.1,5.5c0.2,0.3,0.6,0.4,1,0.7
		c-1.3,1.2-2.3,2.3-3.4,3.3c-9.6,9.4-19.1,18.9-28.7,28.3c-9.3,9.2-18.6,18.3-27.9,27.5c-0.3,0.3-0.8,0.4-1.2,0.4
		c-1.1-0.1-2.1-0.1-3,0.4c-5.7,3-11.4,6.1-17.2,9.1c-1.8,1-3.7,1.8-5.6,2.7c-0.5,0.2-1,0.3-1.5,0.5c-1.1,0.3-1.9-0.2-2.6-1
		c-0.7-0.8-0.7-1.6-0.2-2.4c1.6-3,3.1-6,4.7-9c2.5-4.7,5-9.3,7.5-14c0.5-1,0.8-2,0.5-3.2c-0.1-0.4,0.1-1,0.4-1.3
		c10.5-10.4,21-20.8,31.5-31.2c8.2-8.1,16.4-16.2,24.5-24.3c12.7-12.6,25.4-25.1,38.2-37.7C143.3,51,143.4,50.9,143.7,50.7z
		 M51.8,150.5c-3.9,6.9-7.7,13.6-11.5,20.4c0.1,0,0.1,0.1,0.2,0.1c6.8-3.8,13.5-7.6,20.6-11.5C57.9,156.4,54.9,153.5,51.8,150.5z"/>
	<path class="st0" d="M48.4,175.9c2.1-0.8,4.2-1.6,6.3-2.4c4.5-1.7,8.9-3.4,13.3-5.3c1.1-0.5,2.1-1.5,3-2.4c2.1-2.2,4.1-4.4,6.1-6.7
		c0.5-0.5,0.9-0.7,1.6-0.7c9.5,0,18.9,0,28.4,0c2.8,0,5.5-0.1,8.2-0.3c1.1-0.1,1.8-0.5,1.8-2c-0.1-11.4,0-22.8,0-34.1
		c0-0.7,0.2-1.1,0.7-1.6c5.4-5.1,10.8-10.3,16.2-15.4c0.2-0.2,0.4-0.4,0.8-0.7c0,3,0,5.7,0,8.4c0,17.9,0,35.8,0,53.7
		c0,3.7-1.7,6.4-4.7,8.4c-1.5,1-3.4,1-5.2,1.1c-4.2,0.1-8.4,0.2-12.5,0.2c-17.4,0-34.8,0-52.2,0c-3.9,0-7.8,0-11.8,0
		C48.4,176.1,48.4,176,48.4,175.9z"/>
	<path class="st0" d="M58.2,11.6c0-2.1-0.1-4.2,0-6.2c0.2-3.4,1.7-4.7,5.1-4.7c3.6,0,7.1,0,10.7,0c0.7,0,1.1,0.2,1.6,0.7
		c1.3,1.2,1.9,2.5,1.8,4.3c-0.2,1.9,0,3.8,0,5.8c0.3,0,0.6,0.1,0.9,0.1c5.5,0.1,11,0.1,16.5,0.2c0.6,0,1,0.3,1.5,0.7
		c1.4,1.2,1.8,2.6,1.7,4.4c-0.1,7.7-0.1,15.3-0.2,23c0,3.5-0.9,4.3-4.4,4.4c-12.1,0.1-24.2,0.2-36.3,0.2c-5.1,0-10.2-0.2-15.4-0.2
		c-2.3,0-3.9-1.6-3.9-3.8c-0.1-8-0.1-16-0.2-24c0-0.7,0.1-1.4,0.3-2c0.5-1.8,1.8-2.7,4-2.7c5.1-0.1,10.1-0.1,15.2-0.2
		C57.4,11.6,57.6,11.6,58.2,11.6z M67.6,33.3c0,0.1,0,0.1,0,0.2c2.7,0,5.3,0,8,0c3.4-0.1,6.7-0.2,10.1-0.3c0.7,0,1-0.4,1-1
		c0-2.8,0-5.6,0-8.3c0-0.6-0.3-1.1-1.1-1.1c-0.7,0-1.4-0.1-2-0.1c-8.4-0.1-16.8-0.1-25.1-0.1c-2.8,0-5.7,0.2-8.5,0.3
		c-0.9,0-1.3,0.5-1.3,1.3c0,2.5-0.1,5,0,7.5c0.1,1.6,0.3,1.7,1.9,1.7C56.2,33.4,61.9,33.3,67.6,33.3z"/>
	<path class="st0" d="M67.9,78.6c-11,0-22,0-33,0c-0.5,0-0.9,0-1.4-0.1c-2.6-0.2-3.9-1.1-4.1-3.6c-0.2-2.9-0.2-5.8,0-8.7
		c0.2-2.6,1.5-3.6,4.1-3.7c2.6-0.1,5.1-0.2,7.7-0.2c16.2,0,32.4,0,48.5,0c4.1,0,8.3,0.2,12.4,0.4c2.6,0.1,3.5,0.8,3.6,3.3
		c0.2,3.2,0.1,6.5-0.1,9.7c-0.1,1.6-1.4,2.7-3.1,2.8c-2.9,0.1-5.9,0.2-8.8,0.2C85.2,78.8,76.5,78.7,67.9,78.6
		C67.9,78.7,67.9,78.7,67.9,78.6z"/>
	<path class="st0" d="M94.5,90.1c-1.2,1.1-2.5,2.3-3.7,3.4c-4.1,4.1-8.2,8.2-12.3,12.2c-0.3,0.3-0.8,0.5-1.3,0.5
		c-12.2,0-24.4,0-36.6,0c-2.4,0-4.7-0.1-7.1-0.2c-2.7-0.1-4-1.1-4.2-3.7c-0.2-3-0.2-6,0-9c0.2-2.3,1.5-3.4,3.8-3.4
		c6.5-0.1,13-0.2,19.5-0.2c13.7,0,27.4,0,41,0c0.1,0,0.2,0,0.3,0C94.4,89.9,94.4,90,94.5,90.1z"/>
	<path class="st0" d="M106.1,39c0-6,0-11.9,0-17.8c2,0,4,0,6,0c4.9,0,9.8,0.1,14.8,0.1c0.6,0,1.4,0.2,1.9,0.5
		c1.3,0.8,2.6,1.7,3.7,2.7c2,1.8,2.3,4.3,2.3,6.8c0.1,6,0.1,12,0.1,18c0,0.3-0.2,0.6-0.4,0.8c-5.7,5.8-11.5,11.5-17.4,17.4
		c0-0.4-0.1-0.6-0.1-0.9c0-8.5,0-16.9,0-25.4c0-1.3-0.5-2-1.8-2.1c-2.2-0.1-4.5-0.2-6.7-0.2C107.8,39,107,39,106.1,39z"/>
</g>
</svg>
