<?xml version="1.0" encoding="utf-8"?>
<!-- Generator: Adobe Illustrator 27.0.0, SVG Export Plug-In . SVG Version: 6.00 Build 0)  -->
<svg version="1.1" id="Capa_2_00000106839401687132192490000001483220548309457567_"
	 xmlns="http://www.w3.org/2000/svg" xmlns:xlink="http://www.w3.org/1999/xlink" x="0px" y="0px" viewBox="0 0 176.3 176.4"
	 style="enable-background:new 0 0 176.3 176.4;" xml:space="preserve">
<style type="text/css">
	.st0{enable-background:new    ;}
	.st1{fill:#3C97D3;}
</style>
<g id="Capa_1-2">
	<g>
		<g>
			<g class="st0">
				<path class="st1" d="M40,89.6c-10.2,0-18.3-2.6-24.3-7.9c-6-5.3-9.3-12.3-9.9-21.2c-0.3-3.9-0.4-7.2-0.3-10.1
					c0.1-2.9,0.2-6.4,0.3-10.6c0.4-9,3.6-16.3,9.4-21.7C21,12.7,29.3,10,40,10s18.9,2.7,24.7,8.1c5.8,5.4,8.9,12.6,9.3,21.7
					c0.3,4.2,0.4,7.7,0.4,10.6c0,2.9-0.1,6.3-0.4,10.1c-0.4,8.9-3.7,16-9.8,21.2C58.1,87,50,89.6,40,89.6z M22.2,166.8
					c-3.4,0-5.1-1.5-5.1-4.4c0-0.9,0.3-1.7,0.9-2.4L127.8,15.4c1-1.3,2.1-2.4,3.1-3.1c1-0.7,2.6-1.1,4.7-1.1h15.8
					c3.4,0,5.1,1.5,5.1,4.4c0,0.9-0.3,1.7-0.9,2.4L45.7,162.6c-1,1.3-2.1,2.4-3.1,3.1c-1,0.7-2.6,1.1-4.7,1.1H22.2z M40,70.5
					c2.4,0,4.3-0.6,5.8-1.7c1.5-1.1,2.6-2.5,3.3-4.2c0.7-1.7,1.1-3.4,1.1-5.2c0.3-3.4,0.4-6.5,0.4-9.3c0-2.8-0.1-5.9-0.4-9.1
					c-0.1-2.8-1-5.4-2.6-7.7c-1.6-2.3-4.1-3.4-7.7-3.4c-3.7,0-6.3,1.1-7.9,3.4c-1.6,2.3-2.4,4.9-2.6,7.7c-0.1,3.3-0.2,6.3-0.2,9.1
					c0,2.8,0.1,5.9,0.2,9.3c0.1,1.8,0.6,3.5,1.2,5.2c0.7,1.7,1.7,3.1,3.2,4.2C35.4,70,37.4,70.5,40,70.5z M134,167.9
					c-10.1,0-18.1-2.7-24.1-8s-9.4-12.5-10.1-21.3c-0.1-3.9-0.2-7.3-0.2-10.2c0-3,0.1-6.5,0.2-10.7c0.6-9,3.8-16.3,9.7-21.7
					c5.9-5.4,14-8.1,24.6-8.1c10.7,0,18.9,2.7,24.7,8.1c5.8,5.4,9,12.6,9.6,21.7c0.3,4.2,0.4,7.7,0.4,10.7c0,3-0.1,6.4-0.4,10.2
					c-0.6,8.9-3.9,16-10,21.3C152.2,165.2,144.1,167.9,134,167.9z M134,148.3c2.5,0,4.5-0.5,5.9-1.6c1.4-1,2.5-2.4,3.2-4.1
					c0.7-1.7,1.1-3.5,1.1-5.4c0.3-3.4,0.4-6.5,0.4-9.3c0-2.8-0.1-5.9-0.4-9.1c-0.1-2.8-1-5.4-2.4-7.7c-1.5-2.3-4.1-3.4-7.8-3.4
					c-3.7,0-6.3,1.1-7.8,3.4c-1.5,2.3-2.3,4.9-2.4,7.7c-0.1,3.3-0.2,6.3-0.2,9.1c0,2.8,0.1,5.9,0.2,9.3c0.1,1.9,0.6,3.7,1.2,5.4
					c0.7,1.7,1.7,3.1,3.2,4.1C129.7,147.8,131.6,148.3,134,148.3z"/>
			</g>
		</g>
	</g>
</g>
</svg>
