<?xml version="1.0" encoding="utf-8"?>
<!-- Generator: Adobe Illustrator 27.0.0, SVG Export Plug-In . SVG Version: 6.00 Build 0)  -->
<svg version="1.1" id="Capa_2_00000158013411504092451720000004466124251884180920_"
	 xmlns="http://www.w3.org/2000/svg" xmlns:xlink="http://www.w3.org/1999/xlink" x="0px" y="0px" viewBox="0 0 176.3 176.4"
	 style="enable-background:new 0 0 176.3 176.4;" xml:space="preserve">
<style type="text/css">
	.st0{fill:#3C96D3;}
	.st1{fill:none;}
</style>
<path class="st0" d="M165.5,84.6c-0.7-0.7-1.8-0.8-2.5-0.1l-0.2,0.2h-0.1v0.1L141.2,107l-32.7-32.7l-1-1l57.7-59.7
	c0.6-0.3,1.1-0.9,1.1-1.6c0-1-0.8-1.8-1.8-1.8h-56.8v42.6L88.2,35.1L68.6,52.9V10.3H15.4c-2.9,0-5.3,2.4-5.3,5.3v127.8
	c0,2.9,2.4,5.3,5.3,5.3h29.3c0,0.6,0,1.1,0.1,1.7c0.8,2.9,2.6,5.5,5.2,7.1c1.8,1.1,3.9,1.7,6.1,1.7c1,0,2.1-0.1,3.1-0.3
	c0.9-0.2,1.7-0.7,2.4-1.3c0.8,1.8,2.1,3.3,3.7,4.4c1.7,1.1,3.6,1.6,5.6,1.6c1.7,0,3.3-0.4,4.8-1.2c0.7-0.3,1.2-0.8,1.7-1.4
	c0.9,1.4,2.1,2.6,3.5,3.5c1.5,0.9,3.3,1.3,5,1.3c0.9,0,1.7-0.1,2.6-0.3c1.3-0.3,2.5-1.2,3.2-2.4l1.1-1.7c1.6,2.8,4.6,4.7,8,4.7
	c1.2,0,2.4-0.3,3.6-0.7c1.1-0.5,2.1-1.3,2.6-2.4l7.4-14.3v0.1h46.8c2.9,0,5.3-2.4,5.3-5.3V84.6L165.5,84.6
	C165.5,84.6,165.5,84.6,165.5,84.6z M103.7,161.5c-0.2,0.4-0.5,0.6-0.8,0.8c-0.6,0.3-1.3,0.4-2,0.5c-3,0.1-5.6-2.2-5.9-5.2l7-11.5
	l-3-1.8l-10.4,17.1c-0.2,0.4-0.6,0.7-1,0.8c-0.1,0-0.3,0.1-0.4,0.1c-3.4,0.7-6.7-1.4-7.6-4.7l11.6-18.3l-3-1.9l-13.7,21.5
	c-0.1,0.2-0.3,0.4-0.6,0.6c-2.2,1.1-4.7,1-6.8-0.3c-1.7-1.2-2.8-3-3-5.1l15.2-22.3l-3-2l-17,25c-0.2,0.4-0.6,0.6-1.1,0.7
	c-2.2,0.6-4.5,0.3-6.4-0.9c-1.8-1.1-3-2.9-3.6-4.9c-0.1-0.4-0.1-0.8,0.1-1.2l0.2-0.3l0.2-0.3c3.9-5.6,17.5-24.9,26.1-36.7l-0.1-0.1
	c0.3-0.5,0.3-1.1,0.1-1.6c-0.4-0.9-1.5-1.3-2.3-0.9l-12.1,7.2c-1.7,0.8-3.6,1.2-5.5,1c-2.7-0.3-5.3-1.6-7.1-3.7l26.5-18.2
	c4.2-2.9,9.1-4.4,14.2-4.3l14-1l25.2,25.2L103.7,161.5z M133.3,115.2l-31.6-31.6l5.5-5.5l31.5,31.5L133.3,115.2z"/>
<rect x="0.7" y="9.8" class="st1" width="177.5" height="177.5"/>
</svg>
