<?xml version="1.0" encoding="utf-8"?>
<!-- Generator: Adobe Illustrator 27.0.0, SVG Export Plug-In . SVG Version: 6.00 Build 0)  -->
<svg version="1.1" id="Capa_2_00000158013411504092451720000004466124251884180920_"
	 xmlns="http://www.w3.org/2000/svg" xmlns:xlink="http://www.w3.org/1999/xlink" x="0px" y="0px" viewBox="0 0 176.3 176.4"
	 style="enable-background:new 0 0 176.3 176.4;" xml:space="preserve">
<style type="text/css">
	.st0{fill:#3C97D3;}
</style>
<g id="Capa_1-2">
	<g>
		<g>
			<path class="st0" d="M81.3,1.7c0,5.1,0.3,9.8,0,14.6c-0.3,5.1,2.1,6,6.3,4.2c7.8-3.9,4.8-3.9,12.5,0c0.3,0.3,0.6,0.3,0.9,0.6
				c2.4,1.2,4.5,0,4.5-3c0-4.8,0-9.5,0-14c0-0.6,0-1.5,0-2.4c0.9,0,1.5,0,2.1,0c10.7,0,21.5,0,32.2,0c3.6,0,5.1,1.2,5.1,4.8
				c0,25.7,0,51,0,76.7c0,3.9-1.2,4.8-5.1,4.8c-8.1,0-15.8,0-23.9,0c-1.2,0-2.1-0.3-2.7-1.5c-3.6-6.6-7.5-13.1-11.3-19.7
				c-3.3-6-9.8-6-13.1,0c-3.9,6.6-7.5,13.1-11.3,19.7c-0.6,1.2-1.5,1.5-2.7,1.5c-9.5,0-18.8,0-28.3,0c-3.3,0-4.8-1.2-4.8-4.5
				c0-26,0-51.6,0-77.6c0-3,1.5-4.5,4.2-4.5c11.3,0,22.7,0,34,0C80.4,1.7,80.7,1.7,81.3,1.7z M80.7,44.3c0.3,0,0.3,0,0.6-0.3
				c1.5,1.5,3,3,4.5,4.8c0.9,0.9,1.8,1.5,3,0.6c1.2-1.2,0.6-2.1-0.3-3.3c-2.7-2.7-5.1-5.1-7.8-7.8c-1.5-1.5-2.4-1.5-3.6,0
				c-2.7,2.4-5.1,5.1-7.5,7.5c-0.9,0.9-1.8,2.1-0.6,3c1.2,1.2,2.4,0.6,3.3-0.6c1.5-1.5,3-3,4.8-5.1c0,1.2,0,1.8,0,2.4
				c0,5.4,0,10.4,0,15.8c0,1.2,0.6,2.1,1.8,2.1c1.5,0,1.8-0.9,1.8-2.1c0-3,0-6.3,0-9.2C80.7,49.7,80.7,47,80.7,44.3z M110,44.3
				c0.3,0,0.3,0,0.6,0c1.5,1.5,3,3.3,4.8,4.8c0.6,0.6,2.1,0.6,2.7,0.3c1.2-0.6,0.9-1.8,0-2.7c-2.7-2.7-5.4-5.4-8.4-8.4
				c-0.9-0.9-2.1-1.2-3,0c-2.7,2.7-5.7,5.7-8.4,8.4c-0.6,0.6-0.6,1.8-0.3,2.4c0.9,1.2,2.1,0.9,3,0c1.8-1.5,3.3-3.3,5.4-5.4
				c0,1.2,0,1.8,0,2.4c0,5.1,0,10.1,0,15.2c0,1.2,0.3,2.4,1.8,2.4c1.8,0,2.1-1.2,2.1-2.4c0-3.6,0-7.2,0-10.7
				C110,48.8,110,46.7,110,44.3z"/>
			<path class="st0" d="M42.3,155.9c0-15.5,0-31,0-46.8c4.8,0.3,9.5,0,14,0.9c2.4,0.3,5.1,1.8,7.2,3.6c5.4,3.9,10.4,8.1,15.8,12.5
				c5.4,4.5,11.3,6.6,18.2,6.6c7.2,0,14.3,0,21.5,0c3.3,0,5.4,1.5,6.3,4.2c1.2,3.9-1.8,7.5-6,7.5c-7.8,0-15.5,0-23.3,0
				c-1.5,0-3.3-0.3-3.3,1.8c0,1.5,0.9,2.1,3.3,2.1c7.5,0,14.9,0,22.4,0c3.3,0,5.7-0.9,8.4-3c1.5-1.2,3.3-2.1,5.4-2.7
				c9.5-3,19.4-6,28.9-8.9c4.8-1.5,8.7,0.3,10.1,4.8c1.5,4.2-0.6,8.4-5.4,10.1c-22.4,8.4-44.7,17-66.8,25.4
				c-0.6,0.3-1.5,0.6-2.1,1.2c0.6,0-16.7,0-15.5,0c-0.6-0.6-0.9-0.9-1.2-0.9c-7.8-4.8-15.8-9.5-23.6-14.3
				C52.1,156.8,47.3,155.6,42.3,155.9z"/>
			<path class="st0" d="M38.4,133.2c0,8.9,0,17.9,0,26.8c0,4.2-1.5,5.7-5.7,5.7c-7.5,0-14.9,0-22.1,0c-3.9,0-5.7-1.5-5.7-5.7
				c0-17.9,0-36.1,0-54c0-4.2,1.5-5.7,5.7-5.7c7.5,0,14.9,0,22.4,0c3.6,0,5.4,1.8,5.4,5.4C38.4,114.7,38.4,124,38.4,133.2z
				 M21.7,155.6c3.6,0,6.6-2.7,6.6-6.3s-2.7-6.6-6.3-6.6c-3.6,0-6.6,2.7-6.6,6.6C15.1,152.6,18.1,155.6,21.7,155.6z"/>
			<path class="st0" d="M106.4,128.5c-6.9-0.3-13.4,0.9-19.7-2.1c-1.2-0.6-1.8-1.2-1.5-2.7c0-6.3,0-12.8,0-19.1c0-0.6,0-1.5,0-2.4
				c-2.1,0-3.9,0-6,0c-3.3,0-4.8-2.4-3-5.4c5.4-9.5,11-19.1,16.4-28.6c1.5-2.7,4.5-2.7,6.3,0c5.4,9.5,11,19.1,16.4,28.3
				c1.8,3,0.3,5.4-3.3,5.4c-1.8,0-3.6,0-5.7,0C106.4,111.2,106.4,119.8,106.4,128.5z"/>
		</g>
	</g>
</g>
</svg>
