<?xml version="1.0" encoding="utf-8"?>
<!-- Generator: Adobe Illustrator 27.0.0, SVG Export Plug-In . SVG Version: 6.00 Build 0)  -->
<svg version="1.1" id="Capa_2_00000094603420451832205820000009108904716797655219_"
	 xmlns="http://www.w3.org/2000/svg" xmlns:xlink="http://www.w3.org/1999/xlink" x="0px" y="0px" viewBox="0 0 176.3 176.4"
	 style="enable-background:new 0 0 176.3 176.4;" xml:space="preserve">
<style type="text/css">
	.st0{fill:#3C97D3;}
	.st1{fill:#FFFFFF;}
	.st2{fill:none;stroke:#FFFFFF;stroke-width:6.2553;stroke-miterlimit:10;}
</style>
<g id="Capa_1-2">
	<g>
		<path class="st0" d="M40,2.7h96.6c10.1,0,18.4,8.2,18.4,18.4v134.2c0,10.1-8.2,18.4-18.4,18.4H40c-10.1,0-18.4-8.2-18.4-18.4V21.1
			C21.7,11,29.9,2.7,40,2.7z"/>
		<path class="st1" d="M59.5,29.3c-0.3,0-0.5-0.1-0.8-0.4c-0.8-0.8-1.3-2.3-1.4-4c0,0.1-0.1,0.2-0.1,0.3c-0.5,1.7-1.2,4.3-2.4,3
			c-0.2-0.2-0.3-0.4-0.4-0.6c-1.2,0.9-2.7,0.8-4.5-0.4c-1.2,0.5-2.3,0.4-3.3-0.3c-0.9-0.6-1.6-1.5-2-2.2C44,24.2,43.9,24,43.7,24
			l0,0c-0.2,0-0.3,0.3-0.8,1.1c-0.3,0.5-0.6,1.1-0.9,1.6c-1.9,2.8-4.6,3-8.1,0.6l0.9-5.9c2.6,1.8,4.4,1.8,5.6,0.2
			c0.2-0.3,0.4-0.7,0.6-1.1c0.6-1.1,1.4-2.6,2.7-2.7c1.2,0,1.8,1,2.4,1.9c0.4,0.6,0.8,1.1,1.3,1.4c0.7,0.4,1.4,0.4,2.2,0l0.4-0.3
			l0.4,0.3c1.1,0.8,2.5,1.5,3.3,0.4c0.3-0.4,0.6-1.2,0.8-1.8c0.5-1.4,1-2.1,1.6-2c0.7-1.7,1.4-2.8,2.3-2.3c1.3,0.7,1.5,3.8,1.6,5.8
			c0,0.3,0,0.6,0.1,0.9c0.7-1.1,1.7-2.6,3.1-2.4c1.1,0.1,1.8,1.1,2.4,1.8c0.1,0.1,0.1,0.2,0.2,0.2c0.2-0.7,0.5-1.4,1-1.9
			c1.2-1.3,2.3-0.1,3.1,0.8c0.6,0.6,1,1.2,1.6,1.1c0.2,0,0.2,0,0.5-0.4c0.3-0.4,0.7-0.9,1.3-1.4c1.9-1.5,3.4-0.7,4.8,0.2
			c0.9,0.5,1.9,1.1,3.2,1.1c1.3,0,2.5-0.5,3.8-1.6l1,5.8c-1.6,1.3-3.3,2.1-4.9,2c-1.6,0-2.8-0.7-3.8-1.3c-1.3-0.7-2.1-1.1-3.1-0.3
			c-0.3,0.3-0.5,0.5-0.8,0.8c-0.4,0.6-0.9,1.3-1.9,1.3c-1.3,0.1-2.3-1-3-1.8c-0.1-0.2-0.3-0.3-0.4-0.5c-0.2,0.8-0.5,1.6-1.1,2.2
			c-1.2,1.1-2.2-0.2-2.8-1c-0.4-0.5-0.7-0.9-1.1-1c-0.4-0.1-0.8,0.5-1.3,1.4C61,28.2,60.3,29.3,59.5,29.3L59.5,29.3z"/>
		<path class="st1" d="M59.5,46.9c-0.3,0-0.5-0.1-0.8-0.4c-0.8-0.8-1.3-2.3-1.4-4c0,0.1-0.1,0.2-0.1,0.3c-0.5,1.7-1.2,4.3-2.4,3
			c-0.2-0.2-0.3-0.4-0.4-0.6c-1.2,0.9-2.7,0.8-4.5-0.4c-1.2,0.5-2.3,0.4-3.3-0.3c-0.9-0.6-1.6-1.5-2-2.2c-0.4-0.7-0.6-0.8-0.8-0.8
			l0,0c-0.2,0-0.3,0.3-0.8,1.1c-0.3,0.5-0.6,1.1-0.9,1.6c-1.9,2.8-4.6,3-8.1,0.6l0.9-5.9c2.6,1.8,4.4,1.8,5.6,0.2
			c0.2-0.3,0.4-0.7,0.6-1.1c0.6-1.1,1.4-2.6,2.7-2.7c1.2,0,1.8,1,2.4,1.9c0.4,0.6,0.8,1.1,1.3,1.4c0.7,0.4,1.4,0.4,2.2,0l0.4-0.3
			l0.4,0.3c1.1,0.8,2.5,1.5,3.3,0.4c0.3-0.4,0.6-1.2,0.8-1.8c0.5-1.4,1-2.1,1.6-2c0.7-1.7,1.4-2.8,2.3-2.3c1.3,0.7,1.5,3.8,1.6,5.8
			c0,0.3,0,0.6,0.1,0.9c0.7-1.1,1.7-2.6,3.1-2.4c1.1,0.1,1.8,1.1,2.4,1.8c0.1,0.1,0.1,0.2,0.2,0.2c0.2-0.7,0.5-1.4,1-1.9
			c1.2-1.3,2.3-0.1,3.1,0.8c0.6,0.6,1,1.2,1.6,1.1c0.2,0,0.2,0,0.5-0.4c0.3-0.4,0.7-0.9,1.3-1.4c1.9-1.5,3.4-0.7,4.8,0.2
			c0.9,0.5,1.9,1.1,3.2,1.1c1.3,0,2.5-0.5,3.8-1.6l1,5.8c-1.6,1.3-3.3,2.1-4.9,2c-1.6,0-2.8-0.7-3.8-1.3c-1.3-0.7-2.1-1.1-3.1-0.3
			c-0.3,0.3-0.5,0.5-0.8,0.8c-0.4,0.6-0.9,1.3-1.9,1.3c-1.3,0.1-2.3-1-3-1.8c-0.1-0.2-0.3-0.3-0.4-0.5c-0.2,0.8-0.5,1.6-1.1,2.2
			c-1.2,1.1-2.2-0.2-2.8-1c-0.4-0.5-0.7-0.9-1.1-1c-0.4-0.1-0.8,0.5-1.3,1.4C61,45.8,60.3,46.9,59.5,46.9L59.5,46.9z"/>
		<rect x="40.2" y="55.2" class="st2" width="97.2" height="97.4"/>
		<line class="st2" x1="75.1" y1="54.5" x2="75.1" y2="151.7"/>
		<line class="st2" x1="117.5" y1="54.5" x2="117.5" y2="151.7"/>
		<rect x="107.9" y="18.7" class="st1" width="26.9" height="22.9"/>
	</g>
</g>
</svg>
