<?xml version="1.0" encoding="utf-8"?>
<!-- Generator: Adobe Illustrator 27.0.0, SVG Export Plug-In . SVG Version: 6.00 Build 0)  -->
<svg version="1.1" id="Capa_1" xmlns="http://www.w3.org/2000/svg" xmlns:xlink="http://www.w3.org/1999/xlink" x="0px" y="0px"
	 viewBox="0 0 384 384" style="enable-background:new 0 0 384 384;" xml:space="preserve">
<style type="text/css">
	.st0{fill:#2D2D2D;}
</style>
<g>
	<path class="st0" d="M290.8,85.9h40l-75.3-75.3v40C255.4,70,271.3,85.9,290.8,85.9z"/>
	<path class="st0" d="M290.8,102.9c-28.9,0-52.4-23.5-52.4-52.4V2H75.3c-1.5-0.1-13.8-0.7-22.4,9.1c-7.3,8.3-6.8,18.1-6.7,20
		c0,114.2,0,228.4,0,342.6c0,3.3,4,4.9,6.3,2.5c9.3-9.8,26.2-27.4,32.7-34.1c1.4-1.5,3.8-1.5,5.2,0l38.8,38.8c1.4,1.4,3.7,1.4,5.2,0
		l29.6-29.6c1.4-1.4,3.7-1.4,5.2,0l27.4,27.4c1.4,1.4,3.7,1.4,5.2,0l30-30c1.4-1.4,3.7-1.4,5.2,0l29.2,29.2c1.4,1.4,3.7,1.4,5.2,0
		l29.5-29.5c1.4-1.4,3.7-1.4,5.2,0l25.8,25.8c2.3,2.3,6.2,0.7,6.2-2.6V102.9H290.8z M158.7,246.3c0,5.9-4.8,10.7-10.7,10.7h-36
		c-5.9,0-10.7-4.8-10.7-10.7v0c0-5.9,4.8-10.7,10.7-10.7h36C153.9,235.5,158.7,240.3,158.7,246.3L158.7,246.3z M148,215.3h-36
		c-5.9,0-10.7-4.8-10.7-10.7s4.8-10.7,10.7-10.7h36c5.9,0,10.7,4.8,10.7,10.7S153.9,215.3,148,215.3z M148,173.6h-36
		c-5.9,0-10.7-4.8-10.7-10.7s4.8-10.7,10.7-10.7h36c5.9,0,10.7,4.8,10.7,10.7S153.9,173.6,148,173.6z M278.9,296.4
		c0,5.9-4.8,10.7-10.7,10.7h-36c-5.9,0-10.7-4.8-10.7-10.7v0c0-5.9,4.8-10.7,10.7-10.7h36C274.1,285.7,278.9,290.5,278.9,296.4
		L278.9,296.4z M280.8,246.3c0,5.9-4.8,10.7-10.7,10.7h-83.4c-5.9,0-10.7-4.8-10.7-10.7v0c0-5.9,4.8-10.7,10.7-10.7h83.4
		C276,235.5,280.8,240.3,280.8,246.3L280.8,246.3z M270.1,215.3h-83.4c-5.9,0-10.7-4.8-10.7-10.7s4.8-10.7,10.7-10.7h83.4
		c5.9,0,10.7,4.8,10.7,10.7S276,215.3,270.1,215.3z M270.1,173.6h-83.4c-5.9,0-10.7-4.8-10.7-10.7s4.8-10.7,10.7-10.7h83.4
		c5.9,0,10.7,4.8,10.7,10.7S276,173.6,270.1,173.6z"/>
</g>
</svg>
