<?xml version="1.0" encoding="utf-8"?>
<!-- Generator: Adobe Illustrator 27.0.0, SVG Export Plug-In . SVG Version: 6.00 Build 0)  -->
<svg version="1.1" id="Capa_1" xmlns="http://www.w3.org/2000/svg" xmlns:xlink="http://www.w3.org/1999/xlink" x="0px" y="0px"
	 viewBox="0 0 384 384" style="enable-background:new 0 0 384 384;" xml:space="preserve">
<style type="text/css">
	.st0{fill:#2D2D2D;}
</style>
<path class="st0" d="M29.1,354.9V15.5C29.1,8.1,23,2,15.5,2h0C8.1,2,2,8.1,2,15.5v339.4V382h27.1h339.4c7.5,0,13.5-6.1,13.5-13.5v0
	c0-7.5-6.1-13.5-13.5-13.5H29.1z"/>
<path class="st0" d="M335.6,307.6l-14.4-62.4l-6.1,10.1l-80.8-111.6l-93,21.2L69.9,45.1c-4-6.6-12.5-8.8-19.2-4.9
	c-6.6,4-8.8,12.5-4.9,19.2l81.8,137.4l94.9-21.7l69.9,96.6l-11.5,2.6L335.6,307.6z"/>
</svg>
