<?xml version="1.0" encoding="utf-8"?>
<!-- Generator: Adobe Illustrator 27.0.0, SVG Export Plug-In . SVG Version: 6.00 Build 0)  -->
<svg version="1.1" id="Capa_2_00000099627423908917202510000014313931471550003868_"
	 xmlns="http://www.w3.org/2000/svg" xmlns:xlink="http://www.w3.org/1999/xlink" x="0px" y="0px" viewBox="0 0 176.3 176.3"
	 style="enable-background:new 0 0 176.3 176.3;" xml:space="preserve">
<style type="text/css">
	.st0{fill:#3C97D3;}
</style>
<g id="Capa_1-2">
	<g>
		<path class="st0" d="M88.2,23c36.3,0,65.8,29.5,65.8,65.8s-29.5,65.8-65.8,65.8s-65.8-29.5-65.8-65.8S51.9,23,88.2,23 M88.2,4
			C41.4,4,3.4,42,3.4,88.8s37.9,84.8,84.8,84.8S173,135.6,173,88.8S135,4,88.2,4C88.2,4,88.2,4,88.2,4z"/>
		<path class="st0" d="M100.2,54.9c0,7.5-5.4,13.2-12.6,13.2c-7.3,0-12.6-5.7-12.6-13.2s5.4-13.1,12.6-13.1
			C94.9,41.7,100.2,47.5,100.2,54.9z M97.4,119.9l0.7,18.9h-21l0.7-18.9l2.9-43.5h13.7L97.4,119.9L97.4,119.9z"/>
	</g>
</g>
</svg>
