<?xml version="1.0" encoding="utf-8"?>
<!-- Generator: Adobe Illustrator 27.0.0, SVG Export Plug-In . SVG Version: 6.00 Build 0)  -->
<svg version="1.1" id="Capa_2_00000121245702204322117720000001837076288044592536_"
	 xmlns="http://www.w3.org/2000/svg" xmlns:xlink="http://www.w3.org/1999/xlink" x="0px" y="0px" viewBox="0 0 176.3 176.3"
	 style="enable-background:new 0 0 176.3 176.3;" xml:space="preserve">
<style type="text/css">
	.st0{fill:#3C97D3;}
</style>
<g>
	<path class="st0" d="M100.8,113.1c-8.6,0-16.8,0-25.2,0c0,17.1,0,34.1,0,51.3c-13.9,0-27.6,0-41.6,0c0-1,0-1.8,0-2.7
		c0-21.3,0.1-76.2,0.1-76.2l54-44.5l54.2,44.5c0,0-0.1,53,0,76.4c0,0.8,0,1.5,0,2.5c-13.8,0-27.5,0-41.5,0
		C100.8,147.4,100.8,130.4,100.8,113.1z"/>
	<path class="st0" d="M175.1,82.7c-3.9,4.4-7.6,8.6-11.5,13C138.4,75.4,113.3,55,88.2,34.6C63.1,55,38,75.3,12.8,95.7
		c-3.8-4.3-7.6-8.6-11.5-13c29-23.6,57.9-47.2,86.9-70.8C117.1,35.5,146,59.1,175.1,82.7z"/>
</g>
</svg>
