<?xml version="1.0" encoding="utf-8"?>
<!-- Generator: Adobe Illustrator 27.0.0, SVG Export Plug-In . SVG Version: 6.00 Build 0)  -->
<svg version="1.1" id="Capa_2_00000158013411504092451720000004466124251884180920_"
	 xmlns="http://www.w3.org/2000/svg" xmlns:xlink="http://www.w3.org/1999/xlink" x="0px" y="0px" viewBox="0 0 275.1 127"
	 style="enable-background:new 0 0 275.1 127;" xml:space="preserve">
<style type="text/css">
	.st0{fill:none;stroke:#3C97D3;stroke-width:9;stroke-miterlimit:10;}
	.st1{fill:none;stroke:#3C97D3;stroke-width:14;stroke-miterlimit:10;}
	.st2{fill:#3C97D3;}
</style>
<g id="Capa_1-2">
	<g>
		<path class="st0" d="M27.2,88.9l0.1,24.1c6.9,6.9,18.1,6.9,25,0l34-34c6.9-6.8,6.9-18,0-24.9l0,0l-34-34c-6.9-6.9-18.1-6.9-24.9,0
			v23.7"/>
		<g>
			<g>
				<line class="st1" x1="4.4" y1="65.9" x2="44.4" y2="65.9"/>
				<g>
					<polygon class="st2" points="30.2,84.5 38.2,65.9 30.2,47.2 74.5,65.9 					"/>
				</g>
			</g>
		</g>
		<g>
			<path class="st2" d="M110.1,56.3v-32h6.9v32H110.1z"/>
			<path class="st2" d="M127.3,24.4h7l5.5,13.4V24.4h6.9v32h-6.9l-5.6-14.9v14.9h-6.9V24.4z"/>
			<path class="st2" d="M157,56.3v-32h6.9v32H157z"/>
			<path class="st2" d="M174.1,34.1c0-5.4,4.4-9.7,9.7-9.7s9.7,4.4,9.7,9.7h-6.9c0-1.5-1.2-2.8-2.8-2.8c-1.5,0-2.8,1.3-2.8,2.8v12.5
				c0,1.5,1.3,2.8,2.8,2.8c1.5,0,2.8-1.3,2.8-2.8h6.9c0,5.4-4.4,9.7-9.7,9.7c-5.4,0-9.7-4.4-9.7-9.7V34.1z"/>
			<path class="st2" d="M203.8,56.3v-32h6.9v32H203.8z"/>
			<path class="st2" d="M221,56.3l6.3-32h10.2l6.1,32h-6.9l-0.9-4.6h-6.9l-0.9,4.6H221z M234.4,44.8l-2.1-11l-2.2,11H234.4z"/>
			<path class="st2" d="M263.5,24.4c5.4,0,9.7,4.4,9.7,9.7v4.8c0,2.4-0.9,4.6-2.3,6.3c1.4,1.7,2.3,3.9,2.3,6.3v4.9h-6.9v-4.9
				c0-1.5-1.3-2.8-2.8-2.8h-2.8v7.7h-6.9v-32H263.5z M260.7,41.7h2.8c1.5,0,2.8-1.3,2.8-2.8v-4.8c0-1.5-1.2-2.8-2.8-2.8h-2.8V41.7z"
				/>
			<path class="st2" d="M119.9,79.1c5.4,0,9.7,4.4,9.7,9.7h-6.9c0-1.5-1.2-2.8-2.8-2.8c-1.5,0-2.8,1.3-2.8,2.8s1.3,2.8,2.8,2.8
				c5.4,0,9.7,4.4,9.7,9.7h0l0,0c0,5.4-4.4,9.7-9.7,9.7c-5.4,0-9.7-4.4-9.7-9.7h6.9c0,1.5,1.2,2.8,2.8,2.8c1.5,0,2.8-1.2,2.8-2.8
				l0,0h0c0-1.5-1.3-2.8-2.8-2.8c-5.4,0-9.7-4.4-9.7-9.7C110.1,83.5,114.5,79.1,119.9,79.1z"/>
			<path class="st2" d="M139.8,79.1h19.4v6.9h-12.5v6.3h8.8v6.9h-8.8v4.8h12.5v6.9h-19.4V79.1z"/>
			<path class="st2" d="M179.2,79.1c5.4,0,9.7,4.4,9.7,9.7H182c0-1.5-1.2-2.8-2.8-2.8c-1.5,0-2.8,1.3-2.8,2.8s1.3,2.8,2.8,2.8
				c5.4,0,9.7,4.4,9.7,9.7h0l0,0c0,5.4-4.4,9.7-9.7,9.7c-5.4,0-9.7-4.4-9.7-9.7h6.9c0,1.5,1.3,2.8,2.8,2.8s2.8-1.2,2.8-2.8l0,0h0
				c0-1.5-1.3-2.8-2.8-2.8c-5.4,0-9.7-4.4-9.7-9.7C169.5,83.5,173.8,79.1,179.2,79.1z"/>
			<path class="st2" d="M199.2,111.1v-32h6.9v32H199.2z"/>
			<path class="st2" d="M226,79.1c5.4,0,9.7,4.4,9.7,9.7v12.5c0,5.4-4.4,9.7-9.7,9.7c-5.4,0-9.7-4.4-9.7-9.7V88.9
				C216.3,83.5,220.7,79.1,226,79.1z M228.8,88.9c0-1.5-1.3-2.8-2.8-2.8s-2.8,1.3-2.8,2.8v12.5c0,1.5,1.3,2.8,2.8,2.8
				s2.8-1.3,2.8-2.8V88.9z"/>
			<path class="st2" d="M246,79.1h7l5.5,13.4V79.1h6.9v32h-6.9l-5.6-14.9v14.9H246V79.1z"/>
		</g>
	</g>
</g>
</svg>
