<?xml version="1.0" encoding="utf-8"?>
<!-- Generator: Adobe Illustrator 27.0.0, SVG Export Plug-In . SVG Version: 6.00 Build 0)  -->
<svg version="1.1" id="Capa_2_00000132070575614458878630000015288679893859873439_"
	 xmlns="http://www.w3.org/2000/svg" xmlns:xlink="http://www.w3.org/1999/xlink" x="0px" y="0px" viewBox="0 0 176.3 176.4"
	 style="enable-background:new 0 0 176.3 176.4;" xml:space="preserve">
<style type="text/css">
	.st0{fill:#3C97D3;}
	.st1{fill:none;stroke:#FFFFFF;stroke-width:1.7511;stroke-miterlimit:10;}
	.st2{fill:#FFFFFF;}
	.st3{font-family:'GroovifyDemo';}
	.st4{font-size:65.5635px;}
	.st5{fill:#3C97D3;stroke:#FFFFFF;stroke-width:7;stroke-miterlimit:10;}
</style>
<path class="st0" d="M52.9,172.6c-13.2,0-24-10.8-24-24V27.3c0-13.2,10.8-24,24-24h69.3c13.2,0,24,10.8,24,24v121.4
	c0,13.2-10.8,24-24,24H52.9z"/>
<path class="st1" d="M55.3,168.3C43,168.3,33,158.1,33,145.6V30.7C33,18.2,43,8,55.3,8h64.4C132,8,142,18.2,142,30.7v114.9
	c0,12.5-10,22.7-22.3,22.7H55.3z"/>
<text transform="matrix(1 0 0 1 62.5528 62.8839)" class="st2 st3 st4">R</text>
<line class="st5" x1="99" y1="41.7" x2="114.9" y2="41.7"/>
<path class="st2" d="M88,94.5c-0.5,0-0.9-0.1-1.4-0.4c-1.4-0.8-2.2-2.3-2.4-4c0,0.1-0.2,0.2-0.2,0.3c-0.9,1.7-2.1,4.3-4.1,3
	c-0.3-0.2-0.5-0.4-0.7-0.6c-2.1,0.9-4.6,0.8-7.7-0.4c-2.1,0.5-4,0.4-5.7-0.3c-1.5-0.6-2.8-1.5-3.4-2.2c-1-0.5-1.2-0.7-1.5-0.7l0,0
	c-0.3,0-0.5,0.3-1.4,1.1c-0.5,0.5-1,1.1-1.5,1.6c-3.3,2.8-7.9,3-13.9,0.6l1.5-5.9c4.5,1.8,7.6,1.8,9.6,0.2c0.3-0.3,0.7-0.7,1-1.1
	c1-1.1,2.4-2.6,4.6-2.7c2.1,0,3.1,1,4.1,1.9c0.7,0.6,1.4,1.1,2.2,1.4c1.2,0.4,2.4,0.4,3.8,0l0.7-0.3l0.7,0.3
	c1.9,0.8,4.3,1.5,5.7,0.4c0.5-0.4,1-1.2,1.4-1.8c0.9-1.4,1.7-2.1,2.8-2c1.2-1.7,2.4-2.8,4-2.3c2.2,0.7,2.6,3.8,2.8,5.8
	c0,0.3,0,0.6,0.2,0.9c1.2-1.1,2.9-2.6,5.3-2.4c1.9,0.1,3.1,1.1,4.1,1.8c0.2,0.1,0.2,0.2,0.3,0.2c0.3-0.7,0.9-1.4,1.7-1.9
	c2.1-1.3,4-0.1,5.3,0.8c1,0.6,1.7,1.2,2.8,1.1c0.3,0,0.3,0,0.9-0.4c0.5-0.4,1.2-0.9,2.2-1.4c3.3-1.5,5.8-0.7,8.3,0.2
	c1.5,0.5,3.3,1.1,5.5,1.1s4.3-0.5,6.5-1.6l1.7,5.8c-2.8,1.3-5.7,2.1-8.4,2c-2.8,0-4.8-0.7-6.5-1.3c-2.2-0.7-3.6-1.1-5.3-0.3
	c-0.5,0.3-0.9,0.5-1.4,0.8c-0.7,0.6-1.5,1.3-3.3,1.3c-2.2,0.1-4-1-5.2-1.8c-0.2-0.2-0.5-0.3-0.7-0.5c-0.3,0.8-0.9,1.6-1.9,2.2
	c-2.1,1.1-3.8-0.2-4.8-1c-0.7-0.5-1.2-0.9-1.9-1c-0.7-0.1-1.4,0.5-2.2,1.4C90.6,93.4,89.4,94.5,88,94.5L88,94.5z"/>
<path class="st2" d="M88,116.2c-0.5,0-0.9-0.1-1.4-0.4c-1.4-0.8-2.2-2.3-2.4-4c0,0.1-0.2,0.2-0.2,0.3c-0.9,1.7-2.1,4.3-4.1,3
	c-0.3-0.2-0.5-0.4-0.7-0.6c-2.1,0.9-4.6,0.8-7.7-0.4c-2.1,0.5-4,0.4-5.7-0.3c-1.5-0.6-2.8-1.5-3.4-2.2c-1-0.5-1.2-0.7-1.5-0.7l0,0
	c-0.3,0-0.5,0.3-1.4,1.1c-0.5,0.5-1,1.1-1.5,1.6c-3.3,2.8-7.9,3-13.9,0.6l1.5-5.9c4.5,1.8,7.6,1.8,9.6,0.2c0.3-0.3,0.7-0.7,1-1.1
	c1-1.1,2.4-2.6,4.6-2.7c2.1,0,3.1,1,4.1,1.9c0.7,0.6,1.4,1.1,2.2,1.4c1.2,0.4,2.4,0.4,3.8,0l0.7-0.3l0.7,0.3
	c1.9,0.8,4.3,1.5,5.7,0.4c0.5-0.4,1-1.2,1.4-1.8c0.9-1.4,1.7-2.1,2.8-2c1.2-1.7,2.4-2.8,4-2.3c2.2,0.7,2.6,3.8,2.8,5.8
	c0,0.3,0,0.6,0.2,0.9c1.2-1.1,2.9-2.6,5.3-2.4c1.9,0.1,3.1,1.1,4.1,1.8c0.2,0.1,0.2,0.2,0.3,0.2c0.3-0.7,0.9-1.4,1.7-1.9
	c2.1-1.3,4-0.1,5.3,0.8c1,0.6,1.7,1.2,2.8,1.1c0.3,0,0.3,0,0.9-0.4c0.5-0.4,1.2-0.9,2.2-1.4c3.3-1.5,5.8-0.7,8.3,0.2
	c1.5,0.5,3.3,1.1,5.5,1.1s4.3-0.5,6.5-1.6l1.7,5.8c-2.8,1.3-5.7,2.1-8.4,2c-2.8,0-4.8-0.7-6.5-1.3c-2.2-0.7-3.6-1.1-5.3-0.3
	c-0.5,0.3-0.9,0.5-1.4,0.8c-0.7,0.6-1.5,1.3-3.3,1.3c-2.2,0.1-4-1-5.2-1.8c-0.2-0.2-0.5-0.3-0.7-0.5c-0.3,0.8-0.9,1.6-1.9,2.2
	c-2.1,1.1-3.8-0.2-4.8-1c-0.7-0.5-1.2-0.9-1.9-1c-0.7-0.1-1.4,0.5-2.2,1.4C90.6,115.1,89.4,116.2,88,116.2L88,116.2z"/>
<path class="st2" d="M88,137.9c-0.5,0-0.9-0.1-1.4-0.4c-1.4-0.8-2.2-2.3-2.4-4c0,0.1-0.2,0.2-0.2,0.3c-0.9,1.7-2.1,4.3-4.1,3
	c-0.3-0.2-0.5-0.4-0.7-0.6c-2.1,0.9-4.6,0.8-7.7-0.4c-2.1,0.5-4,0.4-5.7-0.3c-1.5-0.6-2.8-1.5-3.4-2.2c-1-0.5-1.2-0.7-1.5-0.7l0,0
	c-0.3,0-0.5,0.3-1.4,1.1c-0.5,0.5-1,1.1-1.5,1.6c-3.3,2.8-7.9,3-13.9,0.6l1.5-5.9c4.5,1.8,7.6,1.8,9.6,0.2c0.3-0.3,0.7-0.7,1-1.1
	c1-1.1,2.4-2.6,4.6-2.7c2.1,0,3.1,1,4.1,1.9c0.7,0.6,1.4,1.1,2.2,1.4c1.2,0.4,2.4,0.4,3.8,0l0.7-0.3l0.7,0.3
	c1.9,0.8,4.3,1.5,5.7,0.4c0.5-0.4,1-1.2,1.4-1.8c0.9-1.4,1.7-2.1,2.8-2c1.2-1.7,2.4-2.8,4-2.3c2.2,0.7,2.6,3.8,2.8,5.8
	c0,0.3,0,0.6,0.2,0.9c1.2-1.1,2.9-2.6,5.3-2.4c1.9,0.1,3.1,1.1,4.1,1.8c0.2,0.1,0.2,0.2,0.3,0.2c0.3-0.7,0.9-1.4,1.7-1.9
	c2.1-1.3,4-0.1,5.3,0.8c1,0.6,1.7,1.2,2.8,1.1c0.3,0,0.3,0,0.9-0.4c0.5-0.4,1.2-0.9,2.2-1.4c3.3-1.5,5.8-0.7,8.3,0.2
	c1.5,0.5,3.3,1.1,5.5,1.1s4.3-0.5,6.5-1.6l1.7,5.8c-2.8,1.3-5.7,2.1-8.4,2c-2.8,0-4.8-0.7-6.5-1.3c-2.2-0.7-3.6-1.1-5.3-0.3
	c-0.5,0.3-0.9,0.5-1.4,0.8c-0.7,0.6-1.5,1.3-3.3,1.3c-2.2,0.1-4-1-5.2-1.8c-0.2-0.2-0.5-0.3-0.7-0.5c-0.3,0.8-0.9,1.6-1.9,2.2
	c-2.1,1.1-3.8-0.2-4.8-1c-0.7-0.5-1.2-0.9-1.9-1c-0.7-0.1-1.4,0.5-2.2,1.4C90.6,136.8,89.4,137.9,88,137.9L88,137.9z"/>
</svg>
