<?xml version="1.0" encoding="utf-8"?>
<!-- Generator: Adobe Illustrator 27.0.0, SVG Export Plug-In . SVG Version: 6.00 Build 0)  -->
<svg version="1.1" id="Capa_2_00000124153921474389391940000013774872949192065724_"
	 xmlns="http://www.w3.org/2000/svg" xmlns:xlink="http://www.w3.org/1999/xlink" x="0px" y="0px" viewBox="0 0 176.3 176.4"
	 style="enable-background:new 0 0 176.3 176.4;" xml:space="preserve">
<style type="text/css">
	.st0{fill:#3C97D3;}
</style>
<g>
	<path class="st0" d="M121.7,29.7c0,2,0,3.7,0,5.8c5.8,0,11.2,0,17,0c0-0.7,0-1.7,0-2.7c1.7,0,3.7,0,5.4,0c0,38.7,0,77.5,0,116.5
		c-31.3,0-62.2,0-93.4,0c0-5.4,0-11.2,0-17c2,0,4.1,0,6.5,0c8.8-0.3,16.3-7.8,16.3-16.6c0-4.8-3.7-8.8-8.5-8.8c-5.1,0-9.9,0-14.9,0
		c-0.7,0-1.4,0-2,0c0-31.3,0-62.5,0-93.8c0.7,0,1.4,0,1.7,0c17,0,34.3,0,51.3,0c1.4,0,2,0.3,2.4,1.7c3.1,6.1,8.2,9.9,14.9,9.9
		c4.4,0,8.2,0.7,10.9,4.4c0.3,0.3,1,0.7,1.7,1.4C127.8,29.7,124.7,29.7,121.7,29.7z M135.9,140.8c0-13.3,0-26.5,0-39.8
		c-15.3,0-30.2,0-45.2,0c0,13.3,0,26.5,0,39.8C105.7,140.8,120.6,140.8,135.9,140.8z M101.6,21.5c-15.3,0-30.2,0-45.2,0
		c0,11.6,0,22.8,0,34c15.3,0,30.2,0,45.2,0C101.6,44,101.6,32.7,101.6,21.5z M53.7,81c28.5,0,56.7,0,84.9,0c0-2,0-3.7,0-5.4
		c-28.5,0-56.7,0-84.9,0C53.7,77.3,53.7,79,53.7,81z M64.9,69.4c24.8,0,49.3,0,73.7,0c0-2,0-3.7,0-5.4c-24.5,0-49.3,0-73.7,0
		C64.9,66,64.9,67.7,64.9,69.4z M87.7,92.2c17,0,34,0,51,0c0-2,0-3.7,0-5.4c-17,0-34,0-51,0C87.7,88.8,87.7,90.5,87.7,92.2z
		 M110.4,46.7c9.5,0,19,0,28.2,0c0-2,0-3.7,0-5.4c-9.5,0-18.7,0-28.2,0C110.4,43.3,110.4,45,110.4,46.7z M138.6,52.8
		c-9.5,0-19,0-28.2,0c0,2,0,3.7,0,5.4c9.5,0,18.7,0,28.2,0C138.6,56.2,138.6,54.5,138.6,52.8z M53.7,98.3c0,2,0,3.7,0,5.4
		c9.5,0,19,0,28.2,0c0-2,0-3.7,0-5.4C72.4,98.3,63.2,98.3,53.7,98.3z M81.9,138.1c-9.5,0-19,0-28.2,0c0,2,0,3.7,0,5.4
		c9.5,0,18.7,0,28.2,0C81.9,141.8,81.9,139.8,81.9,138.1z M115.9,35.5c0-2,0-3.7,0-5.4c-2,0-3.7,0-5.4,0c0,2,0,3.7,0,5.4
		C112.1,35.5,114.2,35.5,115.9,35.5z M53.7,69.4c2,0,3.7,0,5.4,0c0-2,0-3.7,0-5.4c-2,0-3.7,0-5.4,0C53.7,66,53.7,67.7,53.7,69.4z
		 M59.1,86.8c-2,0-3.7,0-5.4,0c0,2,0,3.7,0,5.4c2,0,3.7,0,5.4,0C59.1,90.5,59.1,88.8,59.1,86.8z M64.9,86.8c0,2,0,3.7,0,5.4
		c2,0,3.7,0,5.4,0c0-2,0-3.7,0-5.4C68.7,86.8,67,86.8,64.9,86.8z M81.9,86.8c-2,0-3.7,0-5.4,0c0,2,0,3.7,0,5.4c2,0,3.7,0,5.4,0
		C81.9,90.5,81.9,88.8,81.9,86.8z M76.1,120.7c2,0,3.7,0,5.4,0c0-2,0-3.7,0-5.4c-2,0-3.7,0-5.4,0C76.1,117,76.1,118.7,76.1,120.7z
		 M76.5,132c2,0,3.7,0,5.4,0c0-2,0-3.7,0-5.4c-2,0-3.7,0-5.4,0C76.5,128.6,76.5,130.3,76.5,132z"/>
	<path class="st0" d="M2.4,165.9c0-13.6,0-27.9,0-42.1c3.1,0.7,4.8-1.4,6.8-2.7c2-1.4,4.1-2.7,6.1-4.1c4.8-3.1,9.9-4.4,15.3-4.4
		c11.2,0,22.1,0,33.3,0c2.7,0,4.1,1.4,3.7,4.1c-0.7,5.8-5.4,9.9-11.2,10.2c-3.7,0-7.5,0-11.2,0c0,9.5,0,19,0,28.5
		c15.6,0,30.9,0,46.5,0c-0.3,0.7-0.3,1-0.3,1c-2,4.1-4.1,8.2-6.1,12.2c-2,4.1-5.8,6.5-10.5,6.5c-15.6,0-31.3,0-47.2,0
		c-3.7,0-7.1-1-10.5-2.7c-3.1-1.4-6.1-3.1-9.2-4.4C6.1,166.9,4.4,166.6,2.4,165.9z"/>
	<path class="st0" d="M172.6,15.4c0,13.3,0,26.5,0,39.8c-5.1,0.3-9.2,4.1-13.9,5.8c-2.7,1-5.4,2-8.8,3.4c0-12.9,0-24.8,0-37.4
		c-3.1,0-6.1,0-8.8,0c-3.7,0-6.8-1-9.2-3.7c-3.1-4.1-6.8-5.4-11.6-4.8c-3.1,0.3-6.1-0.3-8.8-2.4c-2.7-2-4.1-5.1-4.1-8.5
		c0-2,1-3.1,3.1-3.1c11.9,0,23.8,0,35.7,0c5.1,0,9.5,1.7,13.9,4.8c2.4,1.4,4.4,3.1,6.8,4.4C168.5,14.7,170.2,16.1,172.6,15.4z"/>
	<path class="st0" d="M125,107.2c1.4,1.7,2.7,3.1,3.7,4.1c-7.1,7.1-14.3,14.3-21.4,21.4c-2-2-4.8-4.8-7.1-7.1c1-1,2.4-2.4,3.7-3.7
		c1,1,2,2.4,3.1,3.7C113.2,119,119.3,113.3,125,107.2z"/>
</g>
</svg>
