<?xml version="1.0" encoding="utf-8"?>
<!-- Generator: Adobe Illustrator 27.0.0, SVG Export Plug-In . SVG Version: 6.00 Build 0)  -->
<svg version="1.1" id="Capa_2_00000099645537767478241160000007569057665240599204_"
	 xmlns="http://www.w3.org/2000/svg" xmlns:xlink="http://www.w3.org/1999/xlink" x="0px" y="0px" viewBox="0 0 176.3 176.4"
	 style="enable-background:new 0 0 176.3 176.4;" xml:space="preserve">
<style type="text/css">
	.st0{fill:#3C97D3;}
	.st1{fill:#FFFFFF;}
</style>
<g>
	<path class="st0" d="M149.5,43.7H34.7v5.7H21v122.9h122.9v-13.8h5.7V43.7z M135.8,164.3H29V57.5h5.7v101.1h101.1L135.8,164.3
		L135.8,164.3z"/>
	<g>
		<path class="st0" d="M86.8,88.3l8.1-12.5c6.4,4.9,12,7.4,17.9,7.4c7.1,0,10.3-2.9,10.3-8.7c0-12.9-33.2-12.7-33.2-35.4
			c0-14.6,10.1-23.9,26-23.9c10.8,0,18.1,4.4,23.9,10.7l-9.2,10.6c-4.6-4.1-8.4-6.3-13.7-6.3c-6.1,0-9.3,2.4-9.3,8.1
			c0,12,33.2,10.9,33.2,35c0,14.4-9.6,24.9-27.9,24.9C104.9,98.1,94,94.7,86.8,88.3L86.8,88.3z M109,2.9h12.3V21H109V2.9z M109,90.6
			h12.3v19.9H109V90.6z"/>
		<path class="st1" d="M130.6,119.8h-31v-14.3c-6.7-1.9-13.6-5.3-19-10.2l-5.9-5.4l17.6-27.4c-6.4-5.1-11.8-12.3-11.8-23.4
			c0-14.2,7.2-25,19-30.1V-6.4h31V8.4c5.9,2.2,11.2,5.9,16.1,11.1l5.8,6.2l-18,20.7c8,5.2,15.7,13.2,15.7,26.9
			c0,14.4-7.4,25.5-19.6,30.8L130.6,119.8L130.6,119.8z M98.5,66.7l2.1,1.6c5.3,4,8.6,5.1,10.9,5.4c-1.8-1.1-4.1-2.2-5.8-3.1
			C103.5,69.5,101,68.2,98.5,66.7z"/>
		<path class="st0" d="M86.8,88.3l8.1-12.5c6.4,4.9,12,7.4,17.9,7.4c7.1,0,10.3-2.9,10.3-8.7c0-12.9-33.2-12.7-33.2-35.4
			c0-14.6,10.1-23.9,26-23.9c10.8,0,18.1,4.4,23.9,10.7l-9.2,10.6c-4.6-4.1-8.4-6.3-13.7-6.3c-6.1,0-9.3,2.4-9.3,8.1
			c0,12,33.2,10.9,33.2,35c0,14.4-9.6,24.9-27.9,24.9C104.9,98.1,94,94.7,86.8,88.3L86.8,88.3z M109,2.9h12.3V21H109V2.9z M109,90.6
			h12.3v19.9H109V90.6z"/>
	</g>
</g>
</svg>
