<?xml version="1.0" encoding="utf-8"?>
<!-- Generator: Adobe Illustrator 27.0.0, SVG Export Plug-In . SVG Version: 6.00 Build 0)  -->
<svg version="1.1" id="Capa_1" xmlns="http://www.w3.org/2000/svg" xmlns:xlink="http://www.w3.org/1999/xlink" x="0px" y="0px"
	 viewBox="0 0 384 384" style="enable-background:new 0 0 384 384;" xml:space="preserve">
<style type="text/css">
	.st0{fill:#2D2D2D;}
</style>
<path class="st0" d="M342.5,56.9H41.3c-21.6,0-39.4,17.7-39.4,39.4v191.3c0,21.6,17.7,39.4,39.4,39.4h301.3
	c21.6,0,39.4-17.7,39.4-39.4V96.3C381.9,74.6,364.2,56.9,342.5,56.9z M100.5,154c8.9,0.1,16,7.1,16.4,15.9h-16.4V154z M69.9,154
	h23.6v31.6H69.9V154z M63,154.1v15.9H47.5C47.8,161.5,54.5,154.6,63,154.1z M47.5,176.7H63v30.7c-8.6-0.6-15.5-7.7-15.5-16.5V176.7z
	 M63.3,272h-5v5h-6.1v-5h-5v-6.1h5v-5h6.1v5h5V272z M69.9,192.4h23.6v15.1H69.9V192.4z M86.2,272h-5v5h-6.1v-5h-5v-6.1h5v-5h6.1v5h5
	V272z M109,272h-5v5H98v-5h-5v-6.1h5v-5h6.1v5h5V272z M100.5,207.5v-30.7h16.4v14.1C116.9,200,109.6,207.4,100.5,207.5z M131.9,272
	h-5v5h-6.1v-5h-5v-6.1h5v-5h6.1v5h5V272z M154.7,272h-5v5h-6.1v-5h-5v-6.1h5v-5h6.1v5h5V272z M177.6,272h-5v5h-6.1v-5h-5v-6.1h5v-5
	h6.1v5h5V272z M200.4,272h-5v5h-6.1v-5h-5v-6.1h5v-5h6.1v5h5V272z M223.3,272h-5v5h-6.1v-5h-5v-6.1h5v-5h6.1v5h5V272z M246.1,272h-5
	v5h-6.1v-5h-5v-6.1h5v-5h6.1v5h5V272z M291.9,272h-5v5h-6.1v-5h-5v-6.1h5v-5h6.1v5h5V272z M314.7,272h-5v5h-6.1v-5h-5v-6.1h5v-5h6.1
	v5h5V272z M337.6,272h-5v5h-6.1v-5h-5v-6.1h5v-5h6.1v5h5V272z"/>
</svg>
