<?xml version="1.0" encoding="utf-8"?>
<!-- Generator: Adobe Illustrator 27.0.0, SVG Export Plug-In . SVG Version: 6.00 Build 0)  -->
<svg version="1.1" id="Capa_2_00000140729530493063492970000011575896118822557865_"
	 xmlns="http://www.w3.org/2000/svg" xmlns:xlink="http://www.w3.org/1999/xlink" x="0px" y="0px" viewBox="0 0 176.3 176.4"
	 style="enable-background:new 0 0 176.3 176.4;" xml:space="preserve">
<style type="text/css">
	.st0{fill:#3C97D3;}
</style>
<path class="st0" d="M120.5,2.4H98.9v5.4c0,6-4.8,10.8-10.8,10.8S77.4,13.7,77.4,7.8V2.4H55.8c-8.9,0-16.2,7.2-16.2,16.2v64.7h21.6
	v9.9H39.7v64.7c0,8.9,7.2,16.2,16.2,16.2h21.6v-5.4c0-6,4.8-10.8,10.8-10.8s10.8,4.8,10.8,10.8v5.4h21.6c8.9,0,16.2-7.2,16.2-16.2
	V93.1h-21.6v-9.9h21.6V18.6C136.7,9.6,129.4,2.4,120.5,2.4z M77.4,93.1v-9.9H99v9.9C99,93.1,77.4,93.1,77.4,93.1z"/>
</svg>
