<?xml version="1.0" encoding="UTF-8"?>
<svg id="Capa_2" data-name="Capa 2" xmlns="http://www.w3.org/2000/svg" viewBox="0 0 500 500">
  <defs>
    <style>
      .cls-1 {
        fill: #fff;
      }
    </style>
  </defs>
  <g id="Capa_1-2" data-name="Capa 1">
    <g>
      <rect width="500" height="500" rx="100.16" ry="100.16"/>
      <g id="Capa_1-2" data-name="Capa 1-2">
        <path class="cls-1" d="M377.35,352.37h-88.8v-24.4c-8.82,8.89-19.62,15.65-32.2,20.44-12.65,4.79-25.02,7.18-37.12,7.18-27.48,0-49.83-8.48-67.2-25.43-11.55-11.55-19.41-24.13-23.58-37.8-4.17-13.6-6.22-29.46-6.22-47.51V53.91h90.99v178.76c0,14.97,3.9,25.57,11.76,31.72,7.86,6.15,16.13,9.23,24.75,9.23s16.95-3.01,24.81-9.09c7.86-6.08,11.76-16.68,11.76-31.86V53.91h90.99v298.45h.07Z"/>
        <path class="cls-1" d="M347.96,384.09h-190.99c-16.2,0-29.39,12.78-29.39,28.57v5.54c0,15.79,13.12,28.57,29.39,28.57h190.99c16.2,0,29.39-12.78,29.39-28.57v-5.54c0-15.79-13.12-28.57-29.39-28.57Z"/>
      </g>
    </g>
  </g>
</svg>