<?xml version="1.0" encoding="UTF-8"?>
<svg id="Capa_2" data-name="Capa 2" xmlns="http://www.w3.org/2000/svg" xmlns:xlink="http://www.w3.org/1999/xlink" viewBox="0 0 89 85">
  <defs>
    <style>
      .cls-1 {
        fill: url(#Degradado_sin_nombre_240-2);
        filter: url(#drop-shadow-2);
      }

      .cls-2 {
        fill: #fff;
      }

      .cls-3 {
        filter: url(#drop-shadow-4);
      }

      .cls-4 {
        fill: url(#Degradado_sin_nombre_240-3);
        filter: url(#drop-shadow-3);
      }

      .cls-5 {
        fill: url(#Degradado_sin_nombre_240);
        filter: url(#drop-shadow-1);
      }
    </style>
    <linearGradient id="Degradado_sin_nombre_240" data-name="Degradado sin nombre 240" x1="28.29" y1="8.6" x2="64.22" y2="66.64" gradientUnits="userSpaceOnUse">
      <stop offset="0" stop-color="#ffa914"/>
      <stop offset=".5" stop-color="#ff0d5e"/>
      <stop offset=".6" stop-color="#f21367"/>
      <stop offset=".78" stop-color="#d02281"/>
      <stop offset="1" stop-color="#9e3ba8"/>
    </linearGradient>
    <filter id="drop-shadow-1" x="13" y="0" width="75" height="84" filterUnits="userSpaceOnUse">
      <feOffset dx="3" dy="2"/>
      <feGaussianBlur result="blur" stdDeviation="2"/>
      <feFlood flood-color="#444" flood-opacity=".36"/>
      <feComposite in2="blur" operator="in"/>
      <feComposite in="SourceGraphic"/>
    </filter>
    <linearGradient id="Degradado_sin_nombre_240-2" data-name="Degradado sin nombre 240" x1="27.75" y1="10.55" x2="64.79" y2="79.09" xlink:href="#Degradado_sin_nombre_240"/>
    <filter id="drop-shadow-2" x="0" y="8" width="89" height="77" filterUnits="userSpaceOnUse">
      <feOffset dx="2" dy="3"/>
      <feGaussianBlur result="blur-2" stdDeviation="2"/>
      <feFlood flood-color="#3a3a3a" flood-opacity=".37"/>
      <feComposite in2="blur-2" operator="in"/>
      <feComposite in="SourceGraphic"/>
    </filter>
    <linearGradient id="Degradado_sin_nombre_240-3" data-name="Degradado sin nombre 240" x1="76.68" y1="65.5" x2="17.54" y2="16.31" xlink:href="#Degradado_sin_nombre_240"/>
    <filter id="drop-shadow-3" x="13" y="6" width="61" height="70" filterUnits="userSpaceOnUse">
      <feOffset dx="3" dy="2"/>
      <feGaussianBlur result="blur-3" stdDeviation="1"/>
      <feFlood flood-color="#2e303f" flood-opacity=".36"/>
      <feComposite in2="blur-3" operator="in"/>
      <feComposite in="SourceGraphic"/>
    </filter>
    <filter id="drop-shadow-4" x="23.74" y="22.79" width="42.26" height="43.21" filterUnits="userSpaceOnUse">
      <feOffset dx="4" dy="4"/>
      <feGaussianBlur result="blur-4" stdDeviation="1"/>
      <feFlood flood-color="#3a3a3a" flood-opacity=".31"/>
      <feComposite in2="blur-4" operator="in"/>
      <feComposite in="SourceGraphic"/>
    </filter>
  </defs>
  <g id="OBJECTS">
    <g>
      <path class="cls-5" d="M19.1,29.37C10.21,14.07,25.81,2.56,50.23,4.16c27,1.77,29.42,24.34,28.25,35.64-1.6,15.41-17.33,30.88-32.55,34.7-24.66,6.18-23.88-14.05-21.37-21.13,5.44-15.36-2.83-19.49-5.46-24Z"/>
      <path class="cls-1" d="M67.68,11.86c-12.62-1.02-18.59.1-30.65,3.78-6.81,2.08-15.38,6.72-20.9,11.02-5.52,4.31-9.87,10.18-11.29,16.81-1.97,9.24,2.2,19.24,9.85,25.27,7.65,6.03,18.38,8.15,28.13,6.22,2.84-.56,5.67-1.47,7.95-3.16,3.57-2.63,5.43-6.86,6.44-11.03,1.01-4.18,1.33-8.5,2.6-12.61,1.27-4.11,3.71-8.16,7.72-10.16,3.18-1.58,7.92-2.64,10.32-5.16,1.45-1.53,2.54-3.7,2.69-5.76.2-2.66.06-5.03-1.25-8.21-1.65-4.03-7.37-6.73-11.61-7.03Z"/>
      <path class="cls-4" d="M65.84,51.2c5.8,14.87-9.71,22.96-31.25,18.13-23.82-5.34-22.84-25.78-20.21-35.7,3.57-13.51,19.74-25.11,33.84-26.39,22.84-2.08,19.33,15.84,16.11,21.8-6.99,12.93-.19,17.76,1.52,22.15Z"/>
      <g class="cls-3">
        <path class="cls-2" d="M51.19,58.9h-19.83c-4.2,0-7.63-3.42-7.63-7.62v-20.86c0-4.2,3.42-7.63,7.63-7.63h19.83c4.2,0,7.63,3.42,7.63,7.63v20.86c0,4.2-3.42,7.62-7.63,7.62ZM31.37,26.64c-2.09,0-3.78,1.7-3.78,3.78v20.86c0,2.08,1.7,3.78,3.78,3.78h19.83c2.08,0,3.78-1.7,3.78-3.78v-20.86c0-2.09-1.7-3.78-3.78-3.78h-19.83Z"/>
        <path class="cls-2" d="M41.3,50.65c-5.29,0-9.59-4.3-9.59-9.59s4.3-9.59,9.59-9.59,9.59,4.3,9.59,9.59-4.3,9.59-9.59,9.59ZM41.3,35.32c-3.17,0-5.74,2.58-5.74,5.74s2.58,5.74,5.74,5.74,5.74-2.58,5.74-5.74-2.58-5.74-5.74-5.74Z"/>
        <path class="cls-2" d="M53.34,31.58c0,1.31-1.06,2.37-2.37,2.37s-2.37-1.06-2.37-2.37,1.06-2.37,2.37-2.37,2.37,1.06,2.37,2.37Z"/>
      </g>
    </g>
  </g>
</svg>