<?xml version="1.0" encoding="UTF-8"?>
<svg id="Capa_2" data-name="Capa 2" xmlns="http://www.w3.org/2000/svg" xmlns:xlink="http://www.w3.org/1999/xlink" viewBox="0 0 89 87">
  <defs>
    <style>
      .cls-1 {
        fill: url(#Degradado_sin_nombre_236);
        filter: url(#drop-shadow-1);
      }

      .cls-2 {
        fill: #fff;
      }

      .cls-3 {
        fill: url(#Degradado_sin_nombre_228);
      }

      .cls-4 {
        fill: url(#Degradado_sin_nombre_236-2);
        filter: url(#drop-shadow-2);
      }

      .cls-5 {
        fill: #6dd6c9;
      }

      .cls-6 {
        filter: url(#drop-shadow-4);
      }

      .cls-7 {
        fill: url(#Degradado_sin_nombre_214);
        filter: url(#drop-shadow-3);
      }
    </style>
    <linearGradient id="Degradado_sin_nombre_236" data-name="Degradado sin nombre 236" x1="10.29" y1="62.46" x2="80.49" y2="8.85" gradientUnits="userSpaceOnUse">
      <stop offset="0" stop-color="#4f4f4f"/>
      <stop offset="1" stop-color="#333"/>
    </linearGradient>
    <filter id="drop-shadow-1" x="12" y="0" width="75" height="85" filterUnits="userSpaceOnUse">
      <feOffset dx="3" dy="2"/>
      <feGaussianBlur result="blur" stdDeviation="2"/>
      <feFlood flood-color="#444" flood-opacity=".36"/>
      <feComposite in2="blur" operator="in"/>
      <feComposite in="SourceGraphic"/>
    </filter>
    <linearGradient id="Degradado_sin_nombre_236-2" data-name="Degradado sin nombre 236" x1="24.99" y1="19.86" x2="78.61" y2="81.76" xlink:href="#Degradado_sin_nombre_236"/>
    <filter id="drop-shadow-2" x="0" y="9" width="89" height="78" filterUnits="userSpaceOnUse">
      <feOffset dx="2" dy="3"/>
      <feGaussianBlur result="blur-2" stdDeviation="2"/>
      <feFlood flood-color="#3a3a3a" flood-opacity=".37"/>
      <feComposite in2="blur-2" operator="in"/>
      <feComposite in="SourceGraphic"/>
    </filter>
    <linearGradient id="Degradado_sin_nombre_214" data-name="Degradado sin nombre 214" x1="66.02" y1="66.24" x2="24.01" y2="17.04" gradientUnits="userSpaceOnUse">
      <stop offset="0" stop-color="#555"/>
      <stop offset="1" stop-color="#1f1f1f"/>
    </linearGradient>
    <filter id="drop-shadow-3" x="13" y="7" width="61" height="71" filterUnits="userSpaceOnUse">
      <feOffset dx="3" dy="2"/>
      <feGaussianBlur result="blur-3" stdDeviation="1"/>
      <feFlood flood-color="#2e303f" flood-opacity=".36"/>
      <feComposite in2="blur-3" operator="in"/>
      <feComposite in="SourceGraphic"/>
    </filter>
    <filter id="drop-shadow-4" x="24.7" y="21.48" width="42.3" height="46.52" filterUnits="userSpaceOnUse">
      <feOffset dx="4" dy="4"/>
      <feGaussianBlur result="blur-4" stdDeviation="1"/>
      <feFlood flood-color="#3a3a3a" flood-opacity=".31"/>
      <feComposite in2="blur-4" operator="in"/>
      <feComposite in="SourceGraphic"/>
    </filter>
    <linearGradient id="Degradado_sin_nombre_228" data-name="Degradado sin nombre 228" x1="133.05" y1="132.05" x2="189.58" y2="187.91" gradientUnits="userSpaceOnUse">
      <stop offset="0" stop-color="#ff5a75"/>
      <stop offset="1" stop-color="#ff0d5e"/>
    </linearGradient>
  </defs>
  <g id="OBJECTS">
    <g>
      <path class="cls-1" d="M17.98,30.04C9.08,14.74,24.69,3.22,49.11,4.83c27,1.77,29.42,24.34,28.25,35.64-1.6,15.41-17.33,30.88-32.55,34.7-24.66,6.18-23.88-14.05-21.37-21.13,5.44-15.36-2.83-19.49-5.46-24Z"/>
      <path class="cls-4" d="M67.66,13.21c-12.62-1.02-18.59.1-30.65,3.78-6.81,2.08-15.38,6.72-20.9,11.02-5.52,4.31-9.87,10.18-11.29,16.81-1.97,9.24,2.2,19.24,9.85,25.27,7.65,6.03,18.38,8.15,28.13,6.22,2.84-.56,5.67-1.47,7.95-3.16,3.57-2.63,5.43-6.86,6.44-11.03s1.33-8.5,2.6-12.61c1.27-4.11,3.71-8.16,7.72-10.16,3.18-1.58,7.92-2.64,10.32-5.16,1.45-1.53,2.54-3.71,2.69-5.76.2-2.66.06-5.03-1.25-8.21-1.65-4.03-7.37-6.73-11.61-7.03Z"/>
      <path class="cls-7" d="M65.83,52.54c5.8,14.87-9.71,22.96-31.25,18.13-23.82-5.34-22.84-25.78-20.21-35.7,3.57-13.51,19.74-25.11,33.84-26.39,22.84-2.08,19.33,15.84,16.11,21.8-6.99,12.93-.19,17.76,1.52,22.15Z"/>
      <g class="cls-6">
        <path class="cls-3" d="M50.52,24.17h-6.89v25.96c0,2.79-1.87,4.06-4.66,4.06s-5.04-2.26-5.04-5.05,2.26-5.04,5.04-5.04c.43,0,.84.06,1.23.17v-6.62c-.4-.05-.81-.08-1.23-.08-6.39,0-11.57,5.18-11.57,11.57s5.18,11.57,11.57,11.57c6.06,0,11.02-3.77,11.52-9.6h.03v-.57c0-.14.02-.28.02-.42h-.02v-12.56c3.08,2.58,8.86,2.22,8.86,2.22v-6.77c-8.74,0-8.86-8.86-8.86-8.86Z"/>
        <path class="cls-5" d="M47.82,21.48h-6.89v25.96c0,2.79-1.87,4.06-4.66,4.06s-5.04-2.26-5.04-5.04,2.26-5.04,5.04-5.04c.43,0,.84.06,1.23.17v-6.62c-.4-.05-.81-.08-1.23-.08-6.39,0-11.57,5.18-11.57,11.57s5.18,11.57,11.57,11.57c6.06,0,11.02-3.77,11.52-9.6h.03v-.57c0-.14.02-.28.02-.42h-.02v-12.56c3.08,2.58,8.86,2.22,8.86,2.22v-6.77c-8.74,0-8.86-8.86-8.86-8.86Z"/>
        <path class="cls-2" d="M49.17,22.83h-6.89v25.96c0,2.79-1.87,4.06-4.66,4.06s-5.04-2.26-5.04-5.05,2.26-5.04,5.04-5.04c.43,0,.84.06,1.23.17v-6.62c-.4-.05-.81-.08-1.23-.08-6.39,0-11.57,5.18-11.57,11.57s5.18,11.57,11.57,11.57c6.06,0,11.02-3.77,11.52-9.6h.03v-.57c0-.14.02-.28.02-.42h-.02v-12.56c3.08,2.58,8.86,2.22,8.86,2.22v-6.77c-8.74,0-8.86-8.86-8.86-8.86Z"/>
      </g>
    </g>
  </g>
</svg>