<?xml version="1.0" encoding="UTF-8"?>
<svg id="Capa_2" data-name="Capa 2" xmlns="http://www.w3.org/2000/svg" viewBox="0 0 1350.36 669.05">
  <defs>
    <style>
      .cls-1 {
        fill: #00aeef;
      }

      .cls-2 {
        fill: #fff200;
      }

      .cls-3 {
        fill: #ec008c;
      }
    </style>
  </defs>
  <g id="Capa_1-2" data-name="Capa 1">
    <g>
      <g>
        <path d="M310.86,353.38h-104.05v-28.55c-10.36,10.37-22.94,18.35-37.75,23.95-14.8,5.61-29.29,8.42-43.46,8.42-32.14,0-58.37-9.95-78.67-29.82-13.54-13.54-22.74-28.28-27.6-44.25-4.86-15.97-7.29-34.52-7.29-55.67V3.81H118.62V213.17c0,17.55,4.6,29.92,13.8,37.11,9.2,7.19,18.87,10.78,29.03,10.78s19.83-3.54,29.03-10.62c9.2-7.09,13.8-19.52,13.8-37.27V3.81h106.59V353.38Z"/>
        <path d="M661.06,239.13c0,26.43-6.77,48.48-20.3,66.19-13.54,17.66-31.72,30.72-54.56,39.18-22.84,8.46-48.32,12.69-76.45,12.69-21.56,0-40.34-1.01-56.3-3.01-15.96-2.01-32.14-6.66-48.53-13.86-16.39-7.24-32.2-18.45-47.42-33.73l69.16-69.31c19.45,19.67,47.79,29.5,85,29.5,10.37,0,20.51-1.79,30.46-5.39,9.94-3.59,14.91-9.36,14.91-17.39,0-13.32-8.46-20.72-25.38-22.15l-53.93-5.08c-20.3-1.9-38.12-6.61-53.45-14.12-15.33-7.5-27.12-18.4-35.37-32.62-8.25-14.27-12.37-32.51-12.37-54.66,0-18.4,3.86-35,11.58-49.75,7.72-14.81,18.03-26.96,30.93-36.48,12.9-9.46,27.65-16.71,44.25-21.68,16.61-4.97,34-7.46,52.19-7.46,31.08,0,57.73,3.07,79.94,9.2,22.2,6.13,41.45,17.34,57.73,33.62l-65.67,65.67c-13.96-13.96-38.59-20.94-73.91-20.94-11.64,0-20.3,2.11-26.01,6.34-5.71,4.23-8.56,8.89-8.56,13.91,0,11.2,7.61,17.65,22.83,19.35l53.93,5.34c23.9,2.17,43.67,8.04,59.32,17.66,15.65,9.62,27.22,22.04,34.73,37.27,7.51,15.23,11.27,32.46,11.27,51.71"/>
        <path d="M1016.97,213.48h-209.05c0,15.07,5.55,27.81,16.66,38.23,11.1,10.47,26.06,15.7,44.88,15.7,17.76,0,31.66-2.27,41.71-6.87,10.04-4.6,20.15-11.95,30.29-21.99l63.76,63.23c-19.24,19.35-38.8,33.41-58.68,42.19-19.88,8.83-45.57,13.22-77.08,13.22-110.81,0-166.22-59.54-166.22-178.59,0-56.04,14.44-99.82,43.3-131.33C775.41,15.75,813.11,0,859.63,0c32.78,0,61.07,7.3,84.86,21.94,23.79,14.59,41.82,34.42,54.08,59.38,12.28,25.01,18.41,53.18,18.41,84.53v47.63Zm-105.32-71.37c0-10.36-1.9-19.45-5.71-27.28-3.38-7.82-9.04-14.33-16.97-19.51-7.93-5.18-17.71-7.77-29.34-7.77s-21.41,2.59-29.34,7.77c-7.93,5.18-13.49,11.69-16.66,19.51-3.8,7.82-5.71,16.91-5.71,27.28h103.73Z"/>
        <path d="M1350.36,32.36l-80.57,81.84c-5.92-5.92-11.63-10.42-17.13-13.48-5.5-3.07-12.59-4.6-21.25-4.6-9.94,0-19.57,3.65-28.87,10.95-9.3,7.29-13.96,19.72-13.96,37.27v209.04h-106.58V3.81h104.05v28.55c8.88-8.88,20.57-16.49,35.05-22.84,14.48-6.34,30.29-9.52,47.42-9.52s32.36,2.43,45.04,7.3c12.69,4.86,24.95,13.22,36.8,25.06"/>
        <path class="cls-1" d="M316.53,513.34H33.46c-18.48,0-33.46-14.98-33.46-33.46v-6.44c0-18.47,14.98-33.46,33.46-33.46H316.53v73.36Z"/>
        <rect class="cls-3" x="364.67" y="439.97" width="292.45" height="73.36"/>
        <rect class="cls-2" x="705.27" y="439.97" width="292.46" height="73.36"/>
        <path d="M1316.9,513.34h-271.04v-73.36h271.04c18.48,0,33.46,14.99,33.46,33.46v6.44c0,18.48-14.98,33.46-33.46,33.46"/>
      </g>
      <g>
        <path d="M85.31,669.05s-1.64-.36-4.93-1.05c-3.29-.7-6.36-1.75-9.21-3.15-2.85-1.4-5.52-3.15-8-5.25l6.66-8.19c2.9,2.52,6.11,4.41,9.61,5.67,3.5,1.26,7.3,1.89,11.38,1.89,5.53,0,9.82-1.03,12.86-3.08,3.04-2.04,4.56-4.93,4.56-8.68v-.06c0-2.66-.69-4.77-2.06-6.32-1.39-1.56-3.17-2.72-5.35-3.46-2.19-.76-5.02-1.45-8.48-2.08-.1-.03-.22-.05-.34-.05-.13,0-.23-.02-.35-.06l-.78-.15c-5.11-.87-9.26-1.87-12.47-2.97-3.2-1.1-5.94-3.11-8.21-6.03-2.27-2.93-3.41-7.08-3.41-12.47v-.06c0-4.71,1.05-8.75,3.17-12.09,2.11-3.34,5.2-5.88,9.26-7.64,4.06-1.74,8.93-2.61,14.65-2.61,2.73,0,5.41,.29,8.05,.89,2.65,.59,5.25,1.48,7.83,2.65,2.57,1.18,5.1,2.65,7.58,4.44l-6.09,8.49c-2.9-2.12-5.8-3.73-8.69-4.79-2.88-1.07-5.78-1.6-8.68-1.6-5.23,0-9.27,1.04-12.15,3.11-2.89,2.09-4.34,5.04-4.34,8.85v.05c0,2.62,.75,4.69,2.24,6.19,1.48,1.5,3.34,2.61,5.56,3.34,2.22,.71,5.31,1.46,9.26,2.23,.14,.03,.27,.06,.4,.08,.12,.01,.24,.05,.38,.08,.17,.03,.37,.07,.58,.09,.21,.05,.4,.08,.58,.12,4.62,.93,8.47,2.06,11.57,3.36,3.09,1.29,5.68,3.38,7.77,6.26,2.08,2.89,3.13,6.83,3.13,11.84v.1c0,4.65-1.11,8.63-3.31,11.94-2.2,3.3-5.4,5.82-9.58,7.56-4.19,1.73-9.24,2.6-15.15,2.6h-5.5Z"/>
        <path d="M143.73,646.9c0,3.83,.97,6.76,2.92,8.85,1.94,2.08,4.68,3.11,8.21,3.11s6.2-.92,8.14-2.78c1.91-1.85,2.88-4.49,2.88-7.93l.73,11.39c-1.12,2.69-2.94,4.96-5.46,6.78-2.52,1.82-5.62,2.73-9.28,2.73-6.03,0-10.67-1.94-13.94-5.81-3.28-3.86-4.91-9.31-4.91-16.35v-33.11h10.71v33.11Zm22.15-33.11h10.65v54.48h-10.65v-54.48Z"/>
        <path d="M192.81,591.95h10.71v76.31h-10.71v-76.31Zm15.54,74.65c-2.52-1.62-4.37-3.92-5.56-6.9l.73-11.38c0,2.34,.42,4.34,1.26,5.98,.84,1.64,2.05,2.9,3.65,3.78,1.59,.87,3.52,1.32,5.8,1.32,3.53,0,6.27-1.08,8.21-3.23,1.95-2.16,2.92-5.19,2.92-9.11v-11.8c0-3.99-.97-7.09-2.92-9.3-1.94-2.2-4.68-3.3-8.21-3.3-2.27,0-4.21,.42-5.8,1.26-1.6,.84-2.81,2.06-3.65,3.7-.84,1.62-1.26,3.58-1.26,5.84l-1.1-10.5c1.63-3.17,3.79-5.63,6.45-7.37,2.66-1.73,5.61-2.59,8.88-2.59,3.84,0,7.14,.86,9.89,2.59,2.74,1.74,4.83,4.27,6.27,7.58,1.42,3.34,2.15,7.34,2.15,12.02v11.86c0,4.62-.73,8.57-2.2,11.86-1.47,3.29-3.63,5.8-6.45,7.53-2.85,1.73-6.24,2.6-10.19,2.6-3.39,0-6.34-.82-8.86-2.45Z"/>
        <path d="M261.98,654.2c0,1.33,.29,2.36,.86,3.07,.58,.72,1.4,1.08,2.45,1.08h5.04v10.17h-6.3c-4.07,0-7.21-1.26-9.42-3.78-2.23-2.52-3.34-6.06-3.34-10.65v-62.14h10.71v62.25Z"/>
        <path d="M282.4,591.95h10.71v10.71h-10.71v-10.71Zm0,21.83h10.71v54.48h-10.71v-54.48Z"/>
        <path d="M309.38,613.78h10.71v54.48h-10.71v-54.48Zm32.54,21.47c0-3.85-.94-6.83-2.83-8.93-1.89-2.1-4.56-3.15-8.04-3.15s-6.19,.93-8.11,2.79c-1.9,1.85-2.86,4.47-2.86,7.83l-1.1-10.5c1.68-3.29,3.87-5.83,6.58-7.62,2.72-1.78,5.71-2.67,9-2.67,3.81,0,7.07,.86,9.76,2.59,2.69,1.74,4.75,4.27,6.17,7.58,1.41,3.34,2.12,7.34,2.12,12.02v33.06h-10.71v-33.01Zm32.54,0c0-3.85-1-6.83-2.99-8.93-2.01-2.1-4.81-3.15-8.4-3.15-3.34,0-5.9,1.03-7.72,3.06-1.82,2.03-2.73,4.9-2.73,8.61l-2.15-10.5c1.7-3.6,3.98-6.4,6.79-8.37,2.82-1.98,5.92-2.96,9.32-2.96,3.92,0,7.27,.86,10.05,2.59,2.78,1.74,4.9,4.27,6.34,7.58,1.46,3.34,2.18,7.34,2.18,12.02v33.06h-10.71v-33.01Z"/>
        <path d="M403.79,664.88c-3.32-2.79-4.98-7.01-4.98-12.68s1.53-9.42,4.56-12.12c3.06-2.69,7.65-4.05,13.81-4.05h15.49l.72,8.61h-16.16c-2.8,0-4.89,.62-6.26,1.87-1.39,1.24-2.08,3.14-2.08,5.69,0,2.76,.92,4.82,2.75,6.15,1.84,1.33,4.63,1.98,8.37,1.98,4.09,0,7.15-.43,9.16-1.31,2.02-.87,3.02-2.24,3.02-4.09l1.11,7.66c-.96,1.47-2.11,2.68-3.5,3.62-1.38,.96-2.99,1.66-4.81,2.13-1.82,.47-3.86,.71-6.13,.71-6.72,0-11.74-1.4-15.07-4.18Zm28.4-31.15c0-3.57-.96-6.34-2.86-8.32-1.91-1.98-4.62-2.96-8.12-2.96-2.17,0-4.29,.33-6.37,.99-2.09,.66-3.93,1.6-5.54,2.79l-7.83-5.36c2.06-2.47,4.79-4.41,8.16-5.8,3.38-1.38,7.13-2.06,11.27-2.06,4.5,0,8.37,.79,11.59,2.38,3.22,1.6,5.67,3.91,7.35,6.93,1.68,3.03,2.52,6.68,2.52,10.94v35.01h-10.18v-34.53Z"/>
        <path d="M473.17,669.05s-1.75-.93-5.27-2.79c-3.51-1.85-6.2-4.55-8.05-8.08-1.87-3.53-2.79-7.8-2.79-12.81v-8.98c0-4.92,.92-9.14,2.79-12.64,1.84-3.5,4.54-6.17,8.05-8,3.52-1.84,7.76-2.75,12.74-2.75,2.82,0,5.49,.34,8,1.01,2.5,.69,4.75,1.68,6.74,2.97,1.99,1.29,3.65,2.87,4.99,4.71l-7.72,6.93c-1.54-1.74-3.35-3.09-5.41-4.04-2.06-.94-4.21-1.42-6.45-1.42-4.13,0-7.34,1.17-9.6,3.48-2.29,2.31-3.42,5.55-3.42,9.75v8.98c0,4.3,1.13,7.63,3.38,9.97,2.26,2.34,5.47,3.51,9.63,3.51,2.27,0,4.44-.5,6.51-1.52,2.06-1.01,3.85-2.45,5.35-4.3l7.72,7.45c-1.38,1.82-3.06,3.37-5.04,4.64-2.01,1.28-4.25,2.25-6.75,2.92-2.5,.66-5.16,1-7.94,1h-7.46Z"/>
        <path d="M512.17,591.95h10.71v10.71h-10.71v-10.71Zm0,21.83h10.71v54.48h-10.71v-54.48Z"/>
        <path d="M547.92,666.27c-3.36-1.85-5.92-4.56-7.7-8.11-1.76-3.56-2.65-7.83-2.65-12.83v-8.88c0-4.93,.89-9.16,2.65-12.68,1.77-3.51,4.34-6.19,7.7-8.02,3.36-1.84,7.39-2.75,12.12-2.75s8.76,.91,12.12,2.75c3.36,1.83,5.92,4.51,7.7,8.02,1.76,3.52,2.65,7.74,2.65,12.68v9.03c0,4.97-.89,9.21-2.65,12.72-1.77,3.52-4.34,6.2-7.7,8.06-3.36,1.85-7.39,2.79-12.12,2.79s-8.76-.93-12.12-2.79Zm20.81-10.92c2.04-2.34,3.07-5.63,3.07-9.87v-9.03c0-4.23-1.03-7.5-3.07-9.81-2.05-2.31-4.95-3.48-8.69-3.48s-6.64,1.17-8.69,3.48c-2.04,2.31-3.07,5.57-3.07,9.81v9.03c0,4.23,1.03,7.52,3.07,9.87,2.05,2.34,4.95,3.51,8.69,3.51s6.64-1.17,8.69-3.51Zm-14.46-57.46l15.01-18.64,7.71,6.4-16,17.63-6.72-5.4Z"/>
        <path d="M597.72,613.78h10.71v54.48h-10.71v-54.48Zm33.06,21.47c0-3.85-.99-6.83-3-8.93-1.98-2.1-4.79-3.15-8.4-3.15s-6.19,.93-8.11,2.79c-1.9,1.85-2.86,4.47-2.86,7.83l-1.1-10.5c1.68-3.29,3.87-5.83,6.58-7.62,2.72-1.78,5.71-2.67,9-2.67,5.91,0,10.49,1.92,13.73,5.8,3.23,3.86,4.85,9.33,4.85,16.4v33.06h-10.71v-33.01Z"/>
        <path d="M721.9,635.83v10.18h-35.27v-10.18h35.27Z"/>
        <path d="M768.08,591.95h10.71v76.31h-10.71v-76.31Zm5.35,66.13h43.67v10.18h-43.67v-10.18Z"/>
        <path d="M837.42,666.27c-3.36-1.85-5.92-4.56-7.7-8.11-1.76-3.56-2.65-7.83-2.65-12.83v-8.88c0-4.93,.89-9.16,2.65-12.68,1.77-3.51,4.34-6.19,7.7-8.02,3.36-1.84,7.39-2.75,12.12-2.75s8.76,.91,12.12,2.75c3.36,1.83,5.92,4.51,7.7,8.02,1.76,3.52,2.65,7.74,2.65,12.68v9.03c0,4.97-.89,9.21-2.65,12.72-1.77,3.52-4.34,6.2-7.7,8.06-3.36,1.85-7.39,2.79-12.12,2.79s-8.76-.93-12.12-2.79Zm20.81-10.92c2.04-2.34,3.07-5.63,3.07-9.87v-9.03c0-4.23-1.03-7.5-3.07-9.81-2.05-2.31-4.95-3.48-8.69-3.48s-6.64,1.17-8.69,3.48c-2.04,2.31-3.07,5.57-3.07,9.81v9.03c0,4.23,1.03,7.52,3.07,9.87,2.05,2.34,4.95,3.51,8.69,3.51s6.64-1.17,8.69-3.51Z"/>
        <path d="M887.22,613.78h10.71v54.48h-10.71v-54.48Zm33.06,21.47c0-3.85-.99-6.83-3-8.93-1.98-2.1-4.79-3.15-8.4-3.15s-6.19,.93-8.11,2.79c-1.9,1.85-2.86,4.47-2.86,7.83l-1.1-10.5c1.68-3.29,3.87-5.83,6.58-7.62,2.72-1.78,5.71-2.67,9-2.67,5.91,0,10.49,1.92,13.73,5.8,3.23,3.86,4.85,9.33,4.85,16.4v33.06h-10.71v-33.01Z"/>
        <path d="M949.62,664.88c-3.32-2.79-4.98-7.01-4.98-12.68s1.53-9.42,4.56-12.12c3.06-2.69,7.65-4.05,13.81-4.05h15.49l.72,8.61h-16.16c-2.8,0-4.89,.62-6.26,1.87-1.39,1.24-2.08,3.14-2.08,5.69,0,2.76,.92,4.82,2.75,6.15,1.84,1.33,4.63,1.98,8.37,1.98,4.09,0,7.15-.43,9.16-1.31,2.02-.87,3.02-2.24,3.02-4.09l1.11,7.66c-.96,1.47-2.11,2.68-3.5,3.62-1.38,.96-2.99,1.66-4.81,2.13-1.82,.47-3.86,.71-6.13,.71-6.72,0-11.74-1.4-15.07-4.18Zm28.4-31.15c0-3.57-.96-6.34-2.86-8.32-1.91-1.98-4.62-2.96-8.12-2.96-2.17,0-4.29,.33-6.37,.99-2.09,.66-3.93,1.6-5.54,2.79l-7.83-5.36c2.06-2.47,4.79-4.41,8.16-5.8,3.38-1.38,7.13-2.06,11.27-2.06,4.5,0,8.37,.79,11.59,2.38,3.22,1.6,5.67,3.91,7.35,6.93,1.68,3.03,2.52,6.68,2.52,10.94v35.01h-10.18v-34.53Z"/>
        <path d="M1068.6,635.83v10.18h-35.27v-10.18h35.27Z"/>
        <path d="M1114.79,591.95h10.71v76.31h-10.71v-76.31Zm7.24,66.13h17.27c5.62,0,10-1.46,13.09-4.39,3.1-2.92,4.64-7.03,4.64-12.35v-22.46c0-5.32-1.54-9.45-4.64-12.36-3.09-2.93-7.46-4.39-13.09-4.39h-17.27v-10.18h16.95c6.12,0,11.36,1.07,15.7,3.21,4.34,2.13,7.64,5.25,9.91,9.33,2.27,4.11,3.42,9.03,3.42,14.81v21.62c0,5.76-1.14,10.71-3.42,14.79-2.27,4.11-5.59,7.22-9.94,9.35-4.36,2.13-9.6,3.2-15.72,3.2h-16.9v-10.18Z"/>
        <path d="M1174.83,591.95h53.85v10.18h-53.85v-10.18Zm21.58,6.24h10.71v70.07h-10.71v-70.07Z"/>
        <path d="M1239.17,591.95h10.71v76.31h-10.71v-76.31Zm5.25,0h42.78v10.18h-42.78v-10.18Zm0,34.01h36.99v10.18h-36.99v-10.18Z"/>
      </g>
    </g>
  </g>
</svg>