<?xml version="1.0" encoding="UTF-8"?>
<svg id="Capa_2" data-name="Capa 2" xmlns="http://www.w3.org/2000/svg" xmlns:xlink="http://www.w3.org/1999/xlink" viewBox="0 0 89 85">
  <defs>
    <style>
      .cls-1 {
        fill: #fff;
      }

      .cls-2 {
        filter: url(#drop-shadow-4);
      }

      .cls-3 {
        fill: url(#Degradado_sin_nombre_133);
        filter: url(#drop-shadow-2);
      }

      .cls-4 {
        fill: url(#Degradado_sin_nombre_174);
        filter: url(#drop-shadow-3);
      }

      .cls-5 {
        fill: url(#Degradado_sin_nombre_175);
        filter: url(#drop-shadow-1);
      }
    </style>
    <linearGradient id="Degradado_sin_nombre_175" data-name="Degradado sin nombre 175" x1="31.67" y1="7.99" x2="78.84" y2="73.21" gradientTransform="translate(-14.86 14.74) rotate(-13.27)" gradientUnits="userSpaceOnUse">
      <stop offset="0" stop-color="#00bfff"/>
      <stop offset=".26" stop-color="#0495e0"/>
      <stop offset=".84" stop-color="#102d94"/>
      <stop offset="1" stop-color="#141180"/>
    </linearGradient>
    <filter id="drop-shadow-1" x="13" y="0" width="75" height="84" filterUnits="userSpaceOnUse">
      <feOffset dx="3" dy="2"/>
      <feGaussianBlur result="blur" stdDeviation="2"/>
      <feFlood flood-color="#444" flood-opacity=".36"/>
      <feComposite in2="blur" operator="in"/>
      <feComposite in="SourceGraphic"/>
    </filter>
    <linearGradient id="Degradado_sin_nombre_133" data-name="Degradado sin nombre 133" x1="26.65" y1="6.57" x2="59.07" y2="70.32" gradientUnits="userSpaceOnUse">
      <stop offset="0" stop-color="#4594ee"/>
      <stop offset="1" stop-color="#003cb8"/>
    </linearGradient>
    <filter id="drop-shadow-2" x="0" y="8" width="89" height="77" filterUnits="userSpaceOnUse">
      <feOffset dx="2" dy="3"/>
      <feGaussianBlur result="blur-2" stdDeviation="2"/>
      <feFlood flood-color="#3a3a3a" flood-opacity=".37"/>
      <feComposite in2="blur-2" operator="in"/>
      <feComposite in="SourceGraphic"/>
    </filter>
    <linearGradient id="Degradado_sin_nombre_174" data-name="Degradado sin nombre 174" x1="74.68" y1="63.48" x2="12.33" y2="12.26" gradientUnits="userSpaceOnUse">
      <stop offset="0" stop-color="#00bfff"/>
      <stop offset=".11" stop-color="#02a6ed"/>
      <stop offset=".42" stop-color="#0a66be"/>
      <stop offset=".68" stop-color="#0f389c"/>
      <stop offset=".88" stop-color="#121b87"/>
      <stop offset="1" stop-color="#141180"/>
    </linearGradient>
    <filter id="drop-shadow-3" x="13" y="6" width="61" height="70" filterUnits="userSpaceOnUse">
      <feOffset dx="3" dy="2"/>
      <feGaussianBlur result="blur-3" stdDeviation="1"/>
      <feFlood flood-color="#2e303f" flood-opacity=".36"/>
      <feComposite in2="blur-3" operator="in"/>
      <feComposite in="SourceGraphic"/>
    </filter>
    <filter id="drop-shadow-4" x="30.09" y="20.12" width="28.91" height="48.88" filterUnits="userSpaceOnUse">
      <feOffset dx="4" dy="4"/>
      <feGaussianBlur result="blur-4" stdDeviation="1"/>
      <feFlood flood-color="#011d6d" flood-opacity=".31"/>
      <feComposite in2="blur-4" operator="in"/>
      <feComposite in="SourceGraphic"/>
    </filter>
  </defs>
  <g id="OBJECTS">
    <g>
      <path class="cls-5" d="M19.12,29.37C10.22,14.07,25.83,2.56,50.25,4.16c27,1.77,29.42,24.34,28.25,35.64-1.6,15.41-17.33,30.88-32.55,34.7-24.66,6.18-23.88-14.05-21.37-21.13,5.44-15.36-2.83-19.49-5.46-24Z"/>
      <path class="cls-3" d="M67.69,11.86c-12.62-1.02-18.59.1-30.65,3.78-6.81,2.08-15.38,6.72-20.9,11.02s-9.87,10.18-11.29,16.81c-1.97,9.24,2.2,19.24,9.85,25.27,7.65,6.03,18.38,8.15,28.13,6.22,2.84-.56,5.67-1.47,7.95-3.16,3.57-2.63,5.43-6.86,6.44-11.03,1.01-4.18,1.33-8.5,2.6-12.61,1.27-4.11,3.71-8.16,7.72-10.16,3.18-1.58,7.92-2.64,10.32-5.16,1.45-1.53,2.54-3.7,2.69-5.76.2-2.66.06-5.03-1.25-8.21-1.65-4.03-7.37-6.73-11.61-7.03Z"/>
      <path class="cls-4" d="M65.86,51.2c5.8,14.87-9.71,22.96-31.25,18.13-23.82-5.34-22.84-25.78-20.21-35.7,3.57-13.51,19.74-25.11,33.84-26.39,22.84-2.08,19.33,15.84,16.11,21.8-6.99,12.93-.19,17.76,1.52,22.15Z"/>
      <g class="cls-2">
        <path class="cls-1" d="M51.32,20.15h-8.23s-6.7-.77-6.89,6.31c-.15,5.55,0,8.03,0,8.03h-6.12v7.84h5.74v19.51h9.18v-19.13h6.31v-8.23h-6.7v-4.78s-.96-2.68,6.7-2.68v-6.89Z"/>
      </g>
    </g>
  </g>
</svg>